RisingSun-Thin.ufo
<glyph name="exclam" format="2">
  <advance width="228"/>
  <unicode hex="0021"/>
  <outline>
    <contour>
      <point x="80" y="29" type="qcurve" smooth="yes"/>
      <point x="80" y="22"/>
      <point x="85" y="9"/>
      <point x="94" y="0"/>
      <point x="107" y="-5"/>
      <point x="114" y="-5" type="qcurve" smooth="yes"/>
      <point x="121" y="-5"/>
      <point x="134" y="0"/>
      <point x="143" y="9"/>
      <point x="148" y="22"/>
      <point x="148" y="29" type="qcurve" smooth="yes"/>
      <point x="148" y="36"/>
      <point x="143" y="48"/>
      <point x="134" y="57"/>
      <point x="121" y="62"/>
      <point x="114" y="62" type="qcurve" smooth="yes"/>
      <point x="107" y="62"/>
      <point x="94" y="57"/>
      <point x="85" y="48"/>
      <point x="80" y="36"/>
    </contour>
    <contour>
      <point x="124" y="200" type="line"/>
      <point x="124" y="400" type="line"/>
      <point x="124" y="717" type="line"/>
      <point x="104" y="717" type="line"/>
      <point x="104" y="400" type="line"/>
      <point x="104" y="200" type="line"/>
    </contour>
  </outline>
</glyph>
<glyph name="dollar" format="2">
  <advance width="613"/>
  <unicode hex="0024"/>
  <outline>
    <contour>
      <point x="300" y="-93" type="line"/>
      <point x="320" y="-93" type="line"/>
      <point x="320" y="0" type="line"/>
      <point x="300" y="1" type="line"/>
    </contour>
    <contour>
      <point x="320" y="4" type="line"/>
      <point x="320" y="708" type="line"/>
      <point x="300" y="706" type="line"/>
      <point x="300" y="5" type="line"/>
    </contour>
    <contour>
      <point x="300" y="702" type="line"/>
      <point x="320" y="704" type="line"/>
      <point x="320" y="815" type="line"/>
      <point x="300" y="815" type="line"/>
    </contour>
    <contour>
      <point x="529" y="630" type="line"/>
      <point x="508" y="653"/>
      <point x="462" y="685"/>
      <point x="410" y="706"/>
      <point x="352" y="715"/>
      <point x="318" y="715" type="qcurve" smooth="yes"/>
      <point x="261" y="715"/>
      <point x="170" y="690"/>
      <point x="105" y="641"/>
      <point x="70" y="570"/>
      <point x="70" y="524" type="qcurve" smooth="yes"/>
      <point x="70" y="480"/>
      <point x="102" y="422"/>
      <point x="165" y="383"/>
      <point x="256" y="357"/>
      <point x="315" y="346" type="qcurve" smooth="yes"/>
      <point x="377" y="334"/>
      <point x="466" y="306"/>
      <point x="524" y="266"/>
      <point x="552" y="211"/>
      <point x="552" y="171" type="qcurve" smooth="yes"/>
      <point x="552" y="91"/>
      <point x="429" y="12"/>
      <point x="323" y="12" type="qcurve" smooth="yes"/>
      <point x="283" y="12"/>
      <point x="211" y="24"/>
      <point x="146" y="50"/>
      <point x="88" y="90"/>
      <point x="61" y="118" type="qcurve"/>
      <point x="46" y="105" type="line"/>
      <point x="75" y="77"/>
      <point x="136" y="35"/>
      <point x="204" y="8"/>
      <point x="279" y="-5"/>
      <point x="322" y="-5" type="qcurve" smooth="yes"/>
      <point x="380" y="-5"/>
      <point x="473" y="19"/>
      <point x="537" y="64"/>
      <point x="572" y="131"/>
      <point x="572" y="174" type="qcurve" smooth="yes"/>
      <point x="572" y="221"/>
      <point x="536" y="283"/>
      <point x="469" y="325"/>
      <point x="373" y="353"/>
      <point x="314" y="365" type="qcurve" smooth="yes"/>
      <point x="255" y="377"/>
      <point x="170" y="402"/>
      <point x="116" y="437"/>
      <point x="90" y="488"/>
      <point x="90" y="526" type="qcurve" smooth="yes"/>
      <point x="90" y="603"/>
      <point x="199" y="696"/>
      <point x="320" y="696" type="qcurve" smooth="yes"/>
      <point x="352" y="696"/>
      <point x="405" y="688"/>
      <point x="452" y="670"/>
      <point x="495" y="639"/>
      <point x="516" y="616" type="qcurve"/>
    </contour>
  </outline>
</glyph>
<glyph name="percent" format="2">
  <advance width="670"/>
  <unicode hex="0025"/>
  <outline>
    <contour>
      <point x="186" y="444" type="qcurve" smooth="yes"/>
      <point x="215" y="444"/>
      <point x="265" y="466"/>
      <point x="302" y="503"/>
      <point x="324" y="554"/>
      <point x="324" y="582" type="qcurve" smooth="yes"/>
      <point x="324" y="611"/>
      <point x="302" y="661"/>
      <point x="265" y="698"/>
      <point x="215" y="720"/>
      <point x="186" y="720" type="qcurve" smooth="yes"/>
      <point x="158" y="720"/>
      <point x="107" y="698"/>
      <point x="70" y="661"/>
      <point x="48" y="611"/>
      <point x="48" y="583" type="qcurve" smooth="yes"/>
      <point x="48" y="554"/>
      <point x="70" y="503"/>
      <point x="107" y="466"/>
      <point x="158" y="444"/>
    </contour>
    <contour>
      <point x="186" y="464" type="qcurve" smooth="yes"/>
      <point x="162" y="464"/>
      <point x="119" y="482"/>
      <point x="87" y="514"/>
      <point x="68" y="557"/>
      <point x="68" y="582" type="qcurve" smooth="yes"/>
      <point x="68" y="605"/>
      <point x="86" y="648"/>
      <point x="118" y="681"/>
      <point x="161" y="700"/>
      <point x="186" y="700" type="qcurve" smooth="yes"/>
      <point x="209" y="700"/>
      <point x="252" y="682"/>
      <point x="285" y="650"/>
      <point x="304" y="607"/>
      <point x="304" y="582" type="qcurve" smooth="yes"/>
      <point x="304" y="559"/>
      <point x="286" y="516"/>
      <point x="254" y="483"/>
      <point x="211" y="464"/>
    </contour>
    <contour>
      <point x="486" y="-10" type="qcurve" smooth="yes"/>
      <point x="514" y="-10"/>
      <point x="564" y="11"/>
      <point x="601" y="49"/>
      <point x="623" y="99"/>
      <point x="623" y="128" type="qcurve" smooth="yes"/>
      <point x="623" y="157"/>
      <point x="601" y="207"/>
      <point x="564" y="244"/>
      <point x="514" y="266"/>
      <point x="485" y="266" type="qcurve" smooth="yes"/>
      <point x="457" y="266"/>
      <point x="406" y="244"/>
      <point x="369" y="207"/>
      <point x="347" y="157"/>
      <point x="347" y="128" type="qcurve" smooth="yes"/>
      <point x="347" y="99"/>
      <point x="369" y="49"/>
      <point x="406" y="11"/>
      <point x="457" y="-10"/>
    </contour>
    <contour>
      <point x="485" y="10" type="qcurve" smooth="yes"/>
      <point x="461" y="10"/>
      <point x="418" y="28"/>
      <point x="386" y="60"/>
      <point x="367" y="103"/>
      <point x="367" y="128" type="qcurve" smooth="yes"/>
      <point x="367" y="151"/>
      <point x="385" y="194"/>
      <point x="417" y="227"/>
      <point x="460" y="246"/>
      <point x="485" y="246" type="qcurve" smooth="yes"/>
      <point x="508" y="246"/>
      <point x="551" y="227"/>
      <point x="584" y="195"/>
      <point x="603" y="152"/>
      <point x="603" y="128" type="qcurve" smooth="yes"/>
      <point x="603" y="104"/>
      <point x="585" y="62"/>
      <point x="553" y="29"/>
      <point x="510" y="10"/>
    </contour>
    <contour>
      <point x="64" y="-1" type="line"/>
      <point x="341" y="347" type="line"/>
      <point x="622" y="699" type="line"/>
      <point x="606" y="711" type="line"/>
      <point x="327" y="361" type="line"/>
      <point x="48" y="11" type="line"/>
    </contour>
  </outline>
</glyph>
<glyph name="ampersand" format="2">
  <advance width="635"/>
  <unicode hex="0026"/>
  <outline>
    <contour>
      <point x="276" y="699" type="curve" smooth="yes"/>
      <point x="205" y="699"/>
      <point x="130" y="650"/>
      <point x="130" y="573" type="curve" smooth="yes"/>
      <point x="130" y="515"/>
      <point x="201" y="440"/>
      <point x="240" y="400" type="curve" smooth="yes"/>
      <point x="625" y="0" type="line"/>
      <point x="598" y="0" type="line"/>
      <point x="229" y="386" type="line" smooth="yes"/>
      <point x="185" y="432"/>
      <point x="110" y="507"/>
      <point x="110" y="574" type="curve" smooth="yes"/>
      <point x="110" y="668"/>
      <point x="202" y="719"/>
      <point x="286" y="719" type="curve" smooth="yes"/>
      <point x="377" y="719"/>
      <point x="448" y="659"/>
      <point x="474" y="574" type="curve"/>
      <point x="455" y="567" type="line"/>
      <point x="430" y="649"/>
      <point x="361" y="699"/>
    </contour>
    <contour>
      <point x="233" y="398" type="curve"/>
      <point x="243" y="384" type="line"/>
      <point x="168" y="332"/>
      <point x="73" y="270"/>
      <point x="73" y="168" type="curve" smooth="yes"/>
      <point x="73" y="61"/>
      <point x="178" y="8"/>
      <point x="273" y="8" type="curve" smooth="yes"/>
      <point x="443" y="8"/>
      <point x="542" y="179"/>
      <point x="542" y="333" type="curve"/>
      <point x="562" y="333" type="line"/>
      <point x="562" y="167"/>
      <point x="451" y="-10"/>
      <point x="270" y="-10" type="curve" smooth="yes"/>
      <point x="163" y="-10"/>
      <point x="53" y="52"/>
      <point x="53" y="170" type="curve" smooth="yes"/>
      <point x="53" y="278"/>
      <point x="153" y="344"/>
    </contour>
  </outline>
</glyph>
<glyph name="parenleft" format="2">
  <advance width="234"/>
  <unicode hex="0028"/>
  <outline>
    <contour>
      <point x="50" y="345" type="qcurve" smooth="yes"/>
      <point x="50" y="300"/>
      <point x="67" y="208"/>
      <point x="101" y="115"/>
      <point x="151" y="21"/>
      <point x="183" y="-26" type="qcurve"/>
      <point x="199" y="-14" type="line"/>
      <point x="168" y="30"/>
      <point x="119" y="124"/>
      <point x="86" y="216"/>
      <point x="69" y="304"/>
      <point x="69" y="342" type="qcurve" smooth="yes"/>
      <point x="69" y="387"/>
      <point x="92" y="489"/>
      <point x="128" y="588"/>
      <point x="175" y="679"/>
      <point x="199" y="714" type="qcurve"/>
      <point x="183" y="726" type="line"/>
      <point x="156" y="680"/>
      <point x="107" y="588"/>
      <point x="71" y="494"/>
      <point x="50" y="396"/>
    </contour>
  </outline>
</glyph>
<glyph name="parenright" format="2">
  <advance width="233"/>
  <unicode hex="0029"/>
  <outline>
    <contour>
      <point x="184" y="345" type="qcurve" smooth="yes"/>
      <point x="184" y="396"/>
      <point x="163" y="494"/>
      <point x="127" y="588"/>
      <point x="78" y="680"/>
      <point x="51" y="726" type="qcurve"/>
      <point x="35" y="714" type="line"/>
      <point x="59" y="679"/>
      <point x="106" y="588"/>
      <point x="142" y="489"/>
      <point x="165" y="387"/>
      <point x="165" y="342" type="qcurve" smooth="yes"/>
      <point x="165" y="304"/>
      <point x="148" y="216"/>
      <point x="115" y="124"/>
      <point x="66" y="30"/>
      <point x="35" y="-14" type="qcurve"/>
      <point x="51" y="-26" type="line"/>
      <point x="83" y="21"/>
      <point x="133" y="115"/>
      <point x="167" y="208"/>
      <point x="184" y="300"/>
    </contour>
  </outline>
</glyph>
<glyph name="period" format="2">
  <advance width="268"/>
  <unicode hex="002E"/>
  <outline>
    <contour>
      <point x="100" y="29" type="qcurve" smooth="yes"/>
      <point x="100" y="15"/>
      <point x="120" y="-5"/>
      <point x="134" y="-5" type="qcurve" smooth="yes"/>
      <point x="148" y="-5"/>
      <point x="168" y="15"/>
      <point x="168" y="29" type="qcurve" smooth="yes"/>
      <point x="168" y="43"/>
      <point x="148" y="62"/>
      <point x="134" y="62" type="qcurve" smooth="yes"/>
      <point x="120" y="62"/>
      <point x="100" y="43"/>
    </contour>
  </outline>
</glyph>
<glyph name="zero" format="2">
  <advance width="586"/>
  <unicode hex="0030"/>
  <outline>
    <contour>
      <point x="293" y="-10" type="qcurve"/>
      <point x="353" y="-9"/>
      <point x="447" y="55"/>
      <point x="480" y="106" type="qcurve" smooth="yes"/>
      <point x="513" y="157"/>
      <point x="549" y="284"/>
      <point x="549" y="350" type="qcurve" smooth="yes"/>
      <point x="549" y="408"/>
      <point x="516" y="534"/>
      <point x="484" y="588" type="qcurve" smooth="yes"/>
      <point x="452" y="642"/>
      <point x="356" y="710"/>
      <point x="293" y="710" type="qcurve" smooth="yes"/>
      <point x="233" y="710"/>
      <point x="138" y="646"/>
      <point x="105" y="595" type="qcurve" smooth="yes"/>
      <point x="72" y="543"/>
      <point x="37" y="414"/>
      <point x="37" y="350" type="qcurve" smooth="yes"/>
      <point x="37" y="290"/>
      <point x="69" y="164"/>
      <point x="102" y="112" type="qcurve" smooth="yes"/>
      <point x="134" y="60"/>
      <point x="229" y="-8"/>
    </contour>
    <contour>
      <point x="57" y="350" type="qcurve"/>
      <point x="57" y="404"/>
      <point x="86" y="523"/>
      <point x="116" y="574" type="qcurve" smooth="yes"/>
      <point x="146" y="625"/>
      <point x="233" y="690"/>
      <point x="293" y="690" type="qcurve" smooth="yes"/>
      <point x="348" y="690"/>
      <point x="435" y="628"/>
      <point x="466" y="580" type="qcurve" smooth="yes"/>
      <point x="496" y="531"/>
      <point x="529" y="410"/>
      <point x="529" y="350" type="qcurve" smooth="yes"/>
      <point x="529" y="296"/>
      <point x="499" y="177"/>
      <point x="470" y="126" type="qcurve" smooth="yes"/>
      <point x="440" y="75"/>
      <point x="351" y="10"/>
      <point x="293" y="10" type="qcurve" smooth="yes"/>
      <point x="236" y="10"/>
      <point x="150" y="72"/>
      <point x="121" y="121" type="qcurve" smooth="yes"/>
      <point x="91" y="169"/>
      <point x="59" y="290"/>
    </contour>
  </outline>
</glyph>
<glyph name="one.tnum" format="2">
  <advance width="586"/>
  <unicode hex="0031"/>
  <outline>
    <contour>
      <point x="305" y="19" type="line"/>
      <point x="305" y="720" type="line"/>
      <point x="287" y="720" type="line"/>
      <point x="286" y="719"/>
      <point x="260" y="687"/>
      <point x="240" y="669" type="qcurve" smooth="yes"/>
      <point x="219" y="651"/>
      <point x="171" y="621"/>
      <point x="147" y="621" type="qcurve"/>
      <point x="147" y="600" type="line"/>
      <point x="165" y="600"/>
      <point x="209" y="618"/>
      <point x="229" y="632" type="qcurve" smooth="yes"/>
      <point x="249" y="646"/>
      <point x="280" y="675"/>
      <point x="287" y="687" type="qcurve"/>
      <point x="287" y="19" type="line"/>
      <point x="33" y="19" type="line"/>
      <point x="33" y="-1" type="line"/>
      <point x="554" y="-1" type="line"/>
      <point x="554" y="19" type="line"/>
    </contour>
  </outline>
</glyph>
<glyph name="two.tnum" format="2">
  <advance width="586"/>
  <unicode hex="0032"/>
  <outline>
    <contour>
      <point x="512" y="-2" type="line"/>
      <point x="512" y="18" type="line"/>
      <point x="93" y="18" type="line"/>
      <point x="93" y="47"/>
      <point x="101" y="122"/>
      <point x="137" y="199"/>
      <point x="211" y="272"/>
      <point x="276" y="299" type="qcurve" smooth="yes"/>
      <point x="310" y="313"/>
      <point x="392" y="343"/>
      <point x="463" y="393"/>
      <point x="511" y="465"/>
      <point x="511" y="521" type="qcurve" smooth="yes"/>
      <point x="511" y="558"/>
      <point x="486" y="629"/>
      <point x="436" y="685"/>
      <point x="360" y="719"/>
      <point x="308" y="719" type="qcurve" smooth="yes"/>
      <point x="251" y="719"/>
      <point x="166" y="680"/>
      <point x="110" y="632"/>
      <point x="83" y="592"/>
      <point x="83" y="591" type="qcurve"/>
      <point x="99" y="581" type="line"/>
      <point x="109" y="596"/>
      <point x="143" y="636"/>
      <point x="194" y="672"/>
      <point x="261" y="697"/>
      <point x="306" y="697" type="qcurve" smooth="yes"/>
      <point x="354" y="697"/>
      <point x="424" y="667"/>
      <point x="468" y="617"/>
      <point x="491" y="553"/>
      <point x="491" y="520" type="qcurve" smooth="yes"/>
      <point x="491" y="470"/>
      <point x="447" y="405"/>
      <point x="382" y="362"/>
      <point x="303" y="332"/>
      <point x="268" y="317" type="qcurve" smooth="yes"/>
      <point x="224" y="299"/>
      <point x="149" y="246"/>
      <point x="96" y="170"/>
      <point x="69" y="67"/>
      <point x="74" y="-2" type="qcurve"/>
    </contour>
  </outline>
</glyph>
<glyph name="three" format="2">
  <advance width="586"/>
  <unicode hex="0033"/>
  <outline>
    <contour>
      <point x="283" y="-11" type="curve" smooth="yes"/>
      <point x="390" y="-11"/>
      <point x="521" y="54"/>
      <point x="521" y="176" type="curve" smooth="yes"/>
      <point x="521" y="272"/>
      <point x="452" y="339"/>
      <point x="361" y="357" type="curve"/>
      <point x="443" y="378"/>
      <point x="501" y="433"/>
      <point x="501" y="521" type="curve" smooth="yes"/>
      <point x="501" y="644"/>
      <point x="397" y="719"/>
      <point x="281" y="719" type="curve" smooth="yes"/>
      <point x="193" y="719"/>
      <point x="106" y="675"/>
      <point x="74" y="590" type="curve"/>
      <point x="91" y="582" type="line"/>
      <point x="120" y="660"/>
      <point x="202" y="697"/>
      <point x="281" y="697" type="curve" smooth="yes"/>
      <point x="384" y="697"/>
      <point x="481" y="632"/>
      <point x="481" y="521" type="curve" smooth="yes"/>
      <point x="481" y="380"/>
      <point x="338" y="370"/>
      <point x="231" y="370" type="curve"/>
      <point x="231" y="348" type="line"/>
      <point x="275" y="348"/>
      <point x="318" y="348"/>
      <point x="361" y="336" type="curve" smooth="yes"/>
      <point x="436" y="315"/>
      <point x="501" y="263"/>
      <point x="501" y="179" type="curve" smooth="yes"/>
      <point x="501" y="69"/>
      <point x="379" y="11"/>
      <point x="283" y="11" type="curve" smooth="yes"/>
      <point x="206" y="11"/>
      <point x="113" y="48"/>
      <point x="86" y="126" type="curve"/>
      <point x="68" y="119" type="line"/>
      <point x="101" y="31"/>
      <point x="193" y="-11"/>
    </contour>
  </outline>
</glyph>
<glyph name="four" format="2">
  <advance width="586"/>
  <unicode hex="0034"/>
  <outline>
    <contour>
      <point x="442" y="0" type="line"/>
      <point x="442" y="211" type="line"/>
      <point x="527" y="211" type="line"/>
      <point x="527" y="231" type="line"/>
      <point x="442" y="231" type="line"/>
      <point x="442" y="710" type="line"/>
      <point x="429" y="710" type="line"/>
      <point x="52" y="228" type="line"/>
      <point x="52" y="211" type="line"/>
      <point x="423" y="211" type="line"/>
      <point x="423" y="0" type="line"/>
    </contour>
    <contour>
      <point x="423" y="673" type="line"/>
      <point x="423" y="231" type="line"/>
      <point x="79" y="231" type="line"/>
    </contour>
  </outline>
</glyph>
<glyph name="five.tnum" format="2">
  <advance width="586"/>
  <unicode hex="0035"/>
  <outline>
    <contour>
      <point x="289" y="-12" type="qcurve" smooth="yes"/>
      <point x="335" y="-12"/>
      <point x="417" y="21"/>
      <point x="480" y="82"/>
      <point x="516" y="167"/>
      <point x="516" y="221" type="qcurve" smooth="yes"/>
      <point x="516" y="271"/>
      <point x="482" y="353"/>
      <point x="421" y="412"/>
      <point x="340" y="445"/>
      <point x="294" y="445" type="qcurve" smooth="yes"/>
      <point x="243" y="445"/>
      <point x="148" y="404"/>
      <point x="113" y="363" type="qcurve"/>
      <point x="176" y="690" type="line"/>
      <point x="484" y="690" type="line"/>
      <point x="484" y="710" type="line"/>
      <point x="158" y="710" type="line"/>
      <point x="83" y="325" type="line"/>
      <point x="107" y="325" type="line"/>
      <point x="139" y="373"/>
      <point x="238" y="423"/>
      <point x="293" y="423" type="qcurve" smooth="yes"/>
      <point x="336" y="423"/>
      <point x="409" y="393"/>
      <point x="465" y="339"/>
      <point x="496" y="264"/>
      <point x="496" y="219" type="qcurve" smooth="yes"/>
      <point x="496" y="173"/>
      <point x="464" y="97"/>
      <point x="407" y="41"/>
      <point x="332" y="10"/>
      <point x="288" y="10" type="qcurve" smooth="yes"/>
      <point x="223" y="10"/>
      <point x="119" y="79"/>
      <point x="92" y="136" type="qcurve"/>
      <point x="71" y="136" type="line"/>
      <point x="99" y="70"/>
      <point x="216" y="-12"/>
    </contour>
  </outline>
</glyph>
<glyph name="six" format="2">
  <advance width="586"/>
  <unicode hex="0036"/>
  <outline>
    <contour>
      <point x="537" y="230" type="curve" smooth="yes"/>
      <point x="537" y="97"/>
      <point x="433" y="-12"/>
      <point x="299" y="-12" type="curve" smooth="yes"/>
      <point x="142" y="-12"/>
      <point x="58" y="120"/>
      <point x="58" y="265" type="curve" smooth="yes"/>
      <point x="58" y="422"/>
      <point x="92" y="715"/>
      <point x="302" y="715" type="curve" smooth="yes"/>
      <point x="398" y="715"/>
      <point x="472" y="659"/>
      <point x="500" y="568" type="curve"/>
      <point x="481" y="561" type="line"/>
      <point x="456" y="643"/>
      <point x="388" y="693"/>
      <point x="302" y="693" type="curve" smooth="yes"/>
      <point x="117" y="693"/>
      <point x="80" y="446"/>
      <point x="80" y="305" type="curve"/>
      <point x="114" y="407"/>
      <point x="194" y="475"/>
      <point x="304" y="475" type="curve" smooth="yes"/>
      <point x="437" y="475"/>
      <point x="537" y="360"/>
    </contour>
    <contour>
      <point x="517" y="231" type="curve" smooth="yes"/>
      <point x="517" y="348"/>
      <point x="418" y="453"/>
      <point x="300" y="453" type="curve" smooth="yes"/>
      <point x="181" y="453"/>
      <point x="84" y="350"/>
      <point x="84" y="232" type="curve" smooth="yes"/>
      <point x="84" y="111"/>
      <point x="179" y="10"/>
      <point x="301" y="10" type="curve" smooth="yes"/>
      <point x="422" y="10"/>
      <point x="517" y="111"/>
    </contour>
  </outline>
</glyph>
<glyph name="seven.tnum" format="2">
  <advance width="586"/>
  <unicode hex="0037"/>
  <outline>
    <contour>
      <point x="151" y="0" type="line"/>
      <point x="174" y="0" type="line"/>
      <point x="524" y="710" type="line"/>
      <point x="81" y="710" type="line"/>
      <point x="81" y="690" type="line"/>
      <point x="492" y="690" type="line"/>
    </contour>
  </outline>
</glyph>
<glyph name="eight" format="2">
  <advance width="586"/>
  <unicode hex="0038"/>
  <outline>
    <contour>
      <point x="522" y="188" type="qcurve" smooth="yes"/>
      <point x="522" y="224"/>
      <point x="498" y="285"/>
      <point x="455" y="335"/>
      <point x="396" y="371"/>
      <point x="363" y="381" type="qcurve"/>
      <point x="389" y="391"/>
      <point x="438" y="421"/>
      <point x="475" y="461"/>
      <point x="497" y="511"/>
      <point x="497" y="541" type="qcurve" smooth="yes"/>
      <point x="497" y="582"/>
      <point x="462" y="645"/>
      <point x="405" y="688"/>
      <point x="331" y="710"/>
      <point x="293" y="710" type="qcurve" smooth="yes"/>
      <point x="256" y="710"/>
      <point x="183" y="688"/>
      <point x="124" y="645"/>
      <point x="88" y="582"/>
      <point x="88" y="541" type="qcurve" smooth="yes"/>
      <point x="88" y="511"/>
      <point x="109" y="461"/>
      <point x="146" y="421"/>
      <point x="195" y="391"/>
      <point x="223" y="381" type="qcurve"/>
      <point x="194" y="373"/>
      <point x="135" y="339"/>
      <point x="90" y="290"/>
      <point x="63" y="227"/>
      <point x="63" y="190" type="qcurve" smooth="yes"/>
      <point x="63" y="151"/>
      <point x="95" y="80"/>
      <point x="154" y="26"/>
      <point x="238" y="-7"/>
      <point x="290" y="-7" type="qcurve" smooth="yes"/>
      <point x="336" y="-7"/>
      <point x="421" y="20"/>
      <point x="484" y="71"/>
      <point x="522" y="143"/>
    </contour>
    <contour>
      <point x="502" y="191" type="qcurve" smooth="yes"/>
      <point x="502" y="149"/>
      <point x="465" y="82"/>
      <point x="406" y="35"/>
      <point x="331" y="10"/>
      <point x="294" y="10" type="qcurve" smooth="yes"/>
      <point x="258" y="10"/>
      <point x="184" y="34"/>
      <point x="122" y="80"/>
      <point x="83" y="146"/>
      <point x="83" y="189" type="qcurve" smooth="yes"/>
      <point x="83" y="230"/>
      <point x="120" y="297"/>
      <point x="180" y="345"/>
      <point x="254" y="371"/>
      <point x="291" y="371" type="qcurve" smooth="yes"/>
      <point x="328" y="371"/>
      <point x="402" y="347"/>
      <point x="464" y="301"/>
      <point x="502" y="234"/>
    </contour>
    <contour>
      <point x="108" y="539" type="qcurve" smooth="yes"/>
      <point x="108" y="575"/>
      <point x="139" y="631"/>
      <point x="190" y="670"/>
      <point x="257" y="690"/>
      <point x="291" y="690" type="qcurve" smooth="yes"/>
      <point x="326" y="690"/>
      <point x="394" y="670"/>
      <point x="445" y="632"/>
      <point x="477" y="577"/>
      <point x="477" y="541" type="qcurve" smooth="yes"/>
      <point x="477" y="505"/>
      <point x="443" y="450"/>
      <point x="390" y="411"/>
      <point x="324" y="391"/>
      <point x="292" y="391" type="qcurve" smooth="yes"/>
      <point x="261" y="391"/>
      <point x="196" y="411"/>
      <point x="142" y="448"/>
      <point x="108" y="503"/>
    </contour>
  </outline>
</glyph>
<glyph name="nine.tnum" format="2">
  <advance width="586"/>
  <unicode hex="0039"/>
  <outline>
    <contour>
      <point x="48" y="473" type="curve" smooth="yes"/>
      <point x="48" y="605"/>
      <point x="153" y="715"/>
      <point x="286" y="715" type="curve" smooth="yes"/>
      <point x="449" y="715"/>
      <point x="527" y="568"/>
      <point x="527" y="422" type="curve" smooth="yes"/>
      <point x="527" y="265"/>
      <point x="493" y="-12"/>
      <point x="285" y="-12" type="curve" smooth="yes"/>
      <point x="190" y="-12"/>
      <point x="113" y="43"/>
      <point x="85" y="135" type="curve"/>
      <point x="104" y="142" type="line"/>
      <point x="129" y="59"/>
      <point x="198" y="10"/>
      <point x="284" y="10" type="curve" smooth="yes"/>
      <point x="466" y="10"/>
      <point x="505" y="253"/>
      <point x="505" y="392" type="curve"/>
      <point x="475" y="296"/>
      <point x="383" y="228"/>
      <point x="282" y="228" type="curve" smooth="yes"/>
      <point x="148" y="228"/>
      <point x="48" y="342"/>
    </contour>
    <contour>
      <point x="284" y="693" type="curve" smooth="yes"/>
      <point x="164" y="693"/>
      <point x="68" y="591"/>
      <point x="68" y="472" type="curve" smooth="yes"/>
      <point x="68" y="355"/>
      <point x="167" y="250"/>
      <point x="285" y="250" type="curve" smooth="yes"/>
      <point x="403" y="250"/>
      <point x="501" y="355"/>
      <point x="501" y="472" type="curve" smooth="yes"/>
      <point x="501" y="590"/>
      <point x="403" y="693"/>
    </contour>
  </outline>
</glyph>
<glyph name="question" format="2">
  <advance width="468"/>
  <unicode hex="003F"/>
  <outline>
    <contour>
      <point x="193" y="179" type="line"/>
      <point x="200" y="202"/>
      <point x="208" y="221"/>
      <point x="219" y="238" type="curve" smooth="yes"/>
      <point x="230" y="255"/>
      <point x="245" y="270"/>
      <point x="265" y="287" type="curve" smooth="yes"/>
      <point x="304" y="319"/>
      <point x="340" y="345"/>
      <point x="368" y="374" type="curve" smooth="yes"/>
      <point x="406" y="413"/>
      <point x="430" y="458"/>
      <point x="430" y="532" type="curve" smooth="yes"/>
      <point x="430" y="642"/>
      <point x="353" y="719"/>
      <point x="243" y="719" type="curve" smooth="yes"/>
      <point x="154" y="719"/>
      <point x="70" y="667"/>
      <point x="35" y="590" type="curve"/>
      <point x="53" y="582" type="line"/>
      <point x="87" y="653"/>
      <point x="162" y="699"/>
      <point x="244" y="699" type="curve" smooth="yes"/>
      <point x="344" y="699"/>
      <point x="410" y="634"/>
      <point x="410" y="535" type="curve" smooth="yes"/>
      <point x="410" y="468"/>
      <point x="388" y="424"/>
      <point x="354" y="387" type="curve" smooth="yes"/>
      <point x="324" y="355"/>
      <point x="285" y="328"/>
      <point x="243" y="294" type="curve" smooth="yes"/>
      <point x="209" y="267"/>
      <point x="184" y="224"/>
      <point x="184" y="192" type="curve" smooth="yes"/>
      <point x="184" y="188"/>
      <point x="185" y="183"/>
      <point x="187" y="179" type="curve"/>
    </contour>
    <contour>
      <point x="154" y="29" type="curve" smooth="yes"/>
      <point x="154" y="10"/>
      <point x="169" y="-5"/>
      <point x="188" y="-5" type="curve" smooth="yes"/>
      <point x="207" y="-5"/>
      <point x="222" y="10"/>
      <point x="222" y="29" type="curve" smooth="yes"/>
      <point x="222" y="48"/>
      <point x="207" y="62"/>
      <point x="188" y="62" type="curve" smooth="yes"/>
      <point x="169" y="62"/>
      <point x="154" y="48"/>
    </contour>
  </outline>
</glyph>
<glyph name="at" format="2">
  <advance width="830"/>
  <unicode hex="0040"/>
  <outline>
    <contour>
      <point x="413" y="603" type="qcurve" smooth="yes"/>
      <point x="343" y="603"/>
      <point x="211" y="548"/>
      <point x="111" y="449"/>
      <point x="50" y="312"/>
      <point x="50" y="230" type="qcurve" smooth="yes"/>
      <point x="50" y="151"/>
      <point x="107" y="14"/>
      <point x="206" y="-88"/>
      <point x="338" y="-146"/>
      <point x="412" y="-146" type="qcurve" smooth="yes"/>
      <point x="454" y="-146"/>
      <point x="535" y="-126"/>
      <point x="574" y="-106" type="qcurve"/>
      <point x="564" y="-88" type="line"/>
      <point x="528" y="-108"/>
      <point x="451" y="-126"/>
      <point x="412" y="-126" type="qcurve" smooth="yes"/>
      <point x="342" y="-126"/>
      <point x="217" y="-70"/>
      <point x="124" y="26"/>
      <point x="70" y="156"/>
      <point x="70" y="230" type="qcurve" smooth="yes"/>
      <point x="70" y="307"/>
      <point x="127" y="436"/>
      <point x="222" y="530"/>
      <point x="346" y="583"/>
      <point x="413" y="583" type="qcurve" smooth="yes"/>
      <point x="482" y="583"/>
      <point x="605" y="526"/>
      <point x="696" y="429"/>
      <point x="749" y="298"/>
      <point x="749" y="223" type="qcurve" smooth="yes"/>
      <point x="749" y="192"/>
      <point x="738" y="115"/>
      <point x="710" y="49"/>
      <point x="665" y="4"/>
      <point x="630" y="4" type="qcurve" smooth="yes"/>
      <point x="613" y="4"/>
      <point x="592" y="16"/>
      <point x="581" y="39"/>
      <point x="577" y="73"/>
      <point x="577" y="95" type="qcurve" smooth="yes"/>
      <point x="577" y="248" type="line" smooth="yes"/>
      <point x="577" y="285"/>
      <point x="567" y="357"/>
      <point x="535" y="414"/>
      <point x="476" y="449"/>
      <point x="427" y="449" type="qcurve" smooth="yes"/>
      <point x="382" y="449"/>
      <point x="305" y="420"/>
      <point x="270" y="397" type="qcurve"/>
      <point x="282" y="381" type="line"/>
      <point x="314" y="404"/>
      <point x="388" y="429"/>
      <point x="426" y="429" type="qcurve" smooth="yes"/>
      <point x="465" y="429"/>
      <point x="516" y="402"/>
      <point x="546" y="352"/>
      <point x="558" y="283"/>
      <point x="558" y="242" type="qcurve"/>
      <point x="541" y="248"/>
      <point x="467" y="265"/>
      <point x="422" y="265" type="qcurve" smooth="yes"/>
      <point x="390" y="265"/>
      <point x="325" y="253"/>
      <point x="273" y="224"/>
      <point x="241" y="176"/>
      <point x="241" y="140" type="qcurve" smooth="yes"/>
      <point x="241" y="83"/>
      <point x="321" y="12"/>
      <point x="387" y="12" type="qcurve" smooth="yes"/>
      <point x="439" y="12"/>
      <point x="528" y="55"/>
      <point x="554" y="84" type="qcurve"/>
      <point x="556" y="63"/>
      <point x="562" y="27"/>
      <point x="577" y="-1"/>
      <point x="605" y="-16"/>
      <point x="629" y="-16" type="qcurve" smooth="yes"/>
      <point x="677" y="-16"/>
      <point x="733" y="42"/>
      <point x="761" y="120"/>
      <point x="769" y="200"/>
      <point x="769" y="222" type="qcurve" smooth="yes"/>
      <point x="769" y="301"/>
      <point x="713" y="440"/>
      <point x="617" y="543"/>
      <point x="487" y="603"/>
    </contour>
    <contour>
      <point x="484" y="55" type="qcurve" smooth="yes"/>
      <point x="465" y="46"/>
      <point x="413" y="32"/>
      <point x="387" y="32" type="qcurve" smooth="yes"/>
      <point x="362" y="32"/>
      <point x="317" y="46"/>
      <point x="282" y="73"/>
      <point x="261" y="114"/>
      <point x="261" y="140" type="qcurve" smooth="yes"/>
      <point x="261" y="170"/>
      <point x="288" y="211"/>
      <point x="333" y="235"/>
      <point x="389" y="245"/>
      <point x="417" y="245" type="qcurve" smooth="yes"/>
      <point x="445" y="245"/>
      <point x="492" y="238"/>
      <point x="527" y="229"/>
      <point x="551" y="221"/>
      <point x="557" y="221" type="qcurve"/>
      <point x="557" y="174" type="line" smooth="yes"/>
      <point x="557" y="159"/>
      <point x="553" y="126"/>
      <point x="538" y="95"/>
      <point x="509" y="67"/>
    </contour>
  </outline>
</glyph>
<glyph name="B" format="2">
  <advance width="655"/>
  <unicode hex="0042"/>
  <outline>
    <contour>
      <point x="605" y="184" type="qcurve" smooth="yes"/>
      <point x="605" y="214"/>
      <point x="587" y="271"/>
      <point x="552" y="319"/>
      <point x="503" y="355"/>
      <point x="473" y="364" type="qcurve"/>
      <point x="520" y="385"/>
      <point x="575" y="475"/>
      <point x="575" y="529" type="qcurve" smooth="yes"/>
      <point x="575" y="562"/>
      <point x="553" y="627"/>
      <point x="511" y="678"/>
      <point x="451" y="710"/>
      <point x="413" y="710" type="qcurve" smooth="yes"/>
      <point x="99" y="710" type="line"/>
      <point x="99" y="0" type="line"/>
      <point x="428" y="0" type="line" smooth="yes"/>
      <point x="464" y="0"/>
      <point x="529" y="30"/>
      <point x="577" y="81"/>
      <point x="605" y="147"/>
    </contour>
    <contour>
      <point x="585" y="184" type="qcurve" smooth="yes"/>
      <point x="585" y="153"/>
      <point x="561" y="94"/>
      <point x="518" y="48"/>
      <point x="461" y="20"/>
      <point x="428" y="20" type="qcurve" smooth="yes"/>
      <point x="119" y="20" type="line"/>
      <point x="119" y="348" type="line"/>
      <point x="435" y="348" type="line" smooth="yes"/>
      <point x="467" y="348"/>
      <point x="522" y="321"/>
      <point x="562" y="275"/>
      <point x="585" y="216"/>
    </contour>
    <contour>
      <point x="413" y="690" type="line" smooth="yes"/>
      <point x="445" y="690"/>
      <point x="497" y="664"/>
      <point x="534" y="619"/>
      <point x="555" y="561"/>
      <point x="555" y="529" type="qcurve" smooth="yes"/>
      <point x="555" y="499"/>
      <point x="533" y="442"/>
      <point x="494" y="396"/>
      <point x="440" y="368"/>
      <point x="407" y="368" type="qcurve" smooth="yes"/>
      <point x="119" y="368" type="line"/>
      <point x="119" y="690" type="line"/>
    </contour>
  </outline>
</glyph>
<glyph name="D" format="2">
  <advance width="711"/>
  <unicode hex="0044"/>
  <outline>
    <contour>
      <point x="327" y="0" type="line" smooth="yes"/>
      <point x="404" y="0"/>
      <point x="527" y="51"/>
      <point x="613" y="144"/>
      <point x="660" y="275"/>
      <point x="660" y="356" type="qcurve" smooth="yes"/>
      <point x="660" y="430"/>
      <point x="619" y="559"/>
      <point x="536" y="655"/>
      <point x="411" y="710"/>
      <point x="327" y="710" type="qcurve" smooth="yes"/>
      <point x="99" y="710" type="line"/>
      <point x="99" y="0" type="line"/>
    </contour>
    <contour>
      <point x="640" y="356" type="qcurve" smooth="yes"/>
      <point x="640" y="284"/>
      <point x="600" y="161"/>
      <point x="521" y="71"/>
      <point x="404" y="20"/>
      <point x="327" y="20" type="qcurve" smooth="yes"/>
      <point x="119" y="20" type="line"/>
      <point x="119" y="690" type="line"/>
      <point x="327" y="690" type="line" smooth="yes"/>
      <point x="402" y="690"/>
      <point x="519" y="640"/>
      <point x="599" y="551"/>
      <point x="640" y="429"/>
    </contour>
  </outline>
</glyph>
<glyph name="E" format="2">
  <advance width="617"/>
  <unicode hex="0045"/>
  <outline>
    <contour>
      <point x="119" y="20" type="line"/>
      <point x="119" y="353" type="line"/>
      <point x="502" y="353" type="line"/>
      <point x="502" y="373" type="line"/>
      <point x="119" y="373" type="line"/>
      <point x="119" y="690" type="line"/>
      <point x="556" y="690" type="line"/>
      <point x="556" y="710" type="line"/>
      <point x="99" y="710" type="line"/>
      <point x="99" y="0" type="line"/>
      <point x="565" y="0" type="line"/>
      <point x="565" y="20" type="line"/>
    </contour>
  </outline>
</glyph>
<glyph name="I" format="2">
  <advance width="218"/>
  <unicode hex="0049"/>
  <outline>
    <contour>
      <point x="119" y="0" type="line"/>
      <point x="119" y="710" type="line"/>
      <point x="99" y="710" type="line"/>
      <point x="99" y="0" type="line"/>
    </contour>
  </outline>
</glyph>
<glyph name="J" format="2">
  <advance width="518"/>
  <unicode hex="004A"/>
  <outline>
    <contour>
      <point x="202" y="-5" type="qcurve" smooth="yes"/>
      <point x="178" y="-5"/>
      <point x="125" y="9"/>
      <point x="75" y="36"/>
      <point x="35" y="73"/>
      <point x="26" y="96" type="qcurve"/>
      <point x="43" y="105" type="line"/>
      <point x="51" y="85"/>
      <point x="88" y="51"/>
      <point x="133" y="27"/>
      <point x="181" y="14"/>
      <point x="202" y="14" type="qcurve" smooth="yes"/>
      <point x="249" y="14"/>
      <point x="321" y="44"/>
      <point x="371" y="97"/>
      <point x="396" y="172"/>
      <point x="396" y="217" type="qcurve" smooth="yes"/>
      <point x="396" y="710" type="line"/>
      <point x="418" y="710" type="line"/>
      <point x="418" y="207" type="line" smooth="yes"/>
      <point x="418" y="158"/>
      <point x="387" y="79"/>
      <point x="331" y="24"/>
      <point x="251" y="-5"/>
    </contour>
  </outline>
</glyph>
<glyph name="L" format="2">
  <advance width="579"/>
  <unicode hex="004C"/>
  <outline>
    <contour>
      <point x="565" y="0" type="line"/>
      <point x="565" y="20" type="line"/>
      <point x="119" y="20" type="line"/>
      <point x="119" y="710" type="line"/>
      <point x="99" y="710" type="line"/>
      <point x="99" y="0" type="line"/>
    </contour>
  </outline>
</glyph>
<glyph name="N" format="2">
  <advance width="776"/>
  <unicode hex="004E"/>
  <outline>
    <contour>
      <point x="654" y="0" type="line"/>
      <point x="677" y="0" type="line"/>
      <point x="677" y="710" type="line"/>
      <point x="657" y="710" type="line"/>
      <point x="657" y="29" type="line"/>
      <point x="114" y="710" type="line"/>
      <point x="99" y="710" type="line"/>
      <point x="99" y="0" type="line"/>
      <point x="119" y="0" type="line"/>
      <point x="119" y="671" type="line"/>
    </contour>
  </outline>
</glyph>
<glyph name="R" format="2">
  <advance width="642"/>
  <unicode hex="0052"/>
  <outline>
    <contour>
      <point x="119" y="0" type="line"/>
      <point x="119" y="279" type="line"/>
      <point x="383" y="279" type="line"/>
      <point x="563" y="0" type="line"/>
      <point x="587" y="0" type="line"/>
      <point x="407" y="279" type="line"/>
      <point x="447" y="282"/>
      <point x="514" y="319"/>
      <point x="562" y="378"/>
      <point x="588" y="454"/>
      <point x="588" y="495" type="qcurve" smooth="yes"/>
      <point x="588" y="535"/>
      <point x="558" y="612"/>
      <point x="505" y="673"/>
      <point x="432" y="710"/>
      <point x="388" y="710" type="qcurve" smooth="yes"/>
      <point x="99" y="710" type="line"/>
      <point x="99" y="0" type="line"/>
    </contour>
    <contour>
      <point x="119" y="690" type="line"/>
      <point x="388" y="690" type="line" smooth="yes"/>
      <point x="426" y="690"/>
      <point x="491" y="657"/>
      <point x="540" y="603"/>
      <point x="568" y="533"/>
      <point x="568" y="495" type="qcurve" smooth="yes"/>
      <point x="568" y="458"/>
      <point x="544" y="388"/>
      <point x="499" y="333"/>
      <point x="435" y="299"/>
      <point x="395" y="299" type="qcurve" smooth="yes"/>
      <point x="119" y="299" type="line"/>
    </contour>
  </outline>
</glyph>
<glyph name="S" format="2">
  <advance width="602"/>
  <unicode hex="0053"/>
  <outline>
    <contour>
      <point x="522" y="630" type="line"/>
      <point x="501" y="653"/>
      <point x="455" y="685"/>
      <point x="403" y="706"/>
      <point x="345" y="715"/>
      <point x="311" y="715" type="qcurve" smooth="yes"/>
      <point x="254" y="715"/>
      <point x="163" y="690"/>
      <point x="98" y="641"/>
      <point x="63" y="570"/>
      <point x="63" y="524" type="qcurve" smooth="yes"/>
      <point x="63" y="480"/>
      <point x="95" y="422"/>
      <point x="158" y="383"/>
      <point x="249" y="357"/>
      <point x="308" y="346" type="qcurve" smooth="yes"/>
      <point x="370" y="334"/>
      <point x="459" y="306"/>
      <point x="517" y="266"/>
      <point x="545" y="211"/>
      <point x="545" y="171" type="qcurve" smooth="yes"/>
      <point x="545" y="91"/>
      <point x="422" y="12"/>
      <point x="316" y="12" type="qcurve" smooth="yes"/>
      <point x="276" y="12"/>
      <point x="204" y="24"/>
      <point x="139" y="50"/>
      <point x="81" y="90"/>
      <point x="54" y="118" type="qcurve"/>
      <point x="39" y="105" type="line"/>
      <point x="68" y="77"/>
      <point x="129" y="35"/>
      <point x="197" y="8"/>
      <point x="272" y="-5"/>
      <point x="315" y="-5" type="qcurve" smooth="yes"/>
      <point x="373" y="-5"/>
      <point x="466" y="19"/>
      <point x="530" y="64"/>
      <point x="565" y="131"/>
      <point x="565" y="174" type="qcurve" smooth="yes"/>
      <point x="565" y="221"/>
      <point x="529" y="283"/>
      <point x="462" y="325"/>
      <point x="366" y="353"/>
      <point x="307" y="365" type="qcurve" smooth="yes"/>
      <point x="248" y="377"/>
      <point x="163" y="402"/>
      <point x="109" y="437"/>
      <point x="83" y="488"/>
      <point x="83" y="526" type="qcurve" smooth="yes"/>
      <point x="83" y="603"/>
      <point x="192" y="696"/>
      <point x="313" y="696" type="qcurve" smooth="yes"/>
      <point x="345" y="696"/>
      <point x="398" y="688"/>
      <point x="445" y="670"/>
      <point x="488" y="639"/>
      <point x="509" y="616" type="qcurve"/>
    </contour>
  </outline>
</glyph>
<glyph name="Z" format="2">
  <advance width="624"/>
  <unicode hex="005A"/>
  <outline>
    <contour>
      <point x="28" y="0" type="line"/>
      <point x="591" y="0" type="line"/>
      <point x="591" y="20" type="line"/>
      <point x="53" y="20" type="line"/>
      <point x="595" y="690" type="line"/>
      <point x="595" y="710" type="line"/>
      <point x="33" y="710" type="line"/>
      <point x="33" y="690" type="line"/>
      <point x="570" y="690" type="line"/>
      <point x="28" y="20" type="line"/>
    </contour>
  </outline>
</glyph>
<glyph name="b" format="2">
  <advance width="603"/>
  <unicode hex="0062"/>
  <outline>
    <contour>
      <point x="307" y="-10" type="qcurve" smooth="yes"/>
      <point x="360" y="-10"/>
      <point x="451" y="34"/>
      <point x="519" y="108"/>
      <point x="557" y="205"/>
      <point x="557" y="258" type="qcurve" smooth="yes"/>
      <point x="557" y="306"/>
      <point x="524" y="402"/>
      <point x="463" y="479"/>
      <point x="373" y="527"/>
      <point x="316" y="527" type="qcurve" smooth="yes"/>
      <point x="247" y="527"/>
      <point x="144" y="455"/>
      <point x="104" y="398" type="qcurve"/>
      <point x="104" y="730" type="line"/>
      <point x="84" y="730" type="line"/>
      <point x="84" y="0" type="line"/>
      <point x="104" y="0" type="line"/>
      <point x="104" y="108" type="line"/>
      <point x="119" y="83"/>
      <point x="164" y="40"/>
      <point x="217" y="8"/>
      <point x="276" y="-10"/>
    </contour>
    <contour>
      <point x="307" y="10" type="qcurve" smooth="yes"/>
      <point x="277" y="10"/>
      <point x="207" y="35"/>
      <point x="147" y="78"/>
      <point x="106" y="135"/>
      <point x="104" y="167" type="qcurve"/>
      <point x="104" y="356" type="line"/>
      <point x="119" y="386"/>
      <point x="161" y="440"/>
      <point x="214" y="482"/>
      <point x="279" y="507"/>
      <point x="316" y="507" type="qcurve" smooth="yes"/>
      <point x="365" y="507"/>
      <point x="446" y="465"/>
      <point x="505" y="396"/>
      <point x="537" y="306"/>
      <point x="537" y="258" type="qcurve" smooth="yes"/>
      <point x="537" y="212"/>
      <point x="503" y="123"/>
      <point x="442" y="53"/>
      <point x="357" y="10"/>
    </contour>
  </outline>
</glyph>
<glyph name="e" format="2">
  <advance width="576"/>
  <unicode hex="0065"/>
  <outline>
    <contour>
      <point x="296" y="-10" type="qcurve" smooth="yes"/>
      <point x="330" y="-10"/>
      <point x="395" y="9"/>
      <point x="450" y="42"/>
      <point x="492" y="87"/>
      <point x="502" y="114" type="qcurve"/>
      <point x="483" y="119" type="line"/>
      <point x="472" y="95"/>
      <point x="434" y="55"/>
      <point x="384" y="26"/>
      <point x="327" y="10"/>
      <point x="297" y="10" type="qcurve" smooth="yes"/>
      <point x="252" y="10"/>
      <point x="171" y="47"/>
      <point x="109" y="111"/>
      <point x="70" y="198"/>
      <point x="66" y="248" type="qcurve"/>
      <point x="541" y="248" type="line"/>
      <point x="541" y="251"/>
      <point x="541" y="256"/>
      <point x="541" y="259" type="qcurve" smooth="yes"/>
      <point x="541" y="315"/>
      <point x="501" y="413"/>
      <point x="434" y="485"/>
      <point x="343" y="527"/>
      <point x="291" y="527" type="qcurve" smooth="yes"/>
      <point x="240" y="527"/>
      <point x="151" y="486"/>
      <point x="84" y="414"/>
      <point x="46" y="318"/>
      <point x="46" y="263" type="qcurve" smooth="yes"/>
      <point x="46" y="207"/>
      <point x="86" y="108"/>
      <point x="154" y="33"/>
      <point x="245" y="-10"/>
    </contour>
    <contour>
      <point x="66" y="268" type="line"/>
      <point x="69" y="319"/>
      <point x="105" y="407"/>
      <point x="166" y="471"/>
      <point x="246" y="507"/>
      <point x="292" y="507" type="qcurve" smooth="yes"/>
      <point x="338" y="507"/>
      <point x="418" y="471"/>
      <point x="479" y="408"/>
      <point x="517" y="320"/>
      <point x="520" y="268" type="qcurve"/>
    </contour>
  </outline>
</glyph>
<glyph name="l" format="2">
  <advance width="238"/>
  <unicode hex="006C"/>
  <outline>
    <contour>
      <point x="90" y="77" type="line" smooth="yes"/>
      <point x="90" y="40"/>
      <point x="134" y="-5"/>
      <point x="169" y="-5" type="qcurve" smooth="yes"/>
      <point x="183" y="-5"/>
      <point x="224" y="2"/>
      <point x="238" y="7" type="qcurve"/>
      <point x="231" y="23" type="line"/>
      <point x="218" y="19"/>
      <point x="187" y="14"/>
      <point x="176" y="14" type="qcurve" smooth="yes"/>
      <point x="161" y="14"/>
      <point x="137" y="23"/>
      <point x="119" y="39"/>
      <point x="110" y="62"/>
      <point x="110" y="77" type="qcurve" smooth="yes"/>
      <point x="110" y="730" type="line"/>
      <point x="90" y="730" type="line"/>
    </contour>
  </outline>
</glyph>
<glyph name="m" format="2">
  <advance width="908"/>
  <unicode hex="006D"/>
  <outline>
    <contour>
      <point x="830" y="289" type="line" smooth="yes"/>
      <point x="830" y="349"/>
      <point x="811" y="439"/>
      <point x="771" y="498"/>
      <point x="712" y="527"/>
      <point x="671" y="527" type="qcurve" smooth="yes"/>
      <point x="605" y="527"/>
      <point x="502" y="452"/>
      <point x="463" y="376" type="qcurve"/>
      <point x="456" y="445"/>
      <point x="370" y="527"/>
      <point x="305" y="527" type="qcurve" smooth="yes"/>
      <point x="243" y="527"/>
      <point x="138" y="453"/>
      <point x="104" y="385" type="qcurve"/>
      <point x="104" y="519" type="line"/>
      <point x="84" y="519" type="line"/>
      <point x="84" y="0" type="line"/>
      <point x="104" y="0" type="line"/>
      <point x="104" y="328" type="line"/>
      <point x="115" y="368"/>
      <point x="155" y="434"/>
      <point x="208" y="481"/>
      <point x="273" y="507"/>
      <point x="309" y="507" type="qcurve" smooth="yes"/>
      <point x="381" y="507"/>
      <point x="447" y="402"/>
      <point x="447" y="289" type="qcurve" smooth="yes"/>
      <point x="447" y="0" type="line"/>
      <point x="467" y="0" type="line"/>
      <point x="467" y="327" type="line"/>
      <point x="478" y="366"/>
      <point x="516" y="432"/>
      <point x="569" y="480"/>
      <point x="634" y="507"/>
      <point x="671" y="507" type="qcurve" smooth="yes"/>
      <point x="743" y="507"/>
      <point x="810" y="401"/>
      <point x="810" y="289" type="qcurve" smooth="yes"/>
      <point x="810" y="0" type="line"/>
      <point x="830" y="0" type="line"/>
    </contour>
  </outline>
</glyph>
<glyph name="n" format="2">
  <advance width="565"/>
  <unicode hex="006E"/>
  <outline>
    <contour>
      <point x="487" y="289" type="line" smooth="yes"/>
      <point x="487" y="350"/>
      <point x="469" y="440"/>
      <point x="431" y="498"/>
      <point x="373" y="527"/>
      <point x="333" y="527" type="qcurve" smooth="yes"/>
      <point x="298" y="527"/>
      <point x="230" y="506"/>
      <point x="170" y="469"/>
      <point x="120" y="417"/>
      <point x="104" y="385" type="qcurve"/>
      <point x="104" y="519" type="line"/>
      <point x="84" y="519" type="line"/>
      <point x="84" y="0" type="line"/>
      <point x="104" y="0" type="line"/>
      <point x="104" y="328" type="line"/>
      <point x="115" y="366"/>
      <point x="161" y="432"/>
      <point x="223" y="480"/>
      <point x="297" y="507"/>
      <point x="334" y="507" type="qcurve" smooth="yes"/>
      <point x="404" y="507"/>
      <point x="467" y="403"/>
      <point x="467" y="289" type="qcurve" smooth="yes"/>
      <point x="467" y="0" type="line"/>
      <point x="487" y="0" type="line"/>
    </contour>
  </outline>
</glyph>
<glyph name="o" format="2">
  <advance width="586"/>
  <unicode hex="006F"/>
  <outline>
    <contour>
      <point x="293" y="-10" type="qcurve" smooth="yes"/>
      <point x="344" y="-10"/>
      <point x="434" y="33"/>
      <point x="501" y="106"/>
      <point x="540" y="204"/>
      <point x="540" y="258" type="qcurve" smooth="yes"/>
      <point x="540" y="313"/>
      <point x="501" y="411"/>
      <point x="433" y="484"/>
      <point x="343" y="527"/>
      <point x="293" y="527" type="qcurve" smooth="yes"/>
      <point x="243" y="527"/>
      <point x="153" y="484"/>
      <point x="86" y="411"/>
      <point x="46" y="313"/>
      <point x="46" y="258" type="qcurve" smooth="yes"/>
      <point x="46" y="204"/>
      <point x="85" y="106"/>
      <point x="152" y="33"/>
      <point x="242" y="-10"/>
    </contour>
    <contour>
      <point x="66" y="256" type="qcurve" smooth="yes"/>
      <point x="66" y="307"/>
      <point x="102" y="398"/>
      <point x="164" y="467"/>
      <point x="247" y="507"/>
      <point x="293" y="507" type="qcurve" smooth="yes"/>
      <point x="339" y="507"/>
      <point x="422" y="467"/>
      <point x="484" y="399"/>
      <point x="520" y="309"/>
      <point x="520" y="259" type="qcurve" smooth="yes"/>
      <point x="520" y="208"/>
      <point x="484" y="118"/>
      <point x="421" y="50"/>
      <point x="339" y="10"/>
      <point x="292" y="10" type="qcurve" smooth="yes"/>
      <point x="246" y="10"/>
      <point x="163" y="49"/>
      <point x="102" y="116"/>
      <point x="66" y="206"/>
    </contour>
  </outline>
</glyph>
<glyph name="p" format="2">
  <advance width="603"/>
  <unicode hex="0070"/>
  <outline>
    <contour>
      <point x="316" y="-10" type="qcurve" smooth="yes"/>
      <point x="370" y="-10"/>
      <point x="459" y="34"/>
      <point x="522" y="108"/>
      <point x="557" y="205"/>
      <point x="557" y="258" type="qcurve" smooth="yes"/>
      <point x="557" y="308"/>
      <point x="520" y="404"/>
      <point x="454" y="480"/>
      <point x="362" y="527"/>
      <point x="307" y="527" type="qcurve" smooth="yes"/>
      <point x="247" y="527"/>
      <point x="137" y="461"/>
      <point x="104" y="409" type="qcurve"/>
      <point x="104" y="519" type="line"/>
      <point x="84" y="519" type="line"/>
      <point x="84" y="-213" type="line"/>
      <point x="104" y="-213" type="line"/>
      <point x="104" y="119" type="line"/>
      <point x="121" y="93"/>
      <point x="165" y="46"/>
      <point x="219" y="11"/>
      <point x="282" y="-10"/>
    </contour>
    <contour>
      <point x="316" y="10" type="qcurve" smooth="yes"/>
      <point x="282" y="10"/>
      <point x="217" y="34"/>
      <point x="162" y="74"/>
      <point x="118" y="130"/>
      <point x="104" y="161" type="qcurve"/>
      <point x="104" y="348" type="line"/>
      <point x="106" y="379"/>
      <point x="147" y="437"/>
      <point x="207" y="481"/>
      <point x="277" y="507"/>
      <point x="307" y="507" type="qcurve" smooth="yes"/>
      <point x="355" y="507"/>
      <point x="439" y="466"/>
      <point x="501" y="397"/>
      <point x="537" y="307"/>
      <point x="537" y="258" type="qcurve" smooth="yes"/>
      <point x="537" y="212"/>
      <point x="506" y="123"/>
      <point x="448" y="53"/>
      <point x="367" y="10"/>
    </contour>
  </outline>
</glyph>
<glyph name="r" format="2">
  <advance width="324"/>
  <unicode hex="0072"/>
  <outline>
    <contour>
      <point x="314" y="520" type="line"/>
      <point x="308" y="524"/>
      <point x="289" y="527"/>
      <point x="273" y="527" type="curve" smooth="yes"/>
      <point x="214" y="527"/>
      <point x="146" y="470"/>
      <point x="104" y="385" type="curve"/>
      <point x="104" y="519" type="line"/>
      <point x="84" y="519" type="line"/>
      <point x="84" y="0" type="line"/>
      <point x="104" y="0" type="line"/>
      <point x="104" y="328" type="line"/>
      <point x="117" y="377"/>
      <point x="138" y="417"/>
      <point x="170" y="453" type="curve" smooth="yes"/>
      <point x="202" y="490"/>
      <point x="239" y="510"/>
      <point x="266" y="510" type="curve" smooth="yes"/>
      <point x="277" y="510"/>
      <point x="290" y="508"/>
      <point x="306" y="502" type="curve"/>
    </contour>
  </outline>
</glyph>
<glyph name="s" format="2">
  <advance width="471"/>
  <unicode hex="0073"/>
  <outline>
    <contour>
      <point x="235" y="-10" type="qcurve" smooth="yes"/>
      <point x="279" y="-10"/>
      <point x="350" y="11"/>
      <point x="400" y="50"/>
      <point x="428" y="105"/>
      <point x="428" y="139" type="qcurve" smooth="yes"/>
      <point x="428" y="173"/>
      <point x="400" y="216"/>
      <point x="349" y="246"/>
      <point x="275" y="266"/>
      <point x="228" y="277" type="qcurve" smooth="yes"/>
      <point x="192" y="286"/>
      <point x="139" y="302"/>
      <point x="104" y="324"/>
      <point x="88" y="357"/>
      <point x="88" y="383" type="qcurve" smooth="yes"/>
      <point x="88" y="416"/>
      <point x="114" y="463"/>
      <point x="157" y="493"/>
      <point x="215" y="507"/>
      <point x="247" y="507" type="qcurve" smooth="yes"/>
      <point x="297" y="507"/>
      <point x="383" y="475"/>
      <point x="402" y="444" type="qcurve"/>
      <point x="420" y="452" type="line"/>
      <point x="403" y="484"/>
      <point x="314" y="527"/>
      <point x="251" y="527" type="qcurve" smooth="yes"/>
      <point x="214" y="527"/>
      <point x="148" y="510"/>
      <point x="98" y="474"/>
      <point x="68" y="419"/>
      <point x="68" y="380" type="qcurve" smooth="yes"/>
      <point x="68" y="349"/>
      <point x="88" y="310"/>
      <point x="128" y="284"/>
      <point x="187" y="267"/>
      <point x="227" y="257" type="qcurve" smooth="yes"/>
      <point x="271" y="247"/>
      <point x="338" y="228"/>
      <point x="384" y="201"/>
      <point x="408" y="164"/>
      <point x="408" y="136" type="qcurve" smooth="yes"/>
      <point x="408" y="76"/>
      <point x="312" y="10"/>
      <point x="235" y="10" type="qcurve" smooth="yes"/>
      <point x="179" y="10"/>
      <point x="92" y="48"/>
      <point x="52" y="87" type="qcurve"/>
      <point x="37" y="74" type="line"/>
      <point x="76" y="31"/>
      <point x="175" y="-10"/>
    </contour>
  </outline>
</glyph>
<glyph name="t" format="2">
  <advance width="295"/>
  <unicode hex="0074"/>
  <outline>
    <contour>
      <point x="275" y="40" type="line"/>
      <point x="274" y="39"/>
      <point x="261" y="31"/>
      <point x="238" y="22"/>
      <point x="208" y="15"/>
      <point x="191" y="15" type="qcurve" smooth="yes"/>
      <point x="165" y="15"/>
      <point x="123" y="46"/>
      <point x="121" y="75" type="qcurve"/>
      <point x="121" y="499" type="line"/>
      <point x="246" y="499" type="line"/>
      <point x="246" y="519" type="line"/>
      <point x="121" y="519" type="line"/>
      <point x="121" y="700" type="line"/>
      <point x="101" y="700" type="line"/>
      <point x="101" y="519" type="line"/>
      <point x="26" y="519" type="line"/>
      <point x="26" y="499" type="line"/>
      <point x="101" y="499" type="line"/>
      <point x="101" y="75" type="line" smooth="yes"/>
      <point x="101" y="57"/>
      <point x="116" y="28"/>
      <point x="140" y="7"/>
      <point x="173" y="-5"/>
      <point x="191" y="-5" type="qcurve" smooth="yes"/>
      <point x="212" y="-5"/>
      <point x="246" y="4"/>
      <point x="271" y="14"/>
      <point x="286" y="24"/>
      <point x="286" y="24" type="qcurve"/>
    </contour>
  </outline>
</glyph>
<glyph name="braceleft" format="2">
  <advance width="229"/>
  <unicode hex="007B"/>
  <outline>
    <contour>
      <point x="173" y="720" type="line"/>
      <point x="173" y="740" type="line"/>
      <point x="121" y="740" type="line" smooth="yes"/>
      <point x="117" y="740"/>
      <point x="98" y="730"/>
      <point x="98" y="710" type="qcurve" smooth="yes"/>
      <point x="98" y="416" type="line" smooth="yes"/>
      <point x="98" y="413"/>
      <point x="97" y="398"/>
      <point x="91" y="383"/>
      <point x="79" y="371"/>
      <point x="68" y="371" type="qcurve"/>
      <point x="68" y="351" type="line"/>
      <point x="86" y="349"/>
      <point x="98" y="319"/>
      <point x="98" y="304" type="qcurve" smooth="yes"/>
      <point x="98" y="-1" type="line" smooth="yes"/>
      <point x="98" y="-18"/>
      <point x="113" y="-31"/>
      <point x="121" y="-31" type="qcurve" smooth="yes"/>
      <point x="173" y="-31" type="line"/>
      <point x="173" y="-11" type="line"/>
      <point x="118" y="-11" type="line"/>
      <point x="118" y="304" type="line" smooth="yes"/>
      <point x="118" y="309"/>
      <point x="113" y="346"/>
      <point x="97" y="360" type="qcurve"/>
      <point x="113" y="374"/>
      <point x="118" y="411"/>
      <point x="118" y="416" type="qcurve" smooth="yes"/>
      <point x="118" y="720" type="line"/>
    </contour>
  </outline>
</glyph>
<glyph name="braceright" format="2">
  <advance width="229"/>
  <unicode hex="007D"/>
  <outline>
    <contour>
      <point x="111" y="720" type="line"/>
      <point x="111" y="416" type="line" smooth="yes"/>
      <point x="111" y="411"/>
      <point x="116" y="374"/>
      <point x="132" y="360" type="qcurve"/>
      <point x="116" y="346"/>
      <point x="111" y="309"/>
      <point x="111" y="304" type="qcurve" smooth="yes"/>
      <point x="111" y="-11" type="line"/>
      <point x="56" y="-11" type="line"/>
      <point x="56" y="-31" type="line"/>
      <point x="108" y="-31" type="line" smooth="yes"/>
      <point x="116" y="-31"/>
      <point x="131" y="-18"/>
      <point x="131" y="-1" type="qcurve" smooth="yes"/>
      <point x="131" y="304" type="line" smooth="yes"/>
      <point x="131" y="319"/>
      <point x="143" y="349"/>
      <point x="161" y="351" type="qcurve"/>
      <point x="161" y="371" type="line"/>
      <point x="151" y="371"/>
      <point x="139" y="383"/>
      <point x="133" y="398"/>
      <point x="131" y="413"/>
      <point x="131" y="416" type="qcurve" smooth="yes"/>
      <point x="131" y="710" type="line" smooth="yes"/>
      <point x="131" y="730"/>
      <point x="112" y="740"/>
      <point x="108" y="740" type="qcurve" smooth="yes"/>
      <point x="56" y="740" type="line"/>
      <point x="56" y="720" type="line"/>
    </contour>
  </outline>
</glyph>
<glyph name="asciitilde" format="2">
  <advance width="462"/>
  <unicode hex="007E"/>
  <outline>
    <contour>
      <point x="70" y="251" type="qcurve"/>
      <point x="90" y="251" type="line"/>
      <point x="90" y="252"/>
      <point x="98" y="271"/>
      <point x="115" y="294"/>
      <point x="139" y="312"/>
      <point x="154" y="312" type="qcurve" smooth="yes"/>
      <point x="170" y="312"/>
      <point x="203" y="293"/>
      <point x="239" y="270"/>
      <point x="279" y="251"/>
      <point x="303" y="251" type="qcurve" smooth="yes"/>
      <point x="329" y="251"/>
      <point x="363" y="274"/>
      <point x="384" y="301"/>
      <point x="393" y="324"/>
      <point x="393" y="324" type="qcurve"/>
      <point x="373" y="325" type="line"/>
      <point x="373" y="323"/>
      <point x="365" y="306"/>
      <point x="347" y="286"/>
      <point x="321" y="271"/>
      <point x="303" y="271" type="qcurve" smooth="yes"/>
      <point x="283" y="271"/>
      <point x="247" y="290"/>
      <point x="211" y="313"/>
      <point x="174" y="332"/>
      <point x="154" y="332" type="qcurve" smooth="yes"/>
      <point x="132" y="332"/>
      <point x="100" y="308"/>
      <point x="79" y="278"/>
      <point x="70" y="253"/>
    </contour>
  </outline>
</glyph>
<glyph name="exclamdown" format="2">
  <advance width="228"/>
  <unicode hex="00A1"/>
  <outline>
    <contour>
      <point x="148" y="490" type="qcurve" smooth="yes"/>
      <point x="148" y="497"/>
      <point x="143" y="510"/>
      <point x="134" y="519"/>
      <point x="121" y="524"/>
      <point x="114" y="524" type="qcurve" smooth="yes"/>
      <point x="107" y="524"/>
      <point x="94" y="519"/>
      <point x="85" y="510"/>
      <point x="80" y="497"/>
      <point x="80" y="490" type="qcurve" smooth="yes"/>
      <point x="80" y="483"/>
      <point x="85" y="471"/>
      <point x="94" y="462"/>
      <point x="107" y="457"/>
      <point x="114" y="457" type="qcurve" smooth="yes"/>
      <point x="121" y="457"/>
      <point x="134" y="462"/>
      <point x="143" y="471"/>
      <point x="148" y="483"/>
    </contour>
    <contour>
      <point x="104" y="319" type="line"/>
      <point x="104" y="119" type="line"/>
      <point x="104" y="-198" type="line"/>
      <point x="124" y="-198" type="line"/>
      <point x="124" y="119" type="line"/>
      <point x="124" y="319" type="line"/>
    </contour>
  </outline>
</glyph>
<glyph name="sterling" format="2">
  <advance width="467"/>
  <unicode hex="00A3"/>
  <outline>
    <contour>
      <point x="48" y="346" type="line"/>
      <point x="354" y="346" type="line"/>
      <point x="354" y="366" type="line"/>
      <point x="48" y="366" type="line"/>
    </contour>
    <contour>
      <point x="66" y="-7" type="line"/>
      <point x="94" y="0"/>
      <point x="131" y="5"/>
      <point x="160" y="5" type="curve" smooth="yes"/>
      <point x="191" y="5"/>
      <point x="214" y="0"/>
      <point x="238" y="-5" type="curve" smooth="yes"/>
      <point x="261" y="-10"/>
      <point x="284" y="-15"/>
      <point x="313" y="-15" type="curve" smooth="yes"/>
      <point x="348" y="-15"/>
      <point x="382" y="-8"/>
      <point x="419" y="7" type="curve"/>
      <point x="413" y="26" type="line"/>
      <point x="372" y="11"/>
      <point x="342" y="5"/>
      <point x="314" y="5" type="curve" smooth="yes"/>
      <point x="289" y="5"/>
      <point x="267" y="10"/>
      <point x="244" y="15" type="curve" smooth="yes"/>
      <point x="221" y="20"/>
      <point x="197" y="25"/>
      <point x="166" y="25" type="curve" smooth="yes"/>
      <point x="142" y="25"/>
      <point x="118" y="22"/>
      <point x="95" y="18" type="curve"/>
      <point x="139" y="66"/>
      <point x="168" y="104"/>
      <point x="187" y="139" type="curve" smooth="yes"/>
      <point x="206" y="174"/>
      <point x="213" y="206"/>
      <point x="213" y="242" type="curve" smooth="yes"/>
      <point x="213" y="311"/>
      <point x="185" y="362"/>
      <point x="157" y="410" type="curve" smooth="yes"/>
      <point x="129" y="457"/>
      <point x="101" y="500"/>
      <point x="101" y="552" type="curve" smooth="yes"/>
      <point x="101" y="592"/>
      <point x="117" y="628"/>
      <point x="142" y="654" type="curve" smooth="yes"/>
      <point x="167" y="680"/>
      <point x="203" y="695"/>
      <point x="240" y="695" type="curve" smooth="yes"/>
      <point x="300" y="695"/>
      <point x="355" y="658"/>
      <point x="387" y="598" type="curve"/>
      <point x="404" y="610" type="line"/>
      <point x="369" y="674"/>
      <point x="309" y="715"/>
      <point x="242" y="715" type="curve" smooth="yes"/>
      <point x="198" y="715"/>
      <point x="156" y="697"/>
      <point x="127" y="667" type="curve" smooth="yes"/>
      <point x="98" y="637"/>
      <point x="79" y="595"/>
      <point x="79" y="550" type="curve" smooth="yes"/>
      <point x="79" y="494"/>
      <point x="107" y="451"/>
      <point x="136" y="405" type="curve" smooth="yes"/>
      <point x="164" y="359"/>
      <point x="192" y="309"/>
      <point x="192" y="241" type="curve" smooth="yes"/>
      <point x="192" y="208"/>
      <point x="185" y="178"/>
      <point x="165" y="143" type="curve" smooth="yes"/>
      <point x="144" y="108"/>
      <point x="111" y="67"/>
      <point x="56" y="10" type="curve"/>
    </contour>
  </outline>
</glyph>
<glyph name="currency" format="2">
  <advance width="533"/>
  <unicode hex="00A4"/>
  <outline>
    <contour>
      <point x="79" y="534" type="line"/>
      <point x="64" y="520" type="line"/>
      <point x="132" y="452" type="line"/>
      <point x="112" y="428"/>
      <point x="90" y="368"/>
      <point x="90" y="335" type="qcurve" smooth="yes"/>
      <point x="90" y="301"/>
      <point x="113" y="241"/>
      <point x="134" y="217" type="qcurve"/>
      <point x="64" y="148" type="line"/>
      <point x="79" y="134" type="line"/>
      <point x="148" y="202" type="line"/>
      <point x="171" y="181"/>
      <point x="230" y="157"/>
      <point x="265" y="157" type="qcurve" smooth="yes"/>
      <point x="300" y="157"/>
      <point x="361" y="182"/>
      <point x="385" y="205" type="qcurve"/>
      <point x="457" y="134" type="line"/>
      <point x="472" y="148" type="line"/>
      <point x="399" y="219" type="line"/>
      <point x="419" y="243"/>
      <point x="442" y="303"/>
      <point x="442" y="335" type="qcurve" smooth="yes"/>
      <point x="442" y="367"/>
      <point x="420" y="426"/>
      <point x="401" y="450" type="qcurve"/>
      <point x="472" y="520" type="line"/>
      <point x="457" y="534" type="line"/>
      <point x="387" y="465" type="line"/>
      <point x="364" y="488"/>
      <point x="301" y="515"/>
      <point x="265" y="515" type="qcurve" smooth="yes"/>
      <point x="230" y="515"/>
      <point x="169" y="490"/>
      <point x="146" y="467" type="qcurve"/>
    </contour>
    <contour>
      <point x="111" y="334" type="qcurve" smooth="yes"/>
      <point x="111" y="368"/>
      <point x="136" y="427"/>
      <point x="178" y="471"/>
      <point x="234" y="496"/>
      <point x="265" y="496" type="qcurve" smooth="yes"/>
      <point x="297" y="496"/>
      <point x="354" y="471"/>
      <point x="396" y="428"/>
      <point x="421" y="369"/>
      <point x="421" y="336" type="qcurve" smooth="yes"/>
      <point x="421" y="303"/>
      <point x="396" y="245"/>
      <point x="354" y="201"/>
      <point x="297" y="175"/>
      <point x="265" y="175" type="qcurve" smooth="yes"/>
      <point x="234" y="175"/>
      <point x="178" y="200"/>
      <point x="136" y="243"/>
      <point x="111" y="301"/>
    </contour>
  </outline>
</glyph>
<glyph name="copyright" format="2">
  <advance width="824"/>
  <unicode hex="00A9"/>
  <outline>
    <contour>
      <point x="412" y="-7" type="qcurve" smooth="yes"/>
      <point x="490" y="-7"/>
      <point x="622" y="48"/>
      <point x="718" y="145"/>
      <point x="773" y="277"/>
      <point x="773" y="355" type="qcurve" smooth="yes"/>
      <point x="773" y="432"/>
      <point x="718" y="564"/>
      <point x="622" y="660"/>
      <point x="490" y="715"/>
      <point x="412" y="715" type="qcurve" smooth="yes"/>
      <point x="334" y="715"/>
      <point x="202" y="660"/>
      <point x="106" y="564"/>
      <point x="51" y="432"/>
      <point x="51" y="355" type="qcurve" smooth="yes"/>
      <point x="51" y="277"/>
      <point x="106" y="145"/>
      <point x="202" y="48"/>
      <point x="334" y="-7"/>
    </contour>
    <contour>
      <point x="413" y="13" type="qcurve" smooth="yes"/>
      <point x="339" y="13"/>
      <point x="214" y="65"/>
      <point x="123" y="156"/>
      <point x="72" y="281"/>
      <point x="72" y="354" type="qcurve" smooth="yes"/>
      <point x="72" y="428"/>
      <point x="123" y="552"/>
      <point x="215" y="644"/>
      <point x="340" y="695"/>
      <point x="413" y="695" type="qcurve" smooth="yes"/>
      <point x="486" y="695"/>
      <point x="610" y="644"/>
      <point x="701" y="552"/>
      <point x="752" y="426"/>
      <point x="752" y="352" type="qcurve" smooth="yes"/>
      <point x="752" y="277"/>
      <point x="700" y="152"/>
      <point x="608" y="62"/>
      <point x="485" y="13"/>
    </contour>
    <contour>
      <point x="419" y="127" type="qcurve" smooth="yes"/>
      <point x="454" y="127"/>
      <point x="514" y="150"/>
      <point x="559" y="183"/>
      <point x="587" y="220"/>
      <point x="591" y="233" type="qcurve"/>
      <point x="572" y="238" type="line"/>
      <point x="563" y="217"/>
      <point x="528" y="183"/>
      <point x="485" y="160"/>
      <point x="437" y="147"/>
      <point x="415" y="147" type="qcurve" smooth="yes"/>
      <point x="383" y="147"/>
      <point x="314" y="175"/>
      <point x="257" y="228"/>
      <point x="220" y="305"/>
      <point x="220" y="355" type="qcurve" smooth="yes"/>
      <point x="220" y="391"/>
      <point x="243" y="466"/>
      <point x="289" y="527"/>
      <point x="362" y="566"/>
      <point x="411" y="566" type="qcurve" smooth="yes"/>
      <point x="428" y="566"/>
      <point x="470" y="560"/>
      <point x="513" y="541"/>
      <point x="550" y="507"/>
      <point x="562" y="480" type="qcurve"/>
      <point x="581" y="487" type="line"/>
      <point x="561" y="538"/>
      <point x="467" y="586"/>
      <point x="411" y="586" type="qcurve" smooth="yes"/>
      <point x="356" y="586"/>
      <point x="276" y="544"/>
      <point x="225" y="477"/>
      <point x="200" y="395"/>
      <point x="200" y="355" type="qcurve" smooth="yes"/>
      <point x="200" y="301"/>
      <point x="240" y="216"/>
      <point x="303" y="157"/>
      <point x="381" y="127"/>
    </contour>
  </outline>
</glyph>
<glyph name="ordfeminine" format="2">
  <advance width="425"/>
  <unicode hex="00AA"/>
  <outline>
    <contour>
      <point x="170" y="351" type="qcurve" smooth="yes"/>
      <point x="215" y="351"/>
      <point x="294" y="385"/>
      <point x="319" y="416" type="qcurve"/>
      <point x="319" y="356" type="line"/>
      <point x="347" y="356" type="line"/>
      <point x="347" y="573" type="line" smooth="yes"/>
      <point x="347" y="637"/>
      <point x="272" y="709"/>
      <point x="207" y="709" type="qcurve" smooth="yes"/>
      <point x="176" y="709"/>
      <point x="111" y="686"/>
      <point x="76" y="663" type="qcurve"/>
      <point x="89" y="643" type="line"/>
      <point x="120" y="663"/>
      <point x="179" y="684"/>
      <point x="205" y="684" type="qcurve" smooth="yes"/>
      <point x="256" y="684"/>
      <point x="316" y="625"/>
      <point x="316" y="576" type="qcurve" smooth="yes"/>
      <point x="316" y="541" type="line"/>
      <point x="292" y="550"/>
      <point x="231" y="560"/>
      <point x="201" y="560" type="qcurve" smooth="yes"/>
      <point x="135" y="560"/>
      <point x="52" y="503"/>
      <point x="52" y="458" type="qcurve" smooth="yes"/>
      <point x="52" y="436"/>
      <point x="70" y="396"/>
      <point x="102" y="368"/>
      <point x="145" y="351"/>
    </contour>
    <contour>
      <point x="176" y="377" type="qcurve" smooth="yes"/>
      <point x="136" y="377"/>
      <point x="82" y="424"/>
      <point x="82" y="459" type="qcurve" smooth="yes"/>
      <point x="82" y="495"/>
      <point x="150" y="537"/>
      <point x="205" y="537" type="qcurve" smooth="yes"/>
      <point x="234" y="537"/>
      <point x="290" y="529"/>
      <point x="316" y="518" type="qcurve"/>
      <point x="316" y="457" type="line" smooth="yes"/>
      <point x="316" y="451"/>
      <point x="310" y="437"/>
      <point x="305" y="430" type="qcurve" smooth="yes"/>
      <point x="287" y="406"/>
      <point x="218" y="377"/>
    </contour>
  </outline>
</glyph>
<glyph name="degree" format="2">
  <advance width="252"/>
  <unicode hex="00B0"/>
  <outline>
    <contour>
      <point x="57" y="655" type="qcurve" smooth="yes"/>
      <point x="57" y="626"/>
      <point x="97" y="586"/>
      <point x="126" y="586" type="qcurve" smooth="yes"/>
      <point x="155" y="586"/>
      <point x="195" y="626"/>
      <point x="195" y="655" type="qcurve" smooth="yes"/>
      <point x="195" y="684"/>
      <point x="155" y="724"/>
      <point x="126" y="724" type="qcurve" smooth="yes"/>
      <point x="97" y="724"/>
      <point x="57" y="684"/>
    </contour>
    <contour>
      <point x="91" y="690" type="qcurve" smooth="yes"/>
      <point x="98" y="697"/>
      <point x="116" y="704"/>
      <point x="126" y="704" type="qcurve" smooth="yes"/>
      <point x="136" y="704"/>
      <point x="154" y="697"/>
      <point x="161" y="690" type="qcurve"/>
      <point x="167" y="683"/>
      <point x="175" y="666"/>
      <point x="175" y="655" type="qcurve" smooth="yes"/>
      <point x="175" y="645"/>
      <point x="167" y="627"/>
      <point x="161" y="621" type="qcurve" smooth="yes"/>
      <point x="154" y="614"/>
      <point x="136" y="606"/>
      <point x="126" y="606" type="qcurve" smooth="yes"/>
      <point x="115" y="606"/>
      <point x="98" y="614"/>
      <point x="91" y="621" type="qcurve"/>
      <point x="84" y="627"/>
      <point x="77" y="645"/>
      <point x="77" y="655" type="qcurve" smooth="yes"/>
      <point x="77" y="666"/>
      <point x="84" y="683"/>
    </contour>
  </outline>
</glyph>
<glyph name="threesuperior" format="2">
  <advance width="380"/>
  <unicode hex="00B3"/>
  <outline>
    <contour>
      <point x="190" y="418" type="qcurve" smooth="yes"/>
      <point x="221" y="418"/>
      <point x="274" y="433"/>
      <point x="314" y="460"/>
      <point x="337" y="498"/>
      <point x="337" y="520" type="qcurve" smooth="yes"/>
      <point x="337" y="557"/>
      <point x="282" y="610"/>
      <point x="236" y="618" type="qcurve"/>
      <point x="281" y="628"/>
      <point x="325" y="671"/>
      <point x="325" y="705" type="qcurve" smooth="yes"/>
      <point x="325" y="728"/>
      <point x="303" y="766"/>
      <point x="265" y="795"/>
      <point x="213" y="811"/>
      <point x="182" y="811" type="qcurve" smooth="yes"/>
      <point x="159" y="811"/>
      <point x="117" y="802"/>
      <point x="82" y="784"/>
      <point x="56" y="760"/>
      <point x="48" y="745" type="qcurve"/>
      <point x="63" y="733" type="line"/>
      <point x="76" y="759"/>
      <point x="140" y="793"/>
      <point x="182" y="793" type="qcurve" smooth="yes"/>
      <point x="208" y="793"/>
      <point x="253" y="780"/>
      <point x="286" y="756"/>
      <point x="304" y="724"/>
      <point x="304" y="704" type="qcurve" smooth="yes"/>
      <point x="304" y="666"/>
      <point x="234" y="627"/>
      <point x="168" y="627" type="qcurve" smooth="yes"/>
      <point x="146" y="627" type="line"/>
      <point x="146" y="609" type="line"/>
      <point x="168" y="609" type="line" smooth="yes"/>
      <point x="235" y="609"/>
      <point x="317" y="562"/>
      <point x="317" y="522" type="qcurve" smooth="yes"/>
      <point x="317" y="485"/>
      <point x="244" y="437"/>
      <point x="190" y="437" type="qcurve" smooth="yes"/>
      <point x="163" y="437"/>
      <point x="115" y="451"/>
      <point x="79" y="474"/>
      <point x="58" y="504"/>
      <point x="57" y="521" type="qcurve"/>
      <point x="41" y="514" type="line"/>
      <point x="44" y="472"/>
      <point x="127" y="418"/>
    </contour>
  </outline>
</glyph>
<glyph name="uni00B5" format="2">
  <advance width="602"/>
  <unicode hex="00B5"/>
  <outline>
    <contour>
      <point x="91" y="-212" type="line"/>
      <point x="111" y="-212" type="line"/>
      <point x="111" y="94" type="line"/>
      <point x="120" y="68"/>
      <point x="148" y="29"/>
      <point x="185" y="3"/>
      <point x="231" y="-10"/>
      <point x="258" y="-10" type="qcurve" smooth="yes"/>
      <point x="293" y="-10"/>
      <point x="360" y="10"/>
      <point x="418" y="47"/>
      <point x="467" y="99"/>
      <point x="484" y="132" type="qcurve"/>
      <point x="488" y="0" type="line"/>
      <point x="504" y="0" type="line"/>
      <point x="504" y="519" type="line"/>
      <point x="484" y="519" type="line"/>
      <point x="484" y="189" type="line"/>
      <point x="472" y="150"/>
      <point x="427" y="84"/>
      <point x="367" y="37"/>
      <point x="296" y="10"/>
      <point x="258" y="10" type="qcurve" smooth="yes"/>
      <point x="183" y="10"/>
      <point x="111" y="117"/>
      <point x="111" y="228" type="qcurve" smooth="yes"/>
      <point x="111" y="519" type="line"/>
      <point x="91" y="519" type="line"/>
    </contour>
  </outline>
</glyph>
<glyph name="paragraph" format="2">
  <advance width="565"/>
  <unicode hex="00B6"/>
  <outline>
    <contour>
      <point x="32" y="479" type="qcurve" smooth="yes"/>
      <point x="32" y="425"/>
      <point x="71" y="340"/>
      <point x="144" y="281"/>
      <point x="248" y="249"/>
      <point x="314" y="248" type="qcurve"/>
      <point x="314" y="-80" type="line"/>
      <point x="334" y="-80" type="line"/>
      <point x="334" y="248" type="line"/>
      <point x="425" y="248" type="line"/>
      <point x="425" y="-80" type="line"/>
      <point x="445" y="-80" type="line"/>
      <point x="445" y="690" type="line"/>
      <point x="515" y="690" type="line"/>
      <point x="515" y="710" type="line"/>
      <point x="314" y="710" type="line" smooth="yes"/>
      <point x="180" y="710"/>
      <point x="32" y="587"/>
    </contour>
    <contour>
      <point x="52" y="479" type="qcurve" smooth="yes"/>
      <point x="52" y="579"/>
      <point x="186" y="690"/>
      <point x="314" y="690" type="qcurve"/>
      <point x="314" y="268" type="line"/>
      <point x="261" y="270"/>
      <point x="166" y="295"/>
      <point x="94" y="346"/>
      <point x="52" y="424"/>
    </contour>
    <contour>
      <point x="425" y="268" type="line"/>
      <point x="334" y="268" type="line"/>
      <point x="334" y="690" type="line"/>
      <point x="425" y="690" type="line"/>
    </contour>
  </outline>
</glyph>
<glyph name="onesuperior" format="2">
  <advance width="252"/>
  <unicode hex="00B9"/>
  <outline>
    <contour>
      <point x="152" y="441" type="line"/>
      <point x="152" y="811" type="line"/>
      <point x="132" y="811" type="line"/>
      <point x="131" y="810"/>
      <point x="113" y="793"/>
      <point x="85" y="773"/>
      <point x="51" y="757"/>
      <point x="35" y="757" type="qcurve"/>
      <point x="35" y="738" type="line"/>
      <point x="47" y="738"/>
      <point x="77" y="748"/>
      <point x="104" y="762"/>
      <point x="127" y="779"/>
      <point x="132" y="785" type="qcurve"/>
      <point x="132" y="441" type="line"/>
      <point x="49" y="441" type="line"/>
      <point x="49" y="422" type="line"/>
      <point x="230" y="422" type="line"/>
      <point x="230" y="441" type="line"/>
    </contour>
  </outline>
</glyph>
<glyph name="ordmasculine" format="2">
  <advance width="450"/>
  <unicode hex="00BA"/>
  <outline>
    <contour>
      <point x="224" y="351" type="qcurve" smooth="yes"/>
      <point x="262" y="351"/>
      <point x="326" y="380"/>
      <point x="374" y="429"/>
      <point x="401" y="493"/>
      <point x="401" y="529" type="qcurve" smooth="yes"/>
      <point x="401" y="566"/>
      <point x="374" y="631"/>
      <point x="326" y="680"/>
      <point x="261" y="709"/>
      <point x="224" y="709" type="qcurve" smooth="yes"/>
      <point x="187" y="709"/>
      <point x="123" y="680"/>
      <point x="76" y="631"/>
      <point x="49" y="566"/>
      <point x="49" y="529" type="qcurve" smooth="yes"/>
      <point x="49" y="493"/>
      <point x="76" y="429"/>
      <point x="123" y="380"/>
      <point x="187" y="351"/>
    </contour>
    <contour>
      <point x="71" y="528" type="qcurve" smooth="yes"/>
      <point x="71" y="561"/>
      <point x="95" y="620"/>
      <point x="137" y="664"/>
      <point x="193" y="689"/>
      <point x="224" y="689" type="qcurve" smooth="yes"/>
      <point x="256" y="689"/>
      <point x="312" y="664"/>
      <point x="354" y="621"/>
      <point x="379" y="563"/>
      <point x="379" y="530" type="qcurve" smooth="yes"/>
      <point x="379" y="497"/>
      <point x="354" y="439"/>
      <point x="312" y="396"/>
      <point x="256" y="370"/>
      <point x="224" y="370" type="qcurve" smooth="yes"/>
      <point x="193" y="370"/>
      <point x="137" y="395"/>
      <point x="95" y="438"/>
      <point x="71" y="495"/>
    </contour>
  </outline>
</glyph>
<glyph name="onehalf" format="2">
  <advance width="741"/>
  <unicode hex="00BD"/>
  <outline>
    <contour>
      <point x="152" y="361" type="line"/>
      <point x="152" y="731" type="line"/>
      <point x="132" y="731" type="line"/>
      <point x="131" y="730"/>
      <point x="113" y="713"/>
      <point x="85" y="693"/>
      <point x="51" y="677"/>
      <point x="35" y="677" type="qcurve"/>
      <point x="35" y="658" type="line"/>
      <point x="47" y="658"/>
      <point x="77" y="668"/>
      <point x="104" y="682"/>
      <point x="127" y="699"/>
      <point x="132" y="705" type="qcurve"/>
      <point x="132" y="361" type="line"/>
      <point x="49" y="361" type="line"/>
      <point x="49" y="342" type="line"/>
      <point x="230" y="342" type="line"/>
      <point x="230" y="361" type="line"/>
    </contour>
    <contour>
      <point x="41" y="-1" type="line"/>
      <point x="318" y="347" type="line"/>
      <point x="599" y="699" type="line"/>
      <point x="583" y="711" type="line"/>
      <point x="304" y="361" type="line"/>
      <point x="25" y="11" type="line"/>
    </contour>
    <contour>
      <point x="697" y="0" type="line"/>
      <point x="697" y="19" type="line"/>
      <point x="437" y="19" type="line"/>
      <point x="437" y="34"/>
      <point x="443" y="72"/>
      <point x="465" y="110"/>
      <point x="511" y="147"/>
      <point x="550" y="160" type="qcurve" smooth="yes"/>
      <point x="571" y="167"/>
      <point x="622" y="184"/>
      <point x="666" y="210"/>
      <point x="696" y="249"/>
      <point x="696" y="279" type="qcurve" smooth="yes"/>
      <point x="696" y="300"/>
      <point x="680" y="340"/>
      <point x="647" y="370"/>
      <point x="598" y="388"/>
      <point x="564" y="388" type="qcurve" smooth="yes"/>
      <point x="528" y="388"/>
      <point x="473" y="368"/>
      <point x="437" y="344"/>
      <point x="418" y="323"/>
      <point x="417" y="321" type="qcurve"/>
      <point x="432" y="309" type="line"/>
      <point x="438" y="317"/>
      <point x="460" y="338"/>
      <point x="492" y="356"/>
      <point x="535" y="369"/>
      <point x="562" y="369" type="qcurve" smooth="yes"/>
      <point x="620" y="369"/>
      <point x="675" y="315"/>
      <point x="675" y="280" type="qcurve" smooth="yes"/>
      <point x="675" y="254"/>
      <point x="648" y="220"/>
      <point x="607" y="197"/>
      <point x="558" y="181"/>
      <point x="535" y="173" type="qcurve" smooth="yes"/>
      <point x="507" y="163"/>
      <point x="461" y="134"/>
      <point x="429" y="93"/>
      <point x="412" y="37"/>
      <point x="412" y="0" type="qcurve"/>
    </contour>
  </outline>
</glyph>
<glyph name="questiondown" format="2">
  <advance width="468"/>
  <unicode hex="00BF"/>
  <outline>
    <contour>
      <point x="212" y="353" type="curve" smooth="yes"/>
      <point x="192" y="353"/>
      <point x="168" y="348"/>
      <point x="153" y="341" type="curve"/>
      <point x="162" y="322" type="line"/>
      <point x="178" y="329"/>
      <point x="196" y="333"/>
      <point x="212" y="333" type="curve" smooth="yes"/>
      <point x="235" y="333"/>
      <point x="258" y="326"/>
      <point x="276" y="313" type="curve" smooth="yes"/>
      <point x="293" y="301"/>
      <point x="302" y="284"/>
      <point x="302" y="264" type="curve" smooth="yes"/>
      <point x="302" y="239"/>
      <point x="287" y="219"/>
      <point x="253" y="197" type="curve" smooth="yes"/>
      <point x="234" y="185"/>
      <point x="213" y="173"/>
      <point x="183" y="157" type="curve" smooth="yes"/>
      <point x="157" y="143"/>
      <point x="130" y="130"/>
      <point x="106" y="116" type="curve" smooth="yes"/>
      <point x="63" y="91"/>
      <point x="37" y="42"/>
      <point x="37" y="-12" type="curve" smooth="yes"/>
      <point x="37" y="-123"/>
      <point x="114" y="-200"/>
      <point x="225" y="-200" type="curve" smooth="yes"/>
      <point x="315" y="-200"/>
      <point x="400" y="-148"/>
      <point x="434" y="-70" type="curve"/>
      <point x="416" y="-62" type="line"/>
      <point x="383" y="-133"/>
      <point x="306" y="-180"/>
      <point x="224" y="-180" type="curve" smooth="yes"/>
      <point x="124" y="-180"/>
      <point x="57" y="-114"/>
      <point x="57" y="-15" type="curve" smooth="yes"/>
      <point x="57" y="36"/>
      <point x="78" y="76"/>
      <point x="117" y="100" type="curve" smooth="yes"/>
      <point x="144" y="117"/>
      <point x="165" y="129"/>
      <point x="191" y="142" type="curve" smooth="yes"/>
      <point x="217" y="155"/>
      <point x="241" y="168"/>
      <point x="261" y="180" type="curve" smooth="yes"/>
      <point x="302" y="204"/>
      <point x="321" y="230"/>
      <point x="321" y="264" type="curve" smooth="yes"/>
      <point x="321" y="289"/>
      <point x="307" y="314"/>
      <point x="286" y="330" type="curve" smooth="yes"/>
      <point x="266" y="345"/>
      <point x="240" y="353"/>
    </contour>
    <contour>
      <point x="272" y="493" type="curve" smooth="yes"/>
      <point x="272" y="513"/>
      <point x="258" y="527"/>
      <point x="238" y="527" type="curve" smooth="yes"/>
      <point x="218" y="527"/>
      <point x="204" y="513"/>
      <point x="204" y="493" type="curve" smooth="yes"/>
      <point x="204" y="474"/>
      <point x="219" y="460"/>
      <point x="238" y="460" type="curve" smooth="yes"/>
      <point x="257" y="460"/>
      <point x="272" y="474"/>
    </contour>
  </outline>
</glyph>
<glyph name="Idieresis" format="2">
  <advance width="218"/>
  <unicode hex="00CF"/>
  <outline>
    <contour>
      <point x="119" y="0" type="line"/>
      <point x="119" y="710" type="line"/>
      <point x="99" y="710" type="line"/>
      <point x="99" y="0" type="line"/>
    </contour>
    <contour>
      <point x="18" y="880" type="qcurve" smooth="yes"/>
      <point x="18" y="866"/>
      <point x="38" y="846"/>
      <point x="52" y="846" type="qcurve" smooth="yes"/>
      <point x="66" y="846"/>
      <point x="86" y="866"/>
      <point x="86" y="880" type="qcurve" smooth="yes"/>
      <point x="86" y="894"/>
      <point x="66" y="913"/>
      <point x="52" y="913" type="qcurve" smooth="yes"/>
      <point x="38" y="913"/>
      <point x="18" y="894"/>
    </contour>
    <contour>
      <point x="132" y="880" type="qcurve" smooth="yes"/>
      <point x="132" y="866"/>
      <point x="152" y="846"/>
      <point x="166" y="846" type="qcurve" smooth="yes"/>
      <point x="180" y="846"/>
      <point x="200" y="866"/>
      <point x="200" y="880" type="qcurve" smooth="yes"/>
      <point x="200" y="894"/>
      <point x="180" y="913"/>
      <point x="166" y="913" type="qcurve" smooth="yes"/>
      <point x="152" y="913"/>
      <point x="132" y="894"/>
    </contour>
  </outline>
</glyph>
<glyph name="Thorn" format="2">
  <advance width="599"/>
  <unicode hex="00DE"/>
  <outline>
    <contour>
      <point x="368" y="560" type="qcurve" smooth="yes"/>
      <point x="119" y="560" type="line"/>
      <point x="119" y="710" type="line"/>
      <point x="99" y="710" type="line"/>
      <point x="99" y="0" type="line"/>
      <point x="119" y="0" type="line"/>
      <point x="119" y="129" type="line"/>
      <point x="375" y="129" type="line" smooth="yes"/>
      <point x="418" y="129"/>
      <point x="489" y="165"/>
      <point x="540" y="225"/>
      <point x="568" y="303"/>
      <point x="568" y="345" type="qcurve" smooth="yes"/>
      <point x="568" y="385"/>
      <point x="538" y="462"/>
      <point x="485" y="523"/>
      <point x="412" y="560"/>
    </contour>
    <contour>
      <point x="375" y="149" type="qcurve" smooth="yes"/>
      <point x="119" y="149" type="line"/>
      <point x="119" y="540" type="line"/>
      <point x="368" y="540" type="line" smooth="yes"/>
      <point x="406" y="540"/>
      <point x="471" y="507"/>
      <point x="520" y="453"/>
      <point x="548" y="383"/>
      <point x="548" y="345" type="qcurve" smooth="yes"/>
      <point x="548" y="309"/>
      <point x="524" y="239"/>
      <point x="480" y="183"/>
      <point x="416" y="149"/>
    </contour>
  </outline>
</glyph>
<glyph name="germandbls" format="2">
  <advance width="546"/>
  <unicode hex="00DF"/>
  <outline>
    <contour>
      <point x="230" y="-6" type="line"/>
      <point x="296" y="-4"/>
      <point x="396" y="26"/>
      <point x="465" y="79"/>
      <point x="500" y="155"/>
      <point x="500" y="203" type="qcurve" smooth="yes"/>
      <point x="500" y="282"/>
      <point x="411" y="387"/>
      <point x="328" y="404" type="qcurve"/>
      <point x="353" y="409"/>
      <point x="397" y="437"/>
      <point x="429" y="479"/>
      <point x="448" y="530"/>
      <point x="448" y="557" type="qcurve" smooth="yes"/>
      <point x="448" y="590"/>
      <point x="420" y="648"/>
      <point x="372" y="690"/>
      <point x="306" y="714"/>
      <point x="268" y="714" type="qcurve" smooth="yes"/>
      <point x="227" y="714"/>
      <point x="159" y="685"/>
      <point x="111" y="631"/>
      <point x="84" y="555"/>
      <point x="84" y="509" type="qcurve" smooth="yes"/>
      <point x="84" y="0" type="line"/>
      <point x="104" y="0" type="line"/>
      <point x="104" y="509" type="line" smooth="yes"/>
      <point x="104" y="551"/>
      <point x="127" y="619"/>
      <point x="170" y="668"/>
      <point x="230" y="694"/>
      <point x="267" y="694" type="qcurve" smooth="yes"/>
      <point x="301" y="694"/>
      <point x="360" y="672"/>
      <point x="403" y="634"/>
      <point x="428" y="582"/>
      <point x="428" y="552" type="qcurve" smooth="yes"/>
      <point x="428" y="522"/>
      <point x="405" y="472"/>
      <point x="363" y="434"/>
      <point x="307" y="413"/>
      <point x="274" y="413" type="qcurve" smooth="yes"/>
      <point x="258" y="413" type="line"/>
      <point x="258" y="393" type="line"/>
      <point x="275" y="393" type="line" smooth="yes"/>
      <point x="321" y="393"/>
      <point x="396" y="365"/>
      <point x="450" y="315"/>
      <point x="480" y="245"/>
      <point x="480" y="202" type="qcurve" smooth="yes"/>
      <point x="480" y="158"/>
      <point x="447" y="88"/>
      <point x="383" y="40"/>
      <point x="290" y="14"/>
      <point x="230" y="13" type="qcurve"/>
    </contour>
  </outline>
</glyph>
<glyph name="ae" format="2">
  <advance width="928"/>
  <unicode hex="00E6"/>
  <outline>
    <contour>
      <point x="207" y="-10" type="qcurve" smooth="yes"/>
      <point x="239" y="-10"/>
      <point x="308" y="4"/>
      <point x="372" y="33"/>
      <point x="425" y="79"/>
      <point x="441" y="111" type="qcurve"/>
      <point x="475" y="56"/>
      <point x="583" y="-10"/>
      <point x="648" y="-10" type="qcurve" smooth="yes"/>
      <point x="682" y="-10"/>
      <point x="747" y="9"/>
      <point x="802" y="42"/>
      <point x="844" y="87"/>
      <point x="854" y="114" type="qcurve"/>
      <point x="835" y="119" type="line"/>
      <point x="824" y="95"/>
      <point x="786" y="55"/>
      <point x="736" y="26"/>
      <point x="679" y="10"/>
      <point x="649" y="10" type="qcurve" smooth="yes"/>
      <point x="604" y="10"/>
      <point x="523" y="47"/>
      <point x="461" y="111"/>
      <point x="422" y="198"/>
      <point x="418" y="248" type="qcurve"/>
      <point x="893" y="248" type="line"/>
      <point x="893" y="251"/>
      <point x="893" y="256"/>
      <point x="893" y="259" type="qcurve" smooth="yes"/>
      <point x="893" y="315"/>
      <point x="853" y="413"/>
      <point x="786" y="485"/>
      <point x="695" y="527"/>
      <point x="643" y="527" type="qcurve" smooth="yes"/>
      <point x="577" y="527"/>
      <point x="467" y="459"/>
      <point x="435" y="403" type="qcurve"/>
      <point x="416" y="462"/>
      <point x="324" y="527"/>
      <point x="257" y="527" type="qcurve" smooth="yes"/>
      <point x="216" y="527"/>
      <point x="127" y="493"/>
      <point x="77" y="459" type="qcurve"/>
      <point x="89" y="443" type="line"/>
      <point x="133" y="474"/>
      <point x="219" y="507"/>
      <point x="257" y="507" type="qcurve" smooth="yes"/>
      <point x="321" y="507"/>
      <point x="408" y="436"/>
      <point x="421" y="376" type="qcurve"/>
      <point x="411" y="353"/>
      <point x="400" y="303"/>
      <point x="398" y="277" type="qcurve"/>
      <point x="365" y="286"/>
      <point x="289" y="297"/>
      <point x="253" y="297" type="qcurve" smooth="yes"/>
      <point x="206" y="297"/>
      <point x="127" y="275"/>
      <point x="70" y="236"/>
      <point x="39" y="182"/>
      <point x="39" y="149" type="qcurve" smooth="yes"/>
      <point x="39" y="116"/>
      <point x="65" y="58"/>
      <point x="110" y="15"/>
      <point x="172" y="-10"/>
    </contour>
    <contour>
      <point x="207" y="10" type="qcurve" smooth="yes"/>
      <point x="176" y="10"/>
      <point x="122" y="32"/>
      <point x="82" y="69"/>
      <point x="59" y="120"/>
      <point x="59" y="149" type="qcurve" smooth="yes"/>
      <point x="59" y="178"/>
      <point x="87" y="225"/>
      <point x="138" y="259"/>
      <point x="210" y="277"/>
      <point x="253" y="277" type="qcurve" smooth="yes"/>
      <point x="291" y="277"/>
      <point x="363" y="267"/>
      <point x="398" y="256" type="qcurve"/>
      <point x="399" y="224"/>
      <point x="413" y="164"/>
      <point x="427" y="137" type="qcurve"/>
      <point x="425" y="129"/>
      <point x="418" y="111"/>
      <point x="412" y="102" type="qcurve" smooth="yes"/>
      <point x="385" y="60"/>
      <point x="274" y="10"/>
    </contour>
    <contour>
      <point x="418" y="268" type="line"/>
      <point x="421" y="319"/>
      <point x="457" y="407"/>
      <point x="518" y="471"/>
      <point x="598" y="507"/>
      <point x="644" y="507" type="qcurve" smooth="yes"/>
      <point x="690" y="507"/>
      <point x="770" y="471"/>
      <point x="831" y="408"/>
      <point x="869" y="320"/>
      <point x="872" y="268" type="qcurve"/>
    </contour>
  </outline>
</glyph>
<glyph name="eth" format="2">
  <advance width="593"/>
  <unicode hex="00F0"/>
  <outline>
    <contour>
      <point x="542" y="246" type="qcurve" smooth="yes"/>
      <point x="542" y="311"/>
      <point x="524" y="435"/>
      <point x="462" y="555"/>
      <point x="347" y="672"/>
      <point x="249" y="730" type="qcurve"/>
      <point x="220" y="730" type="line"/>
      <point x="309" y="679"/>
      <point x="422" y="577"/>
      <point x="488" y="476"/>
      <point x="517" y="378"/>
      <point x="522" y="330" type="qcurve"/>
      <point x="509" y="362"/>
      <point x="464" y="415"/>
      <point x="405" y="454"/>
      <point x="334" y="475"/>
      <point x="295" y="475" type="qcurve" smooth="yes"/>
      <point x="245" y="475"/>
      <point x="155" y="436"/>
      <point x="88" y="370"/>
      <point x="48" y="282"/>
      <point x="48" y="232" type="qcurve" smooth="yes"/>
      <point x="48" y="183"/>
      <point x="87" y="95"/>
      <point x="154" y="29"/>
      <point x="244" y="-10"/>
      <point x="295" y="-10" type="qcurve" smooth="yes"/>
      <point x="346" y="-10"/>
      <point x="436" y="31"/>
      <point x="503" y="101"/>
      <point x="542" y="194"/>
    </contour>
    <contour>
      <point x="68" y="230" type="qcurve" smooth="yes"/>
      <point x="68" y="276"/>
      <point x="104" y="358"/>
      <point x="166" y="419"/>
      <point x="249" y="455"/>
      <point x="295" y="455" type="qcurve" smooth="yes"/>
      <point x="341" y="455"/>
      <point x="424" y="422"/>
      <point x="486" y="365"/>
      <point x="522" y="289"/>
      <point x="522" y="247" type="qcurve" smooth="yes"/>
      <point x="522" y="199"/>
      <point x="486" y="113"/>
      <point x="423" y="48"/>
      <point x="341" y="10"/>
      <point x="294" y="10" type="qcurve" smooth="yes"/>
      <point x="248" y="10"/>
      <point x="165" y="45"/>
      <point x="104" y="105"/>
      <point x="68" y="185"/>
    </contour>
    <contour>
      <point x="461" y="713" type="line"/>
      <point x="361" y="647" type="line"/>
      <point x="355" y="643" type="line"/>
      <point x="230" y="561" type="line"/>
      <point x="240" y="547" type="line"/>
      <point x="368" y="631" type="line"/>
      <point x="375" y="636" type="line"/>
      <point x="471" y="699" type="line"/>
    </contour>
  </outline>
</glyph>
<glyph name="divide" format="2">
  <advance width="546"/>
  <unicode hex="00F7"/>
  <outline>
    <contour>
      <point x="475" y="261" type="line"/>
      <point x="475" y="281" type="line"/>
      <point x="72" y="281" type="line"/>
      <point x="72" y="261" type="line"/>
    </contour>
    <contour>
      <point x="237" y="123" type="qcurve" smooth="yes"/>
      <point x="237" y="109"/>
      <point x="257" y="89"/>
      <point x="271" y="89" type="qcurve" smooth="yes"/>
      <point x="285" y="89"/>
      <point x="305" y="109"/>
      <point x="305" y="123" type="qcurve" smooth="yes"/>
      <point x="305" y="137"/>
      <point x="285" y="156"/>
      <point x="271" y="156" type="qcurve" smooth="yes"/>
      <point x="257" y="156"/>
      <point x="237" y="137"/>
    </contour>
    <contour>
      <point x="237" y="420" type="qcurve" smooth="yes"/>
      <point x="237" y="406"/>
      <point x="257" y="386"/>
      <point x="271" y="386" type="qcurve" smooth="yes"/>
      <point x="285" y="386"/>
      <point x="305" y="406"/>
      <point x="305" y="420" type="qcurve" smooth="yes"/>
      <point x="305" y="434"/>
      <point x="285" y="453"/>
      <point x="271" y="453" type="qcurve" smooth="yes"/>
      <point x="257" y="453"/>
      <point x="237" y="434"/>
    </contour>
  </outline>
</glyph>
<glyph name="Dcroat" format="2">
  <advance width="718"/>
  <unicode hex="0110"/>
  <outline>
    <contour>
      <point x="318" y="347" type="line"/>
      <point x="318" y="367" type="line"/>
      <point x="35" y="367" type="line"/>
      <point x="35" y="347" type="line"/>
    </contour>
    <contour>
      <point x="334" y="0" type="line" smooth="yes"/>
      <point x="411" y="0"/>
      <point x="534" y="51"/>
      <point x="620" y="144"/>
      <point x="667" y="275"/>
      <point x="667" y="356" type="qcurve" smooth="yes"/>
      <point x="667" y="430"/>
      <point x="626" y="559"/>
      <point x="543" y="655"/>
      <point x="418" y="710"/>
      <point x="334" y="710" type="qcurve" smooth="yes"/>
      <point x="106" y="710" type="line"/>
      <point x="106" y="0" type="line"/>
    </contour>
    <contour>
      <point x="647" y="356" type="qcurve" smooth="yes"/>
      <point x="647" y="284"/>
      <point x="607" y="161"/>
      <point x="528" y="71"/>
      <point x="411" y="20"/>
      <point x="334" y="20" type="qcurve" smooth="yes"/>
      <point x="126" y="20" type="line"/>
      <point x="126" y="690" type="line"/>
      <point x="334" y="690" type="line" smooth="yes"/>
      <point x="409" y="690"/>
      <point x="526" y="640"/>
      <point x="606" y="551"/>
      <point x="647" y="429"/>
    </contour>
  </outline>
</glyph>
<glyph name="hbar" format="2">
  <advance width="565"/>
  <unicode hex="0127"/>
  <outline>
    <contour>
      <point x="230" y="633" type="line"/>
      <point x="230" y="653" type="line"/>
      <point x="10" y="653" type="line"/>
      <point x="10" y="633" type="line"/>
    </contour>
    <contour>
      <point x="487" y="289" type="line" smooth="yes"/>
      <point x="487" y="348"/>
      <point x="466" y="437"/>
      <point x="424" y="497"/>
      <point x="363" y="527"/>
      <point x="322" y="527" type="qcurve" smooth="yes"/>
      <point x="255" y="527"/>
      <point x="136" y="450"/>
      <point x="104" y="385" type="qcurve"/>
      <point x="104" y="730" type="line"/>
      <point x="84" y="730" type="line"/>
      <point x="84" y="0" type="line"/>
      <point x="104" y="0" type="line"/>
      <point x="104" y="328" type="line"/>
      <point x="114" y="366"/>
      <point x="158" y="431"/>
      <point x="217" y="479"/>
      <point x="287" y="507"/>
      <point x="323" y="507" type="qcurve" smooth="yes"/>
      <point x="395" y="507"/>
      <point x="467" y="398"/>
      <point x="467" y="289" type="qcurve" smooth="yes"/>
      <point x="467" y="0" type="line"/>
      <point x="487" y="0" type="line"/>
    </contour>
  </outline>
</glyph>
<glyph name="dotlessi" format="2">
  <advance width="188"/>
  <unicode hex="0131"/>
  <outline>
    <contour>
      <point x="104" y="0" type="line"/>
      <point x="104" y="519" type="line"/>
      <point x="84" y="519" type="line"/>
      <point x="84" y="0" type="line"/>
    </contour>
  </outline>
</glyph>
<glyph name="Lslash" format="2">
  <advance width="586"/>
  <unicode hex="0141"/>
  <outline>
    <contour>
      <point x="328" y="506" type="line"/>
      <point x="314" y="521" type="line"/>
      <point x="29" y="236" type="line"/>
      <point x="43" y="221" type="line"/>
    </contour>
    <contour>
      <point x="572" y="0" type="line"/>
      <point x="572" y="20" type="line"/>
      <point x="126" y="20" type="line"/>
      <point x="126" y="710" type="line"/>
      <point x="106" y="710" type="line"/>
      <point x="106" y="0" type="line"/>
    </contour>
  </outline>
</glyph>
<glyph name="lslash" format="2">
  <advance width="253"/>
  <unicode hex="0142"/>
  <outline>
    <contour>
      <point x="231" y="504" type="line"/>
      <point x="216" y="518" type="line"/>
      <point x="16" y="318" type="line"/>
      <point x="31" y="304" type="line"/>
    </contour>
    <contour>
      <point x="104" y="77" type="line" smooth="yes"/>
      <point x="104" y="40"/>
      <point x="148" y="-5"/>
      <point x="183" y="-5" type="qcurve" smooth="yes"/>
      <point x="197" y="-5"/>
      <point x="238" y="2"/>
      <point x="252" y="7" type="qcurve"/>
      <point x="245" y="23" type="line"/>
      <point x="232" y="19"/>
      <point x="201" y="14"/>
      <point x="190" y="14" type="qcurve" smooth="yes"/>
      <point x="175" y="14"/>
      <point x="151" y="23"/>
      <point x="133" y="39"/>
      <point x="124" y="62"/>
      <point x="124" y="77" type="qcurve" smooth="yes"/>
      <point x="124" y="730" type="line"/>
      <point x="104" y="730" type="line"/>
    </contour>
  </outline>
</glyph>
<glyph name="Tbar" format="2">
  <advance width="640"/>
  <unicode hex="0166"/>
  <outline>
    <contour>
      <point x="562" y="307" type="line"/>
      <point x="562" y="327" type="line"/>
      <point x="78" y="327" type="line"/>
      <point x="78" y="307" type="line"/>
    </contour>
    <contour>
      <point x="602" y="710" type="line"/>
      <point x="38" y="710" type="line"/>
      <point x="38" y="690" type="line"/>
      <point x="310" y="690" type="line"/>
      <point x="310" y="0" type="line"/>
      <point x="330" y="0" type="line"/>
      <point x="330" y="690" type="line"/>
      <point x="602" y="690" type="line"/>
    </contour>
  </outline>
</glyph>
<glyph name="tbar" format="2">
  <advance width="297"/>
  <unicode hex="0167"/>
  <outline>
    <contour>
      <point x="237" y="299" type="line"/>
      <point x="237" y="319" type="line"/>
      <point x="27" y="319" type="line"/>
      <point x="27" y="299" type="line"/>
    </contour>
    <contour>
      <point x="276" y="40" type="line"/>
      <point x="275" y="39"/>
      <point x="262" y="31"/>
      <point x="239" y="22"/>
      <point x="209" y="15"/>
      <point x="192" y="15" type="qcurve" smooth="yes"/>
      <point x="166" y="15"/>
      <point x="124" y="46"/>
      <point x="122" y="75" type="qcurve"/>
      <point x="122" y="499" type="line"/>
      <point x="247" y="499" type="line"/>
      <point x="247" y="519" type="line"/>
      <point x="122" y="519" type="line"/>
      <point x="122" y="700" type="line"/>
      <point x="102" y="700" type="line"/>
      <point x="102" y="519" type="line"/>
      <point x="27" y="519" type="line"/>
      <point x="27" y="499" type="line"/>
      <point x="102" y="499" type="line"/>
      <point x="102" y="75" type="line" smooth="yes"/>
      <point x="102" y="57"/>
      <point x="117" y="28"/>
      <point x="141" y="7"/>
      <point x="174" y="-5"/>
      <point x="192" y="-5" type="qcurve" smooth="yes"/>
      <point x="213" y="-5"/>
      <point x="247" y="4"/>
      <point x="272" y="14"/>
      <point x="287" y="24"/>
      <point x="287" y="24" type="qcurve"/>
    </contour>
  </outline>
</glyph>
<glyph name="Schwa" format="2">
  <advance width="739"/>
  <unicode hex="018F"/>
  <outline>
    <contour>
      <point x="366" y="-10" type="qcurve" smooth="yes"/>
      <point x="434" y="-10"/>
      <point x="552" y="46"/>
      <point x="640" y="142"/>
      <point x="691" y="272"/>
      <point x="691" y="346" type="qcurve" smooth="yes"/>
      <point x="691" y="422"/>
      <point x="638" y="556"/>
      <point x="548" y="657"/>
      <point x="427" y="715"/>
      <point x="359" y="715" type="qcurve" smooth="yes"/>
      <point x="314" y="715"/>
      <point x="228" y="690"/>
      <point x="155" y="645"/>
      <point x="100" y="584"/>
      <point x="86" y="548" type="qcurve"/>
      <point x="106" y="539" type="line"/>
      <point x="120" y="574"/>
      <point x="172" y="632"/>
      <point x="240" y="672"/>
      <point x="317" y="694"/>
      <point x="357" y="694" type="qcurve" smooth="yes"/>
      <point x="419" y="694"/>
      <point x="528" y="644"/>
      <point x="612" y="555"/>
      <point x="664" y="433"/>
      <point x="669" y="362" type="qcurve"/>
      <point x="33" y="362" type="line"/>
      <point x="33" y="360"/>
      <point x="33" y="355"/>
      <point x="33" y="352" type="qcurve" smooth="yes"/>
      <point x="33" y="277"/>
      <point x="84" y="145"/>
      <point x="173" y="47"/>
      <point x="295" y="-10"/>
    </contour>
    <contour>
      <point x="364" y="12" type="qcurve" smooth="yes"/>
      <point x="301" y="12"/>
      <point x="193" y="61"/>
      <point x="111" y="148"/>
      <point x="61" y="268"/>
      <point x="56" y="340" type="qcurve"/>
      <point x="669" y="340" type="line"/>
      <point x="666" y="270"/>
      <point x="616" y="149"/>
      <point x="535" y="62"/>
      <point x="426" y="12"/>
    </contour>
  </outline>
</glyph>
<glyph name="florin" format="2">
  <advance width="508"/>
  <unicode hex="0192"/>
  <outline>
    <contour>
      <point x="130" y="-170" type="qcurve" smooth="yes"/>
      <point x="153" y="-170"/>
      <point x="201" y="-150"/>
      <point x="239" y="-114"/>
      <point x="263" y="-65"/>
      <point x="263" y="-36" type="qcurve" smooth="yes"/>
      <point x="263" y="438" type="line"/>
      <point x="418" y="438" type="line"/>
      <point x="418" y="458" type="line"/>
      <point x="263" y="458" type="line"/>
      <point x="263" y="540" type="line" smooth="yes"/>
      <point x="263" y="628"/>
      <point x="324" y="721"/>
      <point x="381" y="721" type="qcurve" smooth="yes"/>
      <point x="404" y="721"/>
      <point x="447" y="706"/>
      <point x="459" y="694" type="qcurve"/>
      <point x="475" y="706" type="line"/>
      <point x="461" y="721"/>
      <point x="409" y="740"/>
      <point x="380" y="740" type="qcurve" smooth="yes"/>
      <point x="348" y="740"/>
      <point x="297" y="713"/>
      <point x="262" y="662"/>
      <point x="243" y="587"/>
      <point x="243" y="540" type="qcurve" smooth="yes"/>
      <point x="243" y="458" type="line"/>
      <point x="168" y="458" type="line"/>
      <point x="168" y="438" type="line"/>
      <point x="243" y="438" type="line"/>
      <point x="243" y="-36" type="line" smooth="yes"/>
      <point x="243" y="-60"/>
      <point x="223" y="-102"/>
      <point x="190" y="-132"/>
      <point x="150" y="-150"/>
      <point x="129" y="-150" type="qcurve" smooth="yes"/>
      <point x="108" y="-150"/>
      <point x="64" y="-140"/>
      <point x="46" y="-124" type="qcurve"/>
      <point x="30" y="-136" type="line"/>
      <point x="50" y="-156"/>
      <point x="101" y="-170"/>
    </contour>
  </outline>
</glyph>
<glyph name="Aringacute" format="2">
  <advance width="674"/>
  <unicode hex="01FA"/>
  <outline>
    <contour>
      <point x="18" y="0" type="line"/>
      <point x="40" y="0" type="line"/>
      <point x="151" y="254" type="line"/>
      <point x="522" y="254" type="line"/>
      <point x="633" y="0" type="line"/>
      <point x="655" y="0" type="line"/>
      <point x="346" y="710" type="line"/>
      <point x="328" y="710" type="line"/>
    </contour>
    <contour>
      <point x="159" y="274" type="line"/>
      <point x="337" y="681" type="line"/>
      <point x="513" y="274" type="line"/>
    </contour>
    <contour>
      <point x="262" y="784" type="qcurve" smooth="yes"/>
      <point x="262" y="752"/>
      <point x="305" y="709"/>
      <point x="337" y="709" type="qcurve" smooth="yes"/>
      <point x="369" y="709"/>
      <point x="412" y="752"/>
      <point x="412" y="784" type="qcurve" smooth="yes"/>
      <point x="412" y="816"/>
      <point x="369" y="859"/>
      <point x="337" y="859" type="qcurve" smooth="yes"/>
      <point x="305" y="859"/>
      <point x="262" y="816"/>
    </contour>
    <contour>
      <point x="337" y="838" type="qcurve" smooth="yes"/>
      <point x="359" y="838"/>
      <point x="391" y="809"/>
      <point x="391" y="784" type="qcurve" smooth="yes"/>
      <point x="391" y="760"/>
      <point x="357" y="730"/>
      <point x="337" y="730" type="qcurve" smooth="yes"/>
      <point x="314" y="730"/>
      <point x="283" y="761"/>
      <point x="283" y="784" type="qcurve" smooth="yes"/>
      <point x="283" y="809"/>
      <point x="315" y="838"/>
    </contour>
    <contour>
      <point x="469" y="1000" type="line"/>
      <point x="435" y="1000" type="line"/>
      <point x="325" y="840" type="line"/>
      <point x="344" y="840" type="line"/>
    </contour>
  </outline>
</glyph>
<glyph name="uni0237" format="2">
  <advance width="188"/>
  <unicode hex="0237"/>
  <outline>
    <contour>
      <point x="-29" y="-170" type="qcurve" smooth="yes"/>
      <point x="-6" y="-170"/>
      <point x="42" y="-150"/>
      <point x="80" y="-114"/>
      <point x="104" y="-65"/>
      <point x="104" y="-36" type="qcurve" smooth="yes"/>
      <point x="104" y="519" type="line"/>
      <point x="84" y="519" type="line"/>
      <point x="84" y="-36" type="line" smooth="yes"/>
      <point x="84" y="-60"/>
      <point x="64" y="-102"/>
      <point x="31" y="-132"/>
      <point x="-9" y="-150"/>
      <point x="-30" y="-150" type="qcurve" smooth="yes"/>
      <point x="-51" y="-150"/>
      <point x="-95" y="-140"/>
      <point x="-113" y="-124" type="qcurve"/>
      <point x="-129" y="-136" type="line"/>
      <point x="-109" y="-156"/>
      <point x="-58" y="-170"/>
    </contour>
  </outline>
</glyph>
<glyph name="schwa" format="2">
  <advance width="576"/>
  <unicode hex="0259"/>
  <outline>
    <contour>
      <point x="285" y="-10" type="qcurve" smooth="yes"/>
      <point x="336" y="-10"/>
      <point x="425" y="31"/>
      <point x="492" y="103"/>
      <point x="530" y="199"/>
      <point x="530" y="254" type="qcurve" smooth="yes"/>
      <point x="530" y="310"/>
      <point x="490" y="409"/>
      <point x="422" y="484"/>
      <point x="331" y="527"/>
      <point x="280" y="527" type="qcurve" smooth="yes"/>
      <point x="246" y="527"/>
      <point x="181" y="508"/>
      <point x="126" y="475"/>
      <point x="85" y="430"/>
      <point x="74" y="403" type="qcurve"/>
      <point x="93" y="398" type="line"/>
      <point x="104" y="422"/>
      <point x="142" y="462"/>
      <point x="192" y="491"/>
      <point x="249" y="507"/>
      <point x="279" y="507" type="qcurve" smooth="yes"/>
      <point x="324" y="507"/>
      <point x="405" y="470"/>
      <point x="467" y="406"/>
      <point x="506" y="319"/>
      <point x="510" y="269" type="qcurve"/>
      <point x="35" y="269" type="line"/>
      <point x="35" y="266"/>
      <point x="35" y="261"/>
      <point x="35" y="258" type="qcurve" smooth="yes"/>
      <point x="35" y="202"/>
      <point x="75" y="104"/>
      <point x="142" y="32"/>
      <point x="233" y="-10"/>
    </contour>
    <contour>
      <point x="284" y="10" type="qcurve" smooth="yes"/>
      <point x="238" y="10"/>
      <point x="158" y="46"/>
      <point x="97" y="109"/>
      <point x="59" y="197"/>
      <point x="56" y="249" type="qcurve"/>
      <point x="510" y="249" type="line"/>
      <point x="507" y="198"/>
      <point x="471" y="110"/>
      <point x="410" y="46"/>
      <point x="330" y="10"/>
    </contour>
  </outline>
</glyph>
<glyph name="ringhalfrightmod" format="2">
  <advance width="163"/>
  <unicode hex="02BE"/>
  <outline>
    <contour>
      <point x="44" y="606" type="line"/>
      <point x="76" y="606"/>
      <point x="119" y="649"/>
      <point x="119" y="681" type="qcurve" smooth="yes"/>
      <point x="119" y="713"/>
      <point x="76" y="756"/>
      <point x="44" y="756" type="qcurve"/>
      <point x="44" y="735" type="line"/>
      <point x="67" y="735"/>
      <point x="98" y="706"/>
      <point x="98" y="681" type="qcurve" smooth="yes"/>
      <point x="98" y="657"/>
      <point x="64" y="627"/>
      <point x="44" y="627" type="qcurve"/>
    </contour>
  </outline>
</glyph>
<glyph name="uni02BF" format="2">
  <advance width="163"/>
  <unicode hex="02BF"/>
  <outline>
    <contour>
      <point x="119" y="627" type="line"/>
      <point x="96" y="627"/>
      <point x="65" y="658"/>
      <point x="65" y="681" type="qcurve" smooth="yes"/>
      <point x="65" y="706"/>
      <point x="97" y="735"/>
      <point x="119" y="735" type="qcurve"/>
      <point x="119" y="756" type="line"/>
      <point x="87" y="756"/>
      <point x="44" y="713"/>
      <point x="44" y="681" type="qcurve" smooth="yes"/>
      <point x="44" y="649"/>
      <point x="87" y="606"/>
      <point x="119" y="606" type="qcurve"/>
    </contour>
  </outline>
</glyph>
<glyph name="uni02C8" format="2">
  <advance width="214"/>
  <unicode hex="02C8"/>
  <outline>
    <contour>
      <point x="97" y="775" type="line"/>
      <point x="97" y="360" type="line"/>
      <point x="117" y="360" type="line"/>
      <point x="117" y="775" type="line"/>
    </contour>
  </outline>
</glyph>
<glyph name="uni02CC" format="2">
  <advance width="214"/>
  <unicode hex="02CC"/>
  <outline>
    <contour>
      <point x="97" y="285" type="line"/>
      <point x="97" y="-130" type="line"/>
      <point x="117" y="-130" type="line"/>
      <point x="117" y="285" type="line"/>
    </contour>
  </outline>
</glyph>
<glyph name="tilde" format="2">
  <advance width="383"/>
  <unicode hex="02DC"/>
  <outline>
    <contour>
      <point x="249" y="663" type="qcurve" smooth="yes"/>
      <point x="276" y="663"/>
      <point x="309" y="681"/>
      <point x="325" y="705"/>
      <point x="330" y="727"/>
      <point x="330" y="730" type="qcurve"/>
      <point x="310" y="730" type="line"/>
      <point x="310" y="729"/>
      <point x="307" y="713"/>
      <point x="295" y="696"/>
      <point x="272" y="682"/>
      <point x="251" y="682" type="qcurve" smooth="yes"/>
      <point x="232" y="682"/>
      <point x="203" y="694"/>
      <point x="175" y="708"/>
      <point x="146" y="720"/>
      <point x="126" y="720" type="qcurve" smooth="yes"/>
      <point x="101" y="720"/>
      <point x="72" y="701"/>
      <point x="57" y="677"/>
      <point x="53" y="655"/>
      <point x="53" y="653" type="qcurve"/>
      <point x="73" y="653" type="line"/>
      <point x="73" y="655"/>
      <point x="77" y="671"/>
      <point x="88" y="688"/>
      <point x="108" y="701"/>
      <point x="124" y="701" type="qcurve" smooth="yes"/>
      <point x="139" y="701"/>
      <point x="166" y="689"/>
      <point x="194" y="675"/>
      <point x="227" y="663"/>
    </contour>
  </outline>
</glyph>
<glyph name="gravecomb" format="2">
  <advance width="198"/>
  <unicode hex="0300"/>
  <anchor x="155" y="519" name="_top"/>
  <outline>
    <contour>
      <point x="19" y="760" type="line"/>
      <point x="144" y="600" type="line"/>
      <point x="163" y="600" type="line"/>
      <point x="53" y="760" type="line"/>
    </contour>
  </outline>
</glyph>
<glyph name="acutecomb" format="2">
  <advance width="198"/>
  <unicode hex="0301"/>
  <outline>
    <contour>
      <point x="179" y="760" type="line"/>
      <point x="145" y="760" type="line"/>
      <point x="35" y="600" type="line"/>
      <point x="54" y="600" type="line"/>
    </contour>
  </outline>
</glyph>
<glyph name="circumflexcomb" format="2">
  <advance width="302"/>
  <unicode hex="0302"/>
  <outline>
    <contour>
      <point x="15" y="600" type="line"/>
      <point x="34" y="600" type="line"/>
      <point x="148" y="700" type="line"/>
      <point x="262" y="600" type="line"/>
      <point x="281" y="600" type="line"/>
      <point x="166" y="720" type="line"/>
      <point x="130" y="720" type="line"/>
    </contour>
  </outline>
</glyph>
<glyph name="tildecomb" format="2">
  <advance width="477"/>
  <unicode hex="0303"/>
  <outline>
    <contour>
      <point x="296" y="663" type="qcurve" smooth="yes"/>
      <point x="323" y="663"/>
      <point x="356" y="681"/>
      <point x="372" y="705"/>
      <point x="377" y="727"/>
      <point x="377" y="730" type="qcurve"/>
      <point x="357" y="730" type="line"/>
      <point x="357" y="729"/>
      <point x="354" y="713"/>
      <point x="342" y="696"/>
      <point x="319" y="682"/>
      <point x="298" y="682" type="qcurve" smooth="yes"/>
      <point x="279" y="682"/>
      <point x="250" y="694"/>
      <point x="222" y="708"/>
      <point x="193" y="720"/>
      <point x="173" y="720" type="qcurve" smooth="yes"/>
      <point x="148" y="720"/>
      <point x="119" y="701"/>
      <point x="104" y="677"/>
      <point x="100" y="655"/>
      <point x="100" y="653" type="qcurve"/>
      <point x="120" y="653" type="line"/>
      <point x="120" y="655"/>
      <point x="124" y="671"/>
      <point x="135" y="688"/>
      <point x="155" y="701"/>
      <point x="171" y="701" type="qcurve" smooth="yes"/>
      <point x="186" y="701"/>
      <point x="213" y="689"/>
      <point x="241" y="675"/>
      <point x="274" y="663"/>
    </contour>
  </outline>
</glyph>
<glyph name="uni0307" format="2">
  <advance width="120"/>
  <unicode hex="0307"/>
  <outline>
    <contour>
      <point x="26" y="689" type="qcurve" smooth="yes"/>
      <point x="26" y="675"/>
      <point x="46" y="655"/>
      <point x="60" y="655" type="qcurve" smooth="yes"/>
      <point x="74" y="655"/>
      <point x="94" y="675"/>
      <point x="94" y="689" type="qcurve" smooth="yes"/>
      <point x="94" y="703"/>
      <point x="74" y="722"/>
      <point x="60" y="722" type="qcurve" smooth="yes"/>
      <point x="46" y="722"/>
      <point x="26" y="703"/>
    </contour>
  </outline>
</glyph>
<glyph name="uni0308" format="2">
  <advance width="236"/>
  <unicode hex="0308"/>
  <outline>
    <contour>
      <point x="6" y="689" type="qcurve" smooth="yes"/>
      <point x="6" y="675"/>
      <point x="26" y="655"/>
      <point x="40" y="655" type="qcurve" smooth="yes"/>
      <point x="54" y="655"/>
      <point x="74" y="675"/>
      <point x="74" y="689" type="qcurve" smooth="yes"/>
      <point x="74" y="703"/>
      <point x="54" y="722"/>
      <point x="40" y="722" type="qcurve" smooth="yes"/>
      <point x="26" y="722"/>
      <point x="6" y="703"/>
    </contour>
    <contour>
      <point x="160" y="689" type="qcurve" smooth="yes"/>
      <point x="160" y="675"/>
      <point x="180" y="655"/>
      <point x="194" y="655" type="qcurve" smooth="yes"/>
      <point x="208" y="655"/>
      <point x="228" y="675"/>
      <point x="228" y="689" type="qcurve" smooth="yes"/>
      <point x="228" y="703"/>
      <point x="208" y="722"/>
      <point x="194" y="722" type="qcurve" smooth="yes"/>
      <point x="180" y="722"/>
      <point x="160" y="703"/>
    </contour>
  </outline>
</glyph>
<glyph name="hookabovecomb" format="2">
  <advance width="600"/>
  <unicode hex="0309"/>
  <outline>
    <contour>
      <point x="250" y="682" type="line"/>
      <point x="265" y="695"/>
      <point x="284" y="707"/>
      <point x="298" y="707" type="qcurve" smooth="yes"/>
      <point x="320" y="707"/>
      <point x="339" y="684"/>
      <point x="339" y="668" type="qcurve" smooth="yes"/>
      <point x="339" y="656"/>
      <point x="321" y="630"/>
      <point x="305" y="612" type="qcurve"/>
      <point x="317" y="601" type="line"/>
      <point x="334" y="621"/>
      <point x="357" y="648"/>
      <point x="357" y="668" type="qcurve" smooth="yes"/>
      <point x="357" y="695"/>
      <point x="324" y="725"/>
      <point x="300" y="725" type="qcurve" smooth="yes"/>
      <point x="280" y="725"/>
      <point x="254" y="709"/>
      <point x="238" y="695" type="qcurve"/>
    </contour>
  </outline>
</glyph>
<glyph name="uni030A" format="2">
  <advance width="238"/>
  <unicode hex="030A"/>
  <outline>
    <contour>
      <point x="44" y="681" type="qcurve" smooth="yes"/>
      <point x="44" y="649"/>
      <point x="87" y="606"/>
      <point x="119" y="606" type="qcurve" smooth="yes"/>
      <point x="151" y="606"/>
      <point x="194" y="649"/>
      <point x="194" y="681" type="qcurve" smooth="yes"/>
      <point x="194" y="713"/>
      <point x="151" y="756"/>
      <point x="119" y="756" type="qcurve" smooth="yes"/>
      <point x="87" y="756"/>
      <point x="44" y="713"/>
    </contour>
    <contour>
      <point x="119" y="735" type="qcurve" smooth="yes"/>
      <point x="141" y="735"/>
      <point x="173" y="706"/>
      <point x="173" y="681" type="qcurve" smooth="yes"/>
      <point x="173" y="657"/>
      <point x="139" y="627"/>
      <point x="119" y="627" type="qcurve" smooth="yes"/>
      <point x="96" y="627"/>
      <point x="65" y="658"/>
      <point x="65" y="681" type="qcurve" smooth="yes"/>
      <point x="65" y="706"/>
      <point x="97" y="735"/>
    </contour>
  </outline>
</glyph>
<glyph name="caroncomb" format="2">
  <advance width="302"/>
  <unicode hex="030C"/>
  <outline>
    <contour>
      <point x="15" y="720" type="line"/>
      <point x="130" y="600" type="line"/>
      <point x="166" y="600" type="line"/>
      <point x="281" y="720" type="line"/>
      <point x="262" y="720" type="line"/>
      <point x="148" y="620" type="line"/>
      <point x="34" y="720" type="line"/>
    </contour>
  </outline>
</glyph>
<glyph name="breveinvertedcomb" format="2">
  <advance width="248"/>
  <unicode hex="0311"/>
  <outline>
    <contour>
      <point x="124" y="713" type="qcurve" smooth="yes"/>
      <point x="144" y="713"/>
      <point x="177" y="678"/>
      <point x="180" y="653" type="qcurve"/>
      <point x="198" y="653" type="line"/>
      <point x="198" y="668"/>
      <point x="186" y="696"/>
      <point x="165" y="717"/>
      <point x="139" y="730"/>
      <point x="124" y="730" type="qcurve" smooth="yes"/>
      <point x="109" y="730"/>
      <point x="83" y="717"/>
      <point x="62" y="696"/>
      <point x="50" y="668"/>
      <point x="50" y="653" type="qcurve"/>
      <point x="69" y="653" type="line"/>
      <point x="69" y="676"/>
      <point x="103" y="713"/>
    </contour>
  </outline>
</glyph>
<glyph name="commaturnedabovecomb" format="2">
  <advance width="120"/>
  <unicode hex="0312"/>
  <outline>
    <contour>
      <point x="33" y="613" type="line"/>
      <point x="67" y="613" type="line"/>
      <point x="146" y="728" type="line"/>
      <point x="127" y="728" type="line"/>
    </contour>
  </outline>
</glyph>
<glyph name="uni031B" format="2">
  <advance width="219"/>
  <unicode hex="031B"/>
  <outline>
    <contour>
      <point x="50" y="537" type="line"/>
      <point x="65" y="537"/>
      <point x="95" y="541"/>
      <point x="120" y="549"/>
      <point x="141" y="560"/>
      <point x="147" y="567" type="qcurve" smooth="yes"/>
      <point x="154" y="575"/>
      <point x="161" y="590"/>
      <point x="166" y="606"/>
      <point x="168" y="627"/>
      <point x="169" y="641" type="qcurve"/>
      <point x="147" y="641" type="line"/>
      <point x="146" y="618"/>
      <point x="139" y="589"/>
      <point x="131" y="580" type="qcurve" smooth="yes"/>
      <point x="121" y="569"/>
      <point x="76" y="557"/>
      <point x="50" y="557" type="qcurve"/>
    </contour>
  </outline>
</glyph>
<glyph name="dotbelowcomb" format="2">
  <advance width="120"/>
  <unicode hex="0323"/>
  <outline>
    <contour>
      <point x="26" y="-91" type="qcurve" smooth="yes"/>
      <point x="26" y="-105"/>
      <point x="46" y="-125"/>
      <point x="60" y="-125" type="qcurve" smooth="yes"/>
      <point x="74" y="-125"/>
      <point x="94" y="-105"/>
      <point x="94" y="-91" type="qcurve" smooth="yes"/>
      <point x="94" y="-77"/>
      <point x="74" y="-58"/>
      <point x="60" y="-58" type="qcurve" smooth="yes"/>
      <point x="46" y="-58"/>
      <point x="26" y="-77"/>
    </contour>
  </outline>
</glyph>
<glyph name="dieresisbelowcomb" format="2">
  <advance width="236"/>
  <unicode hex="0324"/>
  <outline>
    <contour>
      <point x="27" y="-90" type="qcurve" smooth="yes"/>
      <point x="27" y="-104"/>
      <point x="47" y="-124"/>
      <point x="61" y="-124" type="qcurve" smooth="yes"/>
      <point x="75" y="-124"/>
      <point x="95" y="-104"/>
      <point x="95" y="-90" type="qcurve" smooth="yes"/>
      <point x="95" y="-76"/>
      <point x="75" y="-57"/>
      <point x="61" y="-57" type="qcurve" smooth="yes"/>
      <point x="47" y="-57"/>
      <point x="27" y="-76"/>
    </contour>
    <contour>
      <point x="141" y="-90" type="qcurve" smooth="yes"/>
      <point x="141" y="-104"/>
      <point x="161" y="-124"/>
      <point x="175" y="-124" type="qcurve" smooth="yes"/>
      <point x="189" y="-124"/>
      <point x="209" y="-104"/>
      <point x="209" y="-90" type="qcurve" smooth="yes"/>
      <point x="209" y="-76"/>
      <point x="189" y="-57"/>
      <point x="175" y="-57" type="qcurve" smooth="yes"/>
      <point x="161" y="-57"/>
      <point x="141" y="-76"/>
    </contour>
  </outline>
</glyph>
<glyph name="commaaccentcomb" format="2">
  <advance width="120"/>
  <unicode hex="0326"/>
  <outline>
    <contour>
      <point x="55" y="-196" type="line"/>
      <point x="88" y="-51" type="line"/>
      <point x="60" y="-51" type="line"/>
      <point x="39" y="-196" type="line"/>
    </contour>
  </outline>
</glyph>
<glyph name="cedillacomb" format="2">
  <advance width="252"/>
  <unicode hex="0327"/>
  <outline>
    <contour>
      <point x="84" y="-194" type="line"/>
      <point x="160" y="-39" type="line"/>
      <point x="137" y="-35" type="line"/>
      <point x="73" y="-191" type="line"/>
    </contour>
  </outline>
</glyph>
<glyph name="uni0327" format="2">
  <advance width="252"/>
  <unicode hex="0327"/>
  <outline>
    <contour>
      <point x="53" y="-146" type="qcurve"/>
      <point x="74" y="-155"/>
      <point x="124" y="-165"/>
      <point x="147" y="-165" type="qcurve" smooth="yes"/>
      <point x="162" y="-165"/>
      <point x="191" y="-160"/>
      <point x="214" y="-148"/>
      <point x="228" y="-126"/>
      <point x="228" y="-108" type="qcurve" smooth="yes"/>
      <point x="228" y="-77"/>
      <point x="188" y="-54"/>
      <point x="160" y="-54" type="qcurve" smooth="yes"/>
      <point x="149" y="-54"/>
      <point x="128" y="-56"/>
      <point x="118" y="-60" type="qcurve"/>
      <point x="151" y="-3" type="line"/>
      <point x="149" y="-2"/>
      <point x="144" y="1"/>
      <point x="140" y="4"/>
      <point x="135" y="7"/>
      <point x="133" y="8" type="qcurve"/>
      <point x="79" y="-86" type="line"/>
      <point x="99" y="-79"/>
      <point x="139" y="-70"/>
      <point x="160" y="-70" type="qcurve" smooth="yes"/>
      <point x="180" y="-70"/>
      <point x="208" y="-85"/>
      <point x="208" y="-108" type="qcurve" smooth="yes"/>
      <point x="208" y="-120"/>
      <point x="197" y="-135"/>
      <point x="180" y="-143"/>
      <point x="160" y="-146"/>
      <point x="150" y="-146" type="qcurve" smooth="yes"/>
      <point x="127" y="-146"/>
      <point x="83" y="-138"/>
      <point x="63" y="-128" type="qcurve"/>
      <point x="62" y="-130"/>
      <point x="59" y="-135"/>
      <point x="57" y="-139"/>
      <point x="54" y="-144"/>
    </contour>
  </outline>
</glyph>
<glyph name="ogonekcomb" format="2">
  <advance width="203"/>
  <unicode hex="0328"/>
  <outline>
    <contour>
      <point x="52" y="-100" type="qcurve" smooth="yes"/>
      <point x="52" y="-112"/>
      <point x="61" y="-132"/>
      <point x="80" y="-148"/>
      <point x="111" y="-160"/>
      <point x="133" y="-164" type="qcurve"/>
      <point x="145" y="-147" type="line"/>
      <point x="104" y="-138"/>
      <point x="73" y="-116"/>
      <point x="73" y="-97" type="qcurve" smooth="yes"/>
      <point x="73" y="-76"/>
      <point x="108" y="-32"/>
      <point x="149" y="0" type="qcurve"/>
      <point x="139" y="12" type="line"/>
      <point x="134" y="12" type="line"/>
      <point x="94" y="-20"/>
      <point x="52" y="-73"/>
    </contour>
  </outline>
</glyph>
<glyph name="brevebelowcomb" format="2">
  <advance width="248"/>
  <unicode hex="032E"/>
  <outline>
    <contour>
      <point x="124" y="-102" type="qcurve" smooth="yes"/>
      <point x="103" y="-102"/>
      <point x="69" y="-65"/>
      <point x="69" y="-42" type="qcurve"/>
      <point x="50" y="-42" type="line"/>
      <point x="50" y="-57"/>
      <point x="62" y="-85"/>
      <point x="83" y="-106"/>
      <point x="109" y="-119"/>
      <point x="124" y="-119" type="qcurve" smooth="yes"/>
      <point x="139" y="-119"/>
      <point x="165" y="-106"/>
      <point x="186" y="-85"/>
      <point x="198" y="-57"/>
      <point x="198" y="-42" type="qcurve"/>
      <point x="180" y="-42" type="line"/>
      <point x="177" y="-67"/>
      <point x="144" y="-102"/>
    </contour>
  </outline>
</glyph>
<glyph name="uni0331" format="2">
  <advance width="380"/>
  <unicode hex="0331"/>
  <outline>
    <contour>
      <point x="330" y="-95" type="line"/>
      <point x="330" y="-75" type="line"/>
      <point x="50" y="-75" type="line"/>
      <point x="50" y="-95" type="line"/>
    </contour>
  </outline>
</glyph>
<glyph name="strokeshortcomb" format="2">
  <advance width="310"/>
  <unicode hex="0335"/>
  <outline>
    <contour>
      <point x="260" y="299" type="line"/>
      <point x="260" y="319" type="line"/>
      <point x="50" y="319" type="line"/>
      <point x="50" y="299" type="line"/>
    </contour>
  </outline>
</glyph>
<glyph name="tonos" format="2">
  <advance width="129"/>
  <unicode hex="0384"/>
  <outline>
    <contour>
      <point x="66" y="767" type="line"/>
      <point x="42" y="576" type="line"/>
      <point x="66" y="572" type="line"/>
      <point x="87" y="765" type="line"/>
    </contour>
  </outline>
</glyph>
<glyph name="dieresistonos" format="2">
  <advance width="288"/>
  <unicode hex="0385"/>
  <outline>
    <contour>
      <point x="-3" y="637" type="qcurve" smooth="yes"/>
      <point x="-3" y="622"/>
      <point x="19" y="598"/>
      <point x="36" y="598" type="qcurve" smooth="yes"/>
      <point x="53" y="598"/>
      <point x="72" y="622"/>
      <point x="72" y="637" type="qcurve" smooth="yes"/>
      <point x="72" y="654"/>
      <point x="53" y="673"/>
      <point x="36" y="673" type="qcurve" smooth="yes"/>
      <point x="19" y="673"/>
      <point x="-3" y="654"/>
    </contour>
    <contour>
      <point x="215" y="637" type="qcurve" smooth="yes"/>
      <point x="215" y="622"/>
      <point x="239" y="598"/>
      <point x="254" y="598" type="qcurve" smooth="yes"/>
      <point x="271" y="598"/>
      <point x="290" y="622"/>
      <point x="290" y="637" type="qcurve" smooth="yes"/>
      <point x="290" y="654"/>
      <point x="271" y="673"/>
      <point x="254" y="673" type="qcurve" smooth="yes"/>
      <point x="239" y="673"/>
      <point x="215" y="654"/>
    </contour>
    <contour>
      <point x="150" y="788" type="line"/>
      <point x="126" y="597" type="line"/>
      <point x="150" y="593" type="line"/>
      <point x="171" y="786" type="line"/>
    </contour>
  </outline>
</glyph>
<glyph name="Alphatonos" format="2">
  <advance width="663"/>
  <unicode hex="0386"/>
  <outline>
    <contour>
      <point x="18" y="0" type="line"/>
      <point x="40" y="0" type="line"/>
      <point x="151" y="254" type="line"/>
      <point x="522" y="254" type="line"/>
      <point x="633" y="0" type="line"/>
      <point x="655" y="0" type="line"/>
      <point x="346" y="710" type="line"/>
      <point x="328" y="710" type="line"/>
    </contour>
    <contour>
      <point x="159" y="274" type="line"/>
      <point x="337" y="681" type="line"/>
      <point x="513" y="274" type="line"/>
    </contour>
    <contour>
      <point x="279" y="840" type="line"/>
      <point x="175" y="644" type="line"/>
      <point x="188" y="630" type="line"/>
      <point x="298" y="825" type="line"/>
    </contour>
  </outline>
</glyph>
<glyph name="Epsilontonos" format="2">
  <advance width="609"/>
  <unicode hex="0388"/>
  <outline>
    <contour>
      <point x="111" y="20" type="line"/>
      <point x="111" y="353" type="line"/>
      <point x="494" y="353" type="line"/>
      <point x="494" y="373" type="line"/>
      <point x="111" y="373" type="line"/>
      <point x="111" y="690" type="line"/>
      <point x="548" y="690" type="line"/>
      <point x="548" y="710" type="line"/>
      <point x="91" y="710" type="line"/>
      <point x="91" y="0" type="line"/>
      <point x="557" y="0" type="line"/>
      <point x="557" y="20" type="line"/>
    </contour>
    <contour>
      <point x="121" y="931" type="line"/>
      <point x="17" y="735" type="line"/>
      <point x="30" y="721" type="line"/>
      <point x="140" y="916" type="line"/>
    </contour>
  </outline>
</glyph>
<glyph name="Etatonos" format="2">
  <advance width="671"/>
  <unicode hex="0389"/>
  <outline>
    <contour>
      <point x="604" y="710" type="line"/>
      <point x="604" y="373" type="line"/>
      <point x="111" y="373" type="line"/>
      <point x="111" y="710" type="line"/>
      <point x="91" y="710" type="line"/>
      <point x="91" y="0" type="line"/>
      <point x="111" y="0" type="line"/>
      <point x="111" y="353" type="line"/>
      <point x="604" y="353" type="line"/>
      <point x="604" y="0" type="line"/>
      <point x="624" y="0" type="line"/>
      <point x="624" y="710" type="line"/>
    </contour>
    <contour>
      <point x="84" y="836" type="line"/>
      <point x="-20" y="640" type="line"/>
      <point x="-7" y="626" type="line"/>
      <point x="103" y="821" type="line"/>
    </contour>
  </outline>
</glyph>
<glyph name="Iotatonos" format="2">
  <advance width="224"/>
  <unicode hex="038A"/>
  <outline>
    <contour>
      <point x="112" y="0" type="line"/>
      <point x="112" y="710" type="line"/>
      <point x="92" y="710" type="line"/>
      <point x="92" y="0" type="line"/>
    </contour>
    <contour>
      <point x="92" y="831" type="line"/>
      <point x="-12" y="635" type="line"/>
      <point x="1" y="621" type="line"/>
      <point x="111" y="816" type="line"/>
    </contour>
  </outline>
</glyph>
<glyph name="Omicrontonos" format="2">
  <advance width="791"/>
  <unicode hex="038C"/>
  <outline>
    <contour>
      <point x="375" y="-5" type="qcurve" smooth="yes"/>
      <point x="445" y="-5"/>
      <point x="565" y="54"/>
      <point x="654" y="153"/>
      <point x="705" y="283"/>
      <point x="705" y="355" type="qcurve" smooth="yes"/>
      <point x="705" y="421"/>
      <point x="657" y="550"/>
      <point x="570" y="652"/>
      <point x="449" y="715"/>
      <point x="375" y="715" type="qcurve" smooth="yes"/>
      <point x="305" y="715"/>
      <point x="184" y="656"/>
      <point x="95" y="556"/>
      <point x="44" y="426"/>
      <point x="44" y="355" type="qcurve" smooth="yes"/>
      <point x="44" y="287"/>
      <point x="92" y="157"/>
      <point x="180" y="57"/>
      <point x="302" y="-5"/>
    </contour>
    <contour>
      <point x="64" y="355" type="qcurve" smooth="yes"/>
      <point x="64" y="418"/>
      <point x="109" y="540"/>
      <point x="191" y="636"/>
      <point x="306" y="695"/>
      <point x="375" y="695" type="qcurve" smooth="yes"/>
      <point x="441" y="695"/>
      <point x="554" y="639"/>
      <point x="638" y="544"/>
      <point x="685" y="421"/>
      <point x="685" y="355" type="qcurve" smooth="yes"/>
      <point x="685" y="292"/>
      <point x="640" y="170"/>
      <point x="559" y="74"/>
      <point x="444" y="15"/>
      <point x="375" y="15" type="qcurve" smooth="yes"/>
      <point x="308" y="15"/>
      <point x="193" y="71"/>
      <point x="111" y="166"/>
      <point x="64" y="289"/>
    </contour>
    <contour>
      <point x="113" y="831" type="line"/>
      <point x="9" y="635" type="line"/>
      <point x="22" y="621" type="line"/>
      <point x="132" y="816" type="line"/>
    </contour>
  </outline>
</glyph>
<glyph name="Upsilontonos" format="2">
  <advance width="631"/>
  <unicode hex="038E"/>
  <outline>
    <contour>
      <point x="317" y="0" type="line"/>
      <point x="335" y="0" type="line"/>
      <point x="335" y="252" type="line"/>
      <point x="336" y="318"/>
      <point x="368" y="433"/>
      <point x="427" y="537"/>
      <point x="512" y="636"/>
      <point x="564" y="686" type="qcurve"/>
      <point x="552" y="703" type="line"/>
      <point x="504" y="654"/>
      <point x="434" y="579"/>
      <point x="382" y="507"/>
      <point x="345" y="425"/>
      <point x="328" y="368" type="qcurve"/>
      <point x="322" y="368" type="line"/>
      <point x="305" y="425"/>
      <point x="267" y="507"/>
      <point x="216" y="580"/>
      <point x="147" y="655"/>
      <point x="99" y="703" type="qcurve"/>
      <point x="89" y="686" type="line"/>
      <point x="135" y="642"/>
      <point x="217" y="550"/>
      <point x="280" y="446"/>
      <point x="317" y="325"/>
      <point x="317" y="252" type="qcurve" smooth="yes"/>
    </contour>
    <contour>
      <point x="111" y="831" type="line"/>
      <point x="7" y="635" type="line"/>
      <point x="20" y="621" type="line"/>
      <point x="130" y="816" type="line"/>
    </contour>
  </outline>
</glyph>
<glyph name="Omegatonos" format="2">
  <advance width="700"/>
  <unicode hex="038F"/>
  <outline>
    <contour>
      <point x="73" y="0" type="line"/>
      <point x="301" y="0" type="line"/>
      <point x="301" y="101" type="line"/>
      <point x="254" y="114"/>
      <point x="171" y="166"/>
      <point x="109" y="243"/>
      <point x="73" y="345"/>
      <point x="73" y="406" type="qcurve" smooth="yes"/>
      <point x="73" y="468"/>
      <point x="115" y="575"/>
      <point x="189" y="653"/>
      <point x="289" y="697"/>
      <point x="347" y="696" type="qcurve"/>
      <point x="406" y="697"/>
      <point x="507" y="653"/>
      <point x="580" y="575"/>
      <point x="622" y="468"/>
      <point x="621" y="405" type="qcurve"/>
      <point x="622" y="344"/>
      <point x="587" y="243"/>
      <point x="526" y="167"/>
      <point x="441" y="114"/>
      <point x="392" y="101" type="qcurve"/>
      <point x="392" y="0" type="line"/>
      <point x="621" y="0" type="line"/>
      <point x="621" y="21" type="line"/>
      <point x="409" y="21" type="line"/>
      <point x="415" y="10" type="line"/>
      <point x="415" y="93" type="line"/>
      <point x="412" y="84" type="line"/>
      <point x="460" y="100"/>
      <point x="543" y="159"/>
      <point x="606" y="240"/>
      <point x="642" y="344"/>
      <point x="642" y="405" type="qcurve" smooth="yes"/>
      <point x="642" y="471"/>
      <point x="598" y="585"/>
      <point x="519" y="668"/>
      <point x="411" y="716"/>
      <point x="347" y="716" type="qcurve" smooth="yes"/>
      <point x="284" y="716"/>
      <point x="177" y="668"/>
      <point x="99" y="585"/>
      <point x="55" y="471"/>
      <point x="55" y="405" type="qcurve" smooth="yes"/>
      <point x="55" y="343"/>
      <point x="90" y="239"/>
      <point x="152" y="158"/>
      <point x="234" y="100"/>
      <point x="282" y="84" type="qcurve"/>
      <point x="279" y="93" type="line"/>
      <point x="279" y="10" type="line"/>
      <point x="286" y="21" type="line"/>
      <point x="73" y="21" type="line"/>
    </contour>
    <contour>
      <point x="145" y="831" type="line"/>
      <point x="41" y="635" type="line"/>
      <point x="54" y="621" type="line"/>
      <point x="164" y="816" type="line"/>
    </contour>
  </outline>
</glyph>
<glyph name="iotadieresistonos" format="2">
  <advance width="290"/>
  <unicode hex="0390"/>
  <outline>
    <contour>
      <point x="191" y="-8" type="qcurve"/>
      <point x="191" y="-8"/>
      <point x="214" y="-7"/>
      <point x="228" y="-1" type="qcurve"/>
      <point x="217" y="19" type="line"/>
      <point x="207" y="16"/>
      <point x="196" y="12"/>
      <point x="188" y="11" type="qcurve"/>
      <point x="164" y="12"/>
      <point x="148" y="54"/>
      <point x="146" y="110" type="qcurve"/>
      <point x="147" y="135"/>
      <point x="150" y="228"/>
      <point x="153" y="341"/>
      <point x="157" y="462"/>
      <point x="159" y="515" type="qcurve"/>
      <point x="133" y="515" type="line"/>
      <point x="131" y="458"/>
      <point x="129" y="344"/>
      <point x="127" y="232"/>
      <point x="126" y="125"/>
      <point x="126" y="76" type="qcurve" smooth="yes"/>
      <point x="126" y="51"/>
      <point x="137" y="18"/>
      <point x="155" y="-1"/>
      <point x="178" y="-8"/>
    </contour>
    <contour>
      <point x="-4" y="638" type="qcurve" smooth="yes"/>
      <point x="-4" y="623"/>
      <point x="18" y="599"/>
      <point x="35" y="599" type="qcurve" smooth="yes"/>
      <point x="51" y="599"/>
      <point x="70" y="623"/>
      <point x="70" y="638" type="qcurve" smooth="yes"/>
      <point x="70" y="654"/>
      <point x="51" y="673"/>
      <point x="35" y="673" type="qcurve" smooth="yes"/>
      <point x="18" y="673"/>
      <point x="-4" y="654"/>
    </contour>
    <contour>
      <point x="212" y="638" type="qcurve" smooth="yes"/>
      <point x="212" y="623"/>
      <point x="236" y="599"/>
      <point x="251" y="599" type="qcurve" smooth="yes"/>
      <point x="267" y="599"/>
      <point x="287" y="623"/>
      <point x="287" y="638" type="qcurve" smooth="yes"/>
      <point x="287" y="654"/>
      <point x="267" y="673"/>
      <point x="251" y="673" type="qcurve" smooth="yes"/>
      <point x="236" y="673"/>
      <point x="212" y="654"/>
    </contour>
    <contour>
      <point x="148" y="787" type="line"/>
      <point x="124" y="598" type="line"/>
      <point x="148" y="594" type="line"/>
      <point x="169" y="785" type="line"/>
    </contour>
  </outline>
</glyph>
<glyph name="Gamma" format="2">
  <advance width="487"/>
  <unicode hex="0393"/>
  <outline>
    <contour>
      <point x="556" y="708" type="line"/>
      <point x="556" y="688" type="line"/>
      <point x="117" y="688" type="line"/>
      <point x="117" y="10" type="line"/>
      <point x="97" y="10" type="line"/>
      <point x="97" y="708" type="line"/>
    </contour>
  </outline>
</glyph>
<glyph name="Theta" format="2">
  <advance width="757"/>
  <unicode hex="0398"/>
  <outline>
    <contour>
      <point x="129" y="344" type="line"/>
      <point x="606" y="344" type="line"/>
      <point x="606" y="364" type="line"/>
      <point x="129" y="364" type="line"/>
    </contour>
    <contour>
      <point x="373" y="-5" type="qcurve" smooth="yes"/>
      <point x="441" y="-5"/>
      <point x="560" y="53"/>
      <point x="647" y="150"/>
      <point x="697" y="279"/>
      <point x="697" y="349" type="qcurve" smooth="yes"/>
      <point x="697" y="414"/>
      <point x="650" y="541"/>
      <point x="564" y="641"/>
      <point x="445" y="703"/>
      <point x="373" y="703" type="qcurve" smooth="yes"/>
      <point x="304" y="703"/>
      <point x="185" y="645"/>
      <point x="97" y="547"/>
      <point x="47" y="419"/>
      <point x="47" y="349" type="qcurve" smooth="yes"/>
      <point x="47" y="282"/>
      <point x="95" y="155"/>
      <point x="181" y="56"/>
      <point x="300" y="-5"/>
    </contour>
    <contour>
      <point x="67" y="349" type="qcurve" smooth="yes"/>
      <point x="67" y="411"/>
      <point x="111" y="531"/>
      <point x="192" y="625"/>
      <point x="304" y="683"/>
      <point x="373" y="683" type="qcurve" smooth="yes"/>
      <point x="438" y="683"/>
      <point x="549" y="628"/>
      <point x="631" y="535"/>
      <point x="677" y="414"/>
      <point x="677" y="349" type="qcurve" smooth="yes"/>
      <point x="677" y="287"/>
      <point x="633" y="168"/>
      <point x="553" y="73"/>
      <point x="441" y="15"/>
      <point x="373" y="15" type="qcurve" smooth="yes"/>
      <point x="306" y="15"/>
      <point x="194" y="70"/>
      <point x="113" y="163"/>
      <point x="67" y="284"/>
    </contour>
  </outline>
</glyph>
<glyph name="Lambda" format="2">
  <advance width="634"/>
  <unicode hex="039B"/>
  <outline>
    <contour>
      <point x="34" y="0" type="line"/>
      <point x="58" y="0" type="line"/>
      <point x="220" y="425" type="line"/>
      <point x="314" y="680" type="line"/>
      <point x="318" y="680" type="line"/>
      <point x="414" y="425" type="line"/>
      <point x="576" y="0" type="line"/>
      <point x="600" y="0" type="line"/>
      <point x="330" y="708" type="line"/>
      <point x="307" y="708" type="line"/>
    </contour>
  </outline>
</glyph>
<glyph name="Xi" format="2">
  <advance width="602"/>
  <unicode hex="039E"/>
  <outline>
    <contour>
      <point x="77" y="0" type="line"/>
      <point x="522" y="0" type="line"/>
      <point x="522" y="20" type="line"/>
      <point x="77" y="20" type="line"/>
    </contour>
    <contour>
      <point x="143" y="353" type="line"/>
      <point x="455" y="353" type="line"/>
      <point x="455" y="373" type="line"/>
      <point x="143" y="373" type="line"/>
    </contour>
    <contour>
      <point x="77" y="692" type="line"/>
      <point x="522" y="692" type="line"/>
      <point x="522" y="715" type="line"/>
      <point x="77" y="715" type="line"/>
    </contour>
  </outline>
</glyph>
<glyph name="Pi" format="2">
  <advance width="612"/>
  <unicode hex="03A0"/>
  <outline>
    <contour>
      <point x="94" y="0" type="line"/>
      <point x="118" y="0" type="line"/>
      <point x="118" y="692" type="line"/>
      <point x="496" y="692" type="line"/>
      <point x="496" y="0" type="line"/>
      <point x="518" y="0" type="line"/>
      <point x="518" y="715" type="line"/>
      <point x="94" y="715" type="line"/>
    </contour>
  </outline>
</glyph>
<glyph name="Sigma" format="2">
  <advance width="528"/>
  <unicode hex="03A3"/>
  <outline>
    <contour>
      <point x="50" y="0" type="line"/>
      <point x="489" y="0" type="line"/>
      <point x="489" y="20" type="line"/>
      <point x="81" y="20" type="line"/>
      <point x="346" y="364" type="line"/>
      <point x="85" y="692" type="line"/>
      <point x="454" y="692" type="line"/>
      <point x="454" y="715" type="line"/>
      <point x="56" y="715" type="line"/>
      <point x="56" y="703" type="line"/>
      <point x="318" y="365" type="line"/>
      <point x="50" y="12" type="line"/>
    </contour>
  </outline>
</glyph>
<glyph name="Upsilon" format="2">
  <advance width="599"/>
  <unicode hex="03A5"/>
  <outline>
    <contour>
      <point x="289" y="0" type="line"/>
      <point x="307" y="0" type="line"/>
      <point x="307" y="252" type="line"/>
      <point x="308" y="318"/>
      <point x="340" y="433"/>
      <point x="399" y="537"/>
      <point x="484" y="636"/>
      <point x="536" y="686" type="qcurve"/>
      <point x="524" y="703" type="line"/>
      <point x="476" y="654"/>
      <point x="406" y="579"/>
      <point x="354" y="507"/>
      <point x="317" y="425"/>
      <point x="300" y="368" type="qcurve"/>
      <point x="294" y="368" type="line"/>
      <point x="277" y="425"/>
      <point x="239" y="507"/>
      <point x="188" y="580"/>
      <point x="119" y="655"/>
      <point x="71" y="703" type="qcurve"/>
      <point x="61" y="686" type="line"/>
      <point x="107" y="642"/>
      <point x="189" y="550"/>
      <point x="252" y="446"/>
      <point x="289" y="325"/>
      <point x="289" y="252" type="qcurve" smooth="yes"/>
    </contour>
  </outline>
</glyph>
<glyph name="Phi" format="2">
  <advance width="676"/>
  <unicode hex="03A6"/>
  <outline>
    <contour>
      <point x="330" y="108" type="line"/>
      <point x="275" y="108"/>
      <point x="180" y="146"/>
      <point x="111" y="212"/>
      <point x="72" y="303"/>
      <point x="72" y="356" type="qcurve" smooth="yes"/>
      <point x="72" y="410"/>
      <point x="111" y="502"/>
      <point x="180" y="569"/>
      <point x="275" y="607"/>
      <point x="330" y="607" type="qcurve"/>
      <point x="330" y="630" type="line"/>
      <point x="271" y="630"/>
      <point x="169" y="588"/>
      <point x="94" y="514"/>
      <point x="51" y="414"/>
      <point x="51" y="356" type="qcurve" smooth="yes"/>
      <point x="51" y="299"/>
      <point x="94" y="200"/>
      <point x="169" y="127"/>
      <point x="271" y="85"/>
      <point x="330" y="85" type="qcurve"/>
    </contour>
    <contour>
      <point x="350" y="-26" type="line"/>
      <point x="350" y="740" type="line"/>
      <point x="327" y="740" type="line"/>
      <point x="327" y="-26" type="line"/>
    </contour>
    <contour>
      <point x="349" y="85" type="line"/>
      <point x="409" y="85"/>
      <point x="512" y="127"/>
      <point x="587" y="200"/>
      <point x="629" y="299"/>
      <point x="629" y="356" type="qcurve" smooth="yes"/>
      <point x="629" y="414"/>
      <point x="587" y="514"/>
      <point x="512" y="588"/>
      <point x="409" y="630"/>
      <point x="349" y="630" type="qcurve"/>
      <point x="349" y="607" type="line"/>
      <point x="405" y="607"/>
      <point x="499" y="569"/>
      <point x="567" y="502"/>
      <point x="605" y="410"/>
      <point x="604" y="356" type="qcurve"/>
      <point x="605" y="303"/>
      <point x="567" y="212"/>
      <point x="499" y="146"/>
      <point x="405" y="108"/>
      <point x="349" y="108" type="qcurve"/>
    </contour>
  </outline>
</glyph>
<glyph name="Psi" format="2">
  <advance width="674"/>
  <unicode hex="03A8"/>
  <outline>
    <contour>
      <point x="326" y="0" type="line"/>
      <point x="351" y="0" type="line"/>
      <point x="351" y="708" type="line"/>
      <point x="326" y="708" type="line"/>
    </contour>
    <contour>
      <point x="83" y="423" type="line" smooth="yes"/>
      <point x="83" y="365"/>
      <point x="117" y="276"/>
      <point x="182" y="216"/>
      <point x="273" y="185"/>
      <point x="330" y="185" type="qcurve"/>
      <point x="332" y="206" type="line"/>
      <point x="277" y="206"/>
      <point x="192" y="235"/>
      <point x="132" y="291"/>
      <point x="101" y="373"/>
      <point x="100" y="426" type="qcurve"/>
      <point x="101" y="436"/>
      <point x="102" y="473"/>
      <point x="103" y="519"/>
      <point x="104" y="574"/>
      <point x="104" y="602" type="qcurve" smooth="yes"/>
      <point x="104" y="635"/>
      <point x="99" y="684"/>
      <point x="94" y="708" type="qcurve"/>
      <point x="73" y="708" type="line"/>
      <point x="76" y="689"/>
      <point x="80" y="660"/>
      <point x="82" y="633"/>
      <point x="83" y="607"/>
      <point x="83" y="590" type="qcurve" smooth="yes"/>
    </contour>
    <contour>
      <point x="590" y="590" type="line" smooth="yes"/>
      <point x="590" y="606"/>
      <point x="590" y="633"/>
      <point x="592" y="659"/>
      <point x="596" y="689"/>
      <point x="600" y="708" type="qcurve"/>
      <point x="579" y="708" type="line"/>
      <point x="573" y="684"/>
      <point x="571" y="635"/>
      <point x="571" y="602" type="qcurve" smooth="yes"/>
      <point x="571" y="574"/>
      <point x="572" y="519"/>
      <point x="572" y="473"/>
      <point x="573" y="436"/>
      <point x="573" y="426" type="qcurve" smooth="yes"/>
      <point x="573" y="373"/>
      <point x="541" y="291"/>
      <point x="482" y="235"/>
      <point x="397" y="206"/>
      <point x="344" y="206" type="qcurve"/>
      <point x="347" y="185" type="line"/>
      <point x="404" y="185"/>
      <point x="494" y="216"/>
      <point x="557" y="277"/>
      <point x="590" y="366"/>
      <point x="590" y="423" type="qcurve" smooth="yes"/>
    </contour>
  </outline>
</glyph>
<glyph name="Iotadieresis" format="2">
  <advance width="278"/>
  <unicode hex="03AA"/>
  <outline>
    <contour>
      <point x="117" y="0" type="line"/>
      <point x="117" y="698" type="line"/>
      <point x="97" y="698" type="line"/>
      <point x="97" y="0" type="line"/>
    </contour>
    <contour>
      <point x="18" y="865" type="qcurve" smooth="yes"/>
      <point x="18" y="851"/>
      <point x="37" y="832"/>
      <point x="51" y="832" type="qcurve" smooth="yes"/>
      <point x="65" y="832"/>
      <point x="85" y="851"/>
      <point x="85" y="865" type="qcurve" smooth="yes"/>
      <point x="85" y="879"/>
      <point x="65" y="898"/>
      <point x="51" y="898" type="qcurve" smooth="yes"/>
      <point x="37" y="898"/>
      <point x="18" y="879"/>
    </contour>
    <contour>
      <point x="130" y="865" type="qcurve" smooth="yes"/>
      <point x="130" y="851"/>
      <point x="149" y="832"/>
      <point x="163" y="832" type="qcurve" smooth="yes"/>
      <point x="177" y="832"/>
      <point x="197" y="851"/>
      <point x="197" y="865" type="qcurve" smooth="yes"/>
      <point x="197" y="879"/>
      <point x="177" y="898"/>
      <point x="163" y="898" type="qcurve" smooth="yes"/>
      <point x="149" y="898"/>
      <point x="130" y="879"/>
    </contour>
  </outline>
</glyph>
<glyph name="alphatonos" format="2">
  <advance width="640"/>
  <unicode hex="03AC"/>
  <outline>
    <contour>
      <point x="494" y="252" type="line" smooth="yes"/>
      <point x="486" y="223"/>
      <point x="461" y="141"/>
      <point x="414" y="67"/>
      <point x="339" y="14"/>
      <point x="281" y="13" type="qcurve"/>
      <point x="234" y="14"/>
      <point x="159" y="52"/>
      <point x="107" y="118"/>
      <point x="79" y="204"/>
      <point x="79" y="253" type="qcurve" smooth="yes"/>
      <point x="79" y="309"/>
      <point x="106" y="402"/>
      <point x="154" y="470"/>
      <point x="223" y="508"/>
      <point x="266" y="508" type="qcurve" smooth="yes"/>
      <point x="306" y="508"/>
      <point x="365" y="472"/>
      <point x="408" y="414"/>
      <point x="438" y="340"/>
      <point x="458" y="263"/>
      <point x="472" y="192"/>
      <point x="477" y="165" type="qcurve"/>
      <point x="496" y="204" type="line"/>
      <point x="491" y="245"/>
      <point x="468" y="357"/>
      <point x="418" y="458"/>
      <point x="336" y="529"/>
      <point x="272" y="529" type="qcurve" smooth="yes"/>
      <point x="225" y="529"/>
      <point x="147" y="490"/>
      <point x="92" y="418"/>
      <point x="61" y="317"/>
      <point x="61" y="255" type="qcurve" smooth="yes"/>
      <point x="61" y="200"/>
      <point x="92" y="104"/>
      <point x="149" y="33"/>
      <point x="230" y="-8"/>
      <point x="280" y="-8" type="qcurve" smooth="yes"/>
      <point x="319" y="-8"/>
      <point x="386" y="17"/>
      <point x="441" y="66"/>
      <point x="484" y="140"/>
      <point x="498" y="188" type="qcurve" smooth="yes"/>
      <point x="598" y="519" type="line"/>
      <point x="569" y="519" type="line"/>
    </contour>
    <contour>
      <point x="596" y="14" type="line"/>
      <point x="567" y="28" type="line"/>
      <point x="554" y="36"/>
      <point x="530" y="62"/>
      <point x="511" y="98"/>
      <point x="496" y="142"/>
      <point x="493" y="167" type="qcurve"/>
      <point x="469" y="154" type="line"/>
      <point x="472" y="132"/>
      <point x="490" y="89"/>
      <point x="514" y="50"/>
      <point x="545" y="18"/>
      <point x="562" y="7" type="qcurve"/>
      <point x="590" y="-8" type="line"/>
    </contour>
    <contour>
      <point x="298" y="775" type="line"/>
      <point x="274" y="584" type="line"/>
      <point x="298" y="580" type="line"/>
      <point x="319" y="773" type="line"/>
    </contour>
  </outline>
</glyph>
<glyph name="etatonos" format="2">
  <advance width="542"/>
  <unicode hex="03AE"/>
  <outline>
    <contour>
      <point x="114" y="0" type="line"/>
      <point x="125" y="95"/>
      <point x="135" y="269"/>
      <point x="135" y="348" type="qcurve" smooth="yes"/>
      <point x="135" y="377"/>
      <point x="133" y="429"/>
      <point x="120" y="474"/>
      <point x="92" y="513"/>
      <point x="67" y="529" type="qcurve"/>
      <point x="56" y="509" type="line"/>
      <point x="70" y="502"/>
      <point x="91" y="485"/>
      <point x="106" y="449"/>
      <point x="113" y="386"/>
      <point x="112" y="334" type="qcurve"/>
      <point x="114" y="265"/>
      <point x="102" y="90"/>
      <point x="91" y="0" type="qcurve"/>
    </contour>
    <contour>
      <point x="409" y="-210" type="line"/>
      <point x="420" y="-176"/>
      <point x="442" y="-67"/>
      <point x="460" y="60"/>
      <point x="470" y="194"/>
      <point x="470" y="252" type="qcurve"/>
      <point x="471" y="395"/>
      <point x="399" y="529"/>
      <point x="319" y="529" type="qcurve" smooth="yes"/>
      <point x="279" y="529"/>
      <point x="216" y="499"/>
      <point x="168" y="449"/>
      <point x="135" y="387"/>
      <point x="124" y="355" type="qcurve"/>
      <point x="129" y="229" type="line"/>
      <point x="129" y="274"/>
      <point x="153" y="372"/>
      <point x="202" y="454"/>
      <point x="275" y="507"/>
      <point x="322" y="507" type="qcurve" smooth="yes"/>
      <point x="389" y="507"/>
      <point x="449" y="381"/>
      <point x="449" y="243" type="qcurve" smooth="yes"/>
      <point x="449" y="198"/>
      <point x="442" y="91"/>
      <point x="428" y="-26"/>
      <point x="406" y="-147"/>
      <point x="390" y="-205" type="qcurve"/>
    </contour>
    <contour>
      <point x="313" y="775" type="line"/>
      <point x="289" y="584" type="line"/>
      <point x="313" y="580" type="line"/>
      <point x="334" y="773" type="line"/>
    </contour>
  </outline>
</glyph>
<glyph name="iotatonos" format="2">
  <advance width="242"/>
  <unicode hex="03AF"/>
  <outline>
    <contour>
      <point x="157" y="-8" type="qcurve"/>
      <point x="158" y="-8"/>
      <point x="181" y="-7"/>
      <point x="195" y="-1" type="qcurve"/>
      <point x="184" y="19" type="line"/>
      <point x="173" y="16"/>
      <point x="162" y="13"/>
      <point x="154" y="11" type="qcurve"/>
      <point x="130" y="13"/>
      <point x="114" y="54"/>
      <point x="112" y="111" type="qcurve"/>
      <point x="113" y="136"/>
      <point x="116" y="230"/>
      <point x="119" y="344"/>
      <point x="123" y="466"/>
      <point x="125" y="519" type="qcurve"/>
      <point x="99" y="519" type="line"/>
      <point x="97" y="462"/>
      <point x="94" y="347"/>
      <point x="93" y="234"/>
      <point x="92" y="126"/>
      <point x="92" y="77" type="qcurve" smooth="yes"/>
      <point x="92" y="52"/>
      <point x="103" y="19"/>
      <point x="121" y="-1"/>
      <point x="145" y="-8"/>
    </contour>
    <contour>
      <point x="118" y="773" type="line"/>
      <point x="94" y="582" type="line"/>
      <point x="118" y="578" type="line"/>
      <point x="139" y="771" type="line"/>
    </contour>
  </outline>
</glyph>
<glyph name="upsilondieresistonos" format="2">
  <advance width="524"/>
  <unicode hex="03B0"/>
  <outline>
    <contour>
      <point x="83" y="162" type="qcurve" smooth="yes"/>
      <point x="83" y="112"/>
      <point x="117" y="46"/>
      <point x="171" y="7"/>
      <point x="236" y="-8"/>
      <point x="267" y="-8" type="qcurve" smooth="yes"/>
      <point x="307" y="-8"/>
      <point x="377" y="20"/>
      <point x="428" y="84"/>
      <point x="458" y="189"/>
      <point x="458" y="267" type="qcurve" smooth="yes"/>
      <point x="458" y="287"/>
      <point x="455" y="345"/>
      <point x="449" y="414"/>
      <point x="439" y="486"/>
      <point x="431" y="519" type="qcurve"/>
      <point x="409" y="519" type="line"/>
      <point x="417" y="485"/>
      <point x="429" y="413"/>
      <point x="436" y="346"/>
      <point x="439" y="289"/>
      <point x="439" y="269" type="qcurve" smooth="yes"/>
      <point x="439" y="136"/>
      <point x="350" y="16"/>
      <point x="269" y="14" type="qcurve"/>
      <point x="238" y="15"/>
      <point x="179" y="31"/>
      <point x="133" y="65"/>
      <point x="104" y="120"/>
      <point x="103" y="160" type="qcurve"/>
      <point x="104" y="172"/>
      <point x="107" y="215"/>
      <point x="110" y="264"/>
      <point x="112" y="313"/>
      <point x="112" y="331" type="qcurve" smooth="yes"/>
      <point x="112" y="354"/>
      <point x="109" y="399"/>
      <point x="102" y="445"/>
      <point x="92" y="493"/>
      <point x="84" y="519" type="qcurve"/>
      <point x="65" y="519" type="line"/>
      <point x="79" y="460"/>
      <point x="89" y="363"/>
      <point x="89" y="322" type="qcurve" smooth="yes"/>
      <point x="89" y="301"/>
      <point x="87" y="256"/>
      <point x="85" y="212"/>
      <point x="83" y="174"/>
    </contour>
    <contour>
      <point x="90" y="645" type="qcurve" smooth="yes"/>
      <point x="90" y="630"/>
      <point x="113" y="606"/>
      <point x="130" y="606" type="qcurve" smooth="yes"/>
      <point x="146" y="606"/>
      <point x="166" y="630"/>
      <point x="166" y="645" type="qcurve" smooth="yes"/>
      <point x="166" y="662"/>
      <point x="146" y="681"/>
      <point x="130" y="681" type="qcurve" smooth="yes"/>
      <point x="113" y="681"/>
      <point x="90" y="662"/>
    </contour>
    <contour>
      <point x="311" y="645" type="qcurve" smooth="yes"/>
      <point x="311" y="630"/>
      <point x="335" y="606"/>
      <point x="351" y="606" type="qcurve" smooth="yes"/>
      <point x="368" y="606"/>
      <point x="387" y="630"/>
      <point x="387" y="645" type="qcurve" smooth="yes"/>
      <point x="387" y="662"/>
      <point x="368" y="681"/>
      <point x="351" y="681" type="qcurve" smooth="yes"/>
      <point x="335" y="681"/>
      <point x="311" y="662"/>
    </contour>
    <contour>
      <point x="245" y="796" type="line"/>
      <point x="221" y="605" type="line"/>
      <point x="245" y="601" type="line"/>
      <point x="266" y="794" type="line"/>
    </contour>
  </outline>
</glyph>
<glyph name="beta" format="2">
  <advance width="626"/>
  <unicode hex="03B2"/>
  <outline>
    <contour>
      <point x="114" y="83" type="line"/>
      <point x="140" y="58"/>
      <point x="196" y="23"/>
      <point x="252" y="1"/>
      <point x="306" y="-8"/>
      <point x="330" y="-8" type="qcurve" smooth="yes"/>
      <point x="378" y="-8"/>
      <point x="461" y="29"/>
      <point x="523" y="91"/>
      <point x="559" y="173"/>
      <point x="558" y="219" type="qcurve"/>
      <point x="559" y="261"/>
      <point x="529" y="337"/>
      <point x="473" y="394"/>
      <point x="393" y="431"/>
      <point x="342" y="434" type="qcurve"/>
      <point x="342" y="438" type="line"/>
      <point x="370" y="455"/>
      <point x="416" y="492"/>
      <point x="449" y="535"/>
      <point x="467" y="584"/>
      <point x="467" y="612" type="qcurve" smooth="yes"/>
      <point x="467" y="642"/>
      <point x="446" y="699"/>
      <point x="402" y="744"/>
      <point x="334" y="772"/>
      <point x="288" y="771" type="qcurve"/>
      <point x="230" y="772"/>
      <point x="156" y="729"/>
      <point x="112" y="653"/>
      <point x="95" y="549"/>
      <point x="95" y="489" type="qcurve" smooth="yes"/>
      <point x="95" y="-209" type="line"/>
      <point x="118" y="-209" type="line"/>
      <point x="119" y="-143"/>
      <point x="119" y="14"/>
      <point x="120" y="84" type="qcurve"/>
      <point x="120" y="93" type="line" smooth="yes"/>
      <point x="120" y="128"/>
      <point x="119" y="204"/>
      <point x="119" y="295"/>
      <point x="119" y="406"/>
      <point x="119" y="476" type="qcurve" smooth="yes"/>
      <point x="119" y="538"/>
      <point x="135" y="638"/>
      <point x="174" y="709"/>
      <point x="240" y="748"/>
      <point x="291" y="748" type="qcurve" smooth="yes"/>
      <point x="330" y="748"/>
      <point x="388" y="725"/>
      <point x="425" y="687"/>
      <point x="443" y="640"/>
      <point x="443" y="617" type="qcurve" smooth="yes"/>
      <point x="443" y="589"/>
      <point x="419" y="532"/>
      <point x="368" y="480"/>
      <point x="289" y="438"/>
      <point x="235" y="425" type="qcurve"/>
      <point x="235" y="402" type="line"/>
      <point x="237" y="403"/>
      <point x="254" y="405"/>
      <point x="280" y="408"/>
      <point x="309" y="409"/>
      <point x="321" y="408" type="qcurve"/>
      <point x="371" y="409"/>
      <point x="450" y="379"/>
      <point x="506" y="328"/>
      <point x="536" y="258"/>
      <point x="536" y="218" type="qcurve" smooth="yes"/>
      <point x="536" y="175"/>
      <point x="503" y="101"/>
      <point x="447" y="45"/>
      <point x="372" y="13"/>
      <point x="330" y="12" type="qcurve"/>
      <point x="309" y="13"/>
      <point x="256" y="23"/>
      <point x="200" y="46"/>
      <point x="142" y="85"/>
      <point x="116" y="114" type="qcurve"/>
    </contour>
  </outline>
</glyph>
<glyph name="gamma" format="2">
  <advance width="488"/>
  <unicode hex="03B3"/>
  <outline>
    <contour>
      <point x="189" y="-209" type="line"/>
      <point x="207" y="-94"/>
      <point x="227" y="116"/>
      <point x="207" y="302"/>
      <point x="134" y="462"/>
      <point x="58" y="528" type="qcurve"/>
      <point x="43" y="516" type="line"/>
      <point x="92" y="476"/>
      <point x="154" y="377"/>
      <point x="190" y="264"/>
      <point x="201" y="138"/>
      <point x="196" y="4"/>
      <point x="177" y="-137"/>
      <point x="165" y="-209" type="qcurve"/>
    </contour>
    <contour>
      <point x="190" y="2" type="line"/>
      <point x="245" y="78"/>
      <point x="331" y="213"/>
      <point x="394" y="338"/>
      <point x="438" y="458"/>
      <point x="451" y="519" type="qcurve"/>
      <point x="428" y="519" type="line"/>
      <point x="418" y="461"/>
      <point x="370" y="339"/>
      <point x="306" y="219"/>
      <point x="232" y="104"/>
      <point x="197" y="51" type="qcurve"/>
    </contour>
  </outline>
</glyph>
<glyph name="delta" format="2">
  <advance width="617"/>
  <unicode hex="03B4"/>
  <outline>
    <contour>
      <point x="291" y="-8" type="qcurve" smooth="yes"/>
      <point x="345" y="-8"/>
      <point x="435" y="32"/>
      <point x="500" y="103"/>
      <point x="536" y="198"/>
      <point x="536" y="253" type="qcurve" smooth="yes"/>
      <point x="536" y="312"/>
      <point x="500" y="400"/>
      <point x="441" y="468"/>
      <point x="364" y="521"/>
      <point x="324" y="545" type="qcurve"/>
      <point x="297" y="565"/>
      <point x="247" y="599"/>
      <point x="209" y="633"/>
      <point x="186" y="669"/>
      <point x="186" y="690" type="qcurve" smooth="yes"/>
      <point x="186" y="722"/>
      <point x="235" y="755"/>
      <point x="280" y="755" type="qcurve" smooth="yes"/>
      <point x="313" y="755"/>
      <point x="392" y="738"/>
      <point x="468" y="711"/>
      <point x="532" y="677"/>
      <point x="550" y="659" type="qcurve"/>
      <point x="569" y="670" type="line"/>
      <point x="549" y="690"/>
      <point x="481" y="727"/>
      <point x="402" y="757"/>
      <point x="319" y="775"/>
      <point x="284" y="774" type="qcurve"/>
      <point x="227" y="776"/>
      <point x="165" y="726"/>
      <point x="165" y="688" type="qcurve" smooth="yes"/>
      <point x="165" y="663"/>
      <point x="191" y="619"/>
      <point x="232" y="580"/>
      <point x="285" y="545"/>
      <point x="312" y="527" type="qcurve"/>
      <point x="347" y="506"/>
      <point x="420" y="456"/>
      <point x="480" y="390"/>
      <point x="518" y="305"/>
      <point x="518" y="249" type="qcurve" smooth="yes"/>
      <point x="518" y="200"/>
      <point x="483" y="115"/>
      <point x="423" y="52"/>
      <point x="340" y="16"/>
      <point x="291" y="15" type="qcurve"/>
      <point x="243" y="16"/>
      <point x="160" y="51"/>
      <point x="100" y="113"/>
      <point x="66" y="197"/>
      <point x="66" y="246" type="qcurve" smooth="yes"/>
      <point x="66" y="299"/>
      <point x="103" y="387"/>
      <point x="165" y="450"/>
      <point x="246" y="484"/>
      <point x="291" y="483" type="qcurve"/>
      <point x="335" y="485"/>
      <point x="410" y="457"/>
      <point x="446" y="432" type="qcurve"/>
      <point x="423" y="471" type="line"/>
      <point x="393" y="491"/>
      <point x="326" y="511"/>
      <point x="295" y="510" type="qcurve"/>
      <point x="246" y="510"/>
      <point x="156" y="473"/>
      <point x="87" y="404"/>
      <point x="47" y="306"/>
      <point x="47" y="246" type="qcurve" smooth="yes"/>
      <point x="47" y="193"/>
      <point x="84" y="100"/>
      <point x="150" y="31"/>
      <point x="239" y="-8"/>
    </contour>
  </outline>
</glyph>
<glyph name="epsilon" format="2">
  <advance width="462"/>
  <unicode hex="03B5"/>
  <outline>
    <contour>
      <point x="407" y="34" type="line"/>
      <point x="384" y="26"/>
      <point x="307" y="15"/>
      <point x="274" y="13" type="qcurve"/>
      <point x="191" y="15"/>
      <point x="92" y="78"/>
      <point x="90" y="135" type="qcurve"/>
      <point x="91" y="166"/>
      <point x="124" y="214"/>
      <point x="180" y="245"/>
      <point x="256" y="261"/>
      <point x="299" y="260" type="qcurve"/>
      <point x="341" y="260" type="line"/>
      <point x="341" y="284" type="line"/>
      <point x="285" y="284" type="line" smooth="yes"/>
      <point x="249" y="284"/>
      <point x="187" y="302"/>
      <point x="141" y="333"/>
      <point x="115" y="376"/>
      <point x="115" y="401" type="qcurve" smooth="yes"/>
      <point x="115" y="419"/>
      <point x="131" y="457"/>
      <point x="165" y="489"/>
      <point x="221" y="509"/>
      <point x="260" y="509" type="qcurve" smooth="yes"/>
      <point x="277" y="509"/>
      <point x="317" y="506"/>
      <point x="355" y="500"/>
      <point x="388" y="491"/>
      <point x="398" y="485" type="qcurve"/>
      <point x="405" y="508" type="line"/>
      <point x="394" y="512"/>
      <point x="361" y="519"/>
      <point x="324" y="525"/>
      <point x="286" y="529"/>
      <point x="269" y="529" type="qcurve" smooth="yes"/>
      <point x="222" y="529"/>
      <point x="155" y="507"/>
      <point x="113" y="472"/>
      <point x="93" y="427"/>
      <point x="93" y="403" type="qcurve" smooth="yes"/>
      <point x="93" y="382"/>
      <point x="110" y="341"/>
      <point x="141" y="307"/>
      <point x="183" y="281"/>
      <point x="208" y="276" type="qcurve"/>
      <point x="208" y="274" type="line"/>
      <point x="177" y="267"/>
      <point x="126" y="241"/>
      <point x="90" y="206"/>
      <point x="70" y="161"/>
      <point x="70" y="135" type="qcurve" smooth="yes"/>
      <point x="70" y="104"/>
      <point x="100" y="51"/>
      <point x="154" y="13"/>
      <point x="232" y="-8"/>
      <point x="280" y="-8" type="qcurve" smooth="yes"/>
      <point x="300" y="-8"/>
      <point x="336" y="-5"/>
      <point x="369" y="0"/>
      <point x="397" y="5"/>
      <point x="409" y="7" type="qcurve"/>
    </contour>
  </outline>
</glyph>
<glyph name="zeta" format="2">
  <advance width="492"/>
  <unicode hex="03B6"/>
  <outline>
    <contour>
      <point x="338" y="-145" type="qcurve" smooth="yes"/>
      <point x="368" y="-145"/>
      <point x="418" y="-130"/>
      <point x="455" y="-105"/>
      <point x="475" y="-71"/>
      <point x="474" y="-52" type="qcurve"/>
      <point x="475" y="-36"/>
      <point x="461" y="-8"/>
      <point x="435" y="12"/>
      <point x="399" y="22"/>
      <point x="377" y="21" type="qcurve"/>
      <point x="352" y="23"/>
      <point x="296" y="12"/>
      <point x="253" y="10" type="qcurve"/>
      <point x="224" y="11"/>
      <point x="170" y="24"/>
      <point x="128" y="60"/>
      <point x="102" y="124"/>
      <point x="101" y="175" type="qcurve"/>
      <point x="102" y="217"/>
      <point x="119" y="307"/>
      <point x="153" y="401"/>
      <point x="204" y="495"/>
      <point x="272" y="586"/>
      <point x="359" y="673"/>
      <point x="412" y="711" type="qcurve"/>
      <point x="412" y="732" type="line"/>
      <point x="242" y="732" type="line" smooth="yes"/>
      <point x="223" y="732"/>
      <point x="201" y="737"/>
      <point x="190" y="746"/>
      <point x="186" y="758"/>
      <point x="185" y="764" type="qcurve"/>
      <point x="187" y="768"/>
      <point x="192" y="787"/>
      <point x="197" y="791" type="qcurve"/>
      <point x="172" y="802" type="line"/>
      <point x="165" y="791"/>
      <point x="162" y="774"/>
      <point x="162" y="766" type="qcurve" smooth="yes"/>
      <point x="162" y="740"/>
      <point x="197" y="708"/>
      <point x="244" y="706" type="qcurve"/>
      <point x="375" y="706" type="line"/>
      <point x="374" y="715" type="line"/>
      <point x="335" y="690"/>
      <point x="233" y="580"/>
      <point x="142" y="434"/>
      <point x="79" y="264"/>
      <point x="79" y="177" type="qcurve" smooth="yes"/>
      <point x="79" y="111"/>
      <point x="117" y="37"/>
      <point x="172" y="0"/>
      <point x="233" y="-8"/>
      <point x="257" y="-8" type="qcurve" smooth="yes"/>
      <point x="280" y="-8"/>
      <point x="315" y="-6"/>
      <point x="344" y="-3"/>
      <point x="367" y="0"/>
      <point x="377" y="0" type="qcurve" smooth="yes"/>
      <point x="413" y="0"/>
      <point x="453" y="-30"/>
      <point x="453" y="-53" type="qcurve" smooth="yes"/>
      <point x="453" y="-68"/>
      <point x="435" y="-95"/>
      <point x="404" y="-115"/>
      <point x="361" y="-127"/>
      <point x="337" y="-127" type="qcurve" smooth="yes"/>
      <point x="317" y="-127"/>
      <point x="266" y="-118"/>
      <point x="240" y="-109" type="qcurve"/>
      <point x="240" y="-133" type="line"/>
      <point x="271" y="-139"/>
      <point x="321" y="-145"/>
    </contour>
  </outline>
</glyph>
<glyph name="theta" format="2">
  <advance width="620"/>
  <unicode hex="03B8"/>
  <outline>
    <contour>
      <point x="312" y="-8" type="qcurve" smooth="yes"/>
      <point x="362" y="-8"/>
      <point x="447" y="51"/>
      <point x="508" y="156"/>
      <point x="543" y="299"/>
      <point x="543" y="383" type="qcurve" smooth="yes"/>
      <point x="543" y="470"/>
      <point x="509" y="614"/>
      <point x="447" y="716"/>
      <point x="362" y="772"/>
      <point x="312" y="771" type="qcurve"/>
      <point x="263" y="772"/>
      <point x="177" y="713"/>
      <point x="113" y="609"/>
      <point x="77" y="466"/>
      <point x="77" y="383" type="qcurve" smooth="yes"/>
      <point x="77" y="291"/>
      <point x="114" y="146"/>
      <point x="177" y="45"/>
      <point x="263" y="-8"/>
    </contour>
    <contour>
      <point x="307" y="12" type="qcurve"/>
      <point x="258" y="13"/>
      <point x="182" y="72"/>
      <point x="129" y="171"/>
      <point x="100" y="301"/>
      <point x="99" y="371" type="qcurve"/>
      <point x="100" y="456"/>
      <point x="136" y="595"/>
      <point x="196" y="694"/>
      <point x="273" y="749"/>
      <point x="315" y="749" type="qcurve" smooth="yes"/>
      <point x="364" y="749"/>
      <point x="440" y="692"/>
      <point x="493" y="595"/>
      <point x="521" y="465"/>
      <point x="521" y="392" type="qcurve" smooth="yes"/>
      <point x="521" y="308"/>
      <point x="487" y="168"/>
      <point x="428" y="68"/>
      <point x="351" y="13"/>
    </contour>
    <contour>
      <point x="532" y="375" type="line"/>
      <point x="532" y="395" type="line"/>
      <point x="90" y="395" type="line"/>
      <point x="90" y="375" type="line"/>
    </contour>
  </outline>
</glyph>
<glyph name="iota" format="2">
  <advance width="245"/>
  <unicode hex="03B9"/>
  <outline>
    <contour>
      <point x="157" y="-8" type="qcurve"/>
      <point x="158" y="-8"/>
      <point x="181" y="-7"/>
      <point x="195" y="-1" type="qcurve"/>
      <point x="184" y="19" type="line"/>
      <point x="173" y="16"/>
      <point x="162" y="13"/>
      <point x="154" y="11" type="qcurve"/>
      <point x="130" y="13"/>
      <point x="114" y="54"/>
      <point x="112" y="111" type="qcurve"/>
      <point x="113" y="136"/>
      <point x="116" y="230"/>
      <point x="119" y="344"/>
      <point x="123" y="466"/>
      <point x="125" y="519" type="qcurve"/>
      <point x="99" y="519" type="line"/>
      <point x="97" y="462"/>
      <point x="94" y="347"/>
      <point x="93" y="234"/>
      <point x="92" y="126"/>
      <point x="92" y="77" type="qcurve" smooth="yes"/>
      <point x="92" y="52"/>
      <point x="103" y="19"/>
      <point x="121" y="-1"/>
      <point x="145" y="-8"/>
    </contour>
  </outline>
</glyph>
<glyph name="kappa" format="2">
  <advance width="541"/>
  <unicode hex="03BA"/>
  <outline>
    <contour>
      <point x="95" y="-2" type="line"/>
      <point x="123" y="107"/>
      <point x="218" y="284"/>
      <point x="330" y="416"/>
      <point x="447" y="497"/>
      <point x="498" y="510" type="qcurve"/>
      <point x="498" y="529" type="line"/>
      <point x="458" y="522"/>
      <point x="354" y="463"/>
      <point x="249" y="362"/>
      <point x="153" y="222"/>
      <point x="120" y="132" type="qcurve"/>
      <point x="119" y="131" type="line"/>
      <point x="129" y="197"/>
      <point x="136" y="306"/>
      <point x="136" y="347" type="qcurve" smooth="yes"/>
      <point x="136" y="395"/>
      <point x="125" y="458"/>
      <point x="106" y="498"/>
      <point x="79" y="521"/>
      <point x="64" y="529" type="qcurve"/>
      <point x="53" y="509" type="line"/>
      <point x="89" y="493"/>
      <point x="111" y="420"/>
      <point x="109" y="349" type="qcurve"/>
      <point x="111" y="260"/>
      <point x="90" y="83"/>
      <point x="74" y="-2" type="qcurve"/>
    </contour>
    <contour>
      <point x="480" y="13" type="line"/>
      <point x="440" y="39"/>
      <point x="371" y="114"/>
      <point x="316" y="202"/>
      <point x="275" y="295"/>
      <point x="261" y="338" type="qcurve"/>
      <point x="236" y="316" type="line"/>
      <point x="252" y="274"/>
      <point x="303" y="178"/>
      <point x="365" y="88"/>
      <point x="434" y="13"/>
      <point x="468" y="-8" type="qcurve"/>
    </contour>
  </outline>
</glyph>
<glyph name="lambda" format="2">
  <advance width="595"/>
  <unicode hex="03BB"/>
  <outline>
    <contour>
      <point x="520" y="-8" type="qcurve" smooth="yes"/>
      <point x="528" y="-8"/>
      <point x="554" y="-1"/>
      <point x="559" y="1" type="qcurve"/>
      <point x="549" y="21" type="line"/>
      <point x="538" y="18"/>
      <point x="523" y="15"/>
      <point x="518" y="13" type="qcurve"/>
      <point x="508" y="14"/>
      <point x="485" y="29"/>
      <point x="458" y="71"/>
      <point x="424" y="148"/>
      <point x="402" y="212" type="qcurve" smooth="yes"/>
      <point x="293" y="535" type="line" smooth="yes"/>
      <point x="277" y="584"/>
      <point x="245" y="670"/>
      <point x="208" y="735"/>
      <point x="161" y="772"/>
      <point x="128" y="771" type="qcurve"/>
      <point x="107" y="773"/>
      <point x="72" y="759"/>
      <point x="62" y="753" type="qcurve"/>
      <point x="72" y="735" type="line"/>
      <point x="81" y="741"/>
      <point x="111" y="751"/>
      <point x="127" y="751" type="qcurve" smooth="yes"/>
      <point x="153" y="751"/>
      <point x="191" y="722"/>
      <point x="221" y="668"/>
      <point x="247" y="591"/>
      <point x="262" y="543" type="qcurve"/>
      <point x="275" y="518" type="line"/>
      <point x="274" y="536" type="line"/>
      <point x="21" y="0" type="line"/>
      <point x="49" y="0" type="line"/>
      <point x="280" y="499" type="line"/>
      <point x="284" y="499" type="line"/>
      <point x="380" y="214" type="line"/>
      <point x="402" y="153"/>
      <point x="435" y="68"/>
      <point x="467" y="15"/>
      <point x="499" y="-8"/>
    </contour>
  </outline>
</glyph>
<glyph name="uni03BC" format="2">
  <advance width="573"/>
  <unicode hex="03BC"/>
  <outline>
    <contour>
      <point x="122" y="-206" type="line"/>
      <point x="120" y="-172"/>
      <point x="117" y="-94"/>
      <point x="116" y="-16"/>
      <point x="116" y="60"/>
      <point x="116" y="94" type="qcurve"/>
      <point x="112" y="81" type="line"/>
      <point x="131" y="33"/>
      <point x="204" y="-8"/>
      <point x="255" y="-8" type="qcurve" smooth="yes"/>
      <point x="295" y="-8"/>
      <point x="359" y="13"/>
      <point x="409" y="49"/>
      <point x="445" y="96"/>
      <point x="456" y="122" type="qcurve"/>
      <point x="452" y="155" type="line"/>
      <point x="441" y="129"/>
      <point x="405" y="79"/>
      <point x="355" y="39"/>
      <point x="292" y="14"/>
      <point x="253" y="13" type="qcurve"/>
      <point x="200" y="14"/>
      <point x="143" y="67"/>
      <point x="117" y="142"/>
      <point x="113" y="226"/>
      <point x="113" y="259" type="qcurve" smooth="yes"/>
      <point x="113" y="519" type="line"/>
      <point x="88" y="519" type="line"/>
      <point x="88" y="279" type="line" smooth="yes"/>
      <point x="88" y="219"/>
      <point x="88" y="97"/>
      <point x="90" y="-27"/>
      <point x="92" y="-149"/>
      <point x="95" y="-209" type="qcurve"/>
    </contour>
    <contour>
      <point x="522" y="13" type="line"/>
      <point x="516" y="16" type="line"/>
      <point x="498" y="28"/>
      <point x="471" y="74"/>
      <point x="471" y="109" type="qcurve" smooth="yes"/>
      <point x="471" y="519" type="line"/>
      <point x="450" y="519" type="line"/>
      <point x="450" y="146" type="line"/>
      <point x="448" y="109" type="line"/>
      <point x="447" y="66"/>
      <point x="477" y="12"/>
      <point x="502" y="-2" type="qcurve"/>
      <point x="511" y="-8" type="line"/>
    </contour>
  </outline>
</glyph>
<glyph name="nu" format="2">
  <advance width="477"/>
  <unicode hex="03BD"/>
  <outline>
    <contour>
      <point x="243" y="0" type="line"/>
      <point x="285" y="77"/>
      <point x="351" y="212"/>
      <point x="400" y="337"/>
      <point x="432" y="457"/>
      <point x="440" y="519" type="qcurve"/>
      <point x="415" y="519" type="line"/>
      <point x="411" y="461"/>
      <point x="377" y="342"/>
      <point x="328" y="219"/>
      <point x="265" y="91"/>
      <point x="231" y="22" type="qcurve"/>
    </contour>
    <contour>
      <point x="243" y="0" type="line"/>
      <point x="225" y="93"/>
      <point x="177" y="252"/>
      <point x="125" y="382"/>
      <point x="71" y="483"/>
      <point x="47" y="519" type="qcurve"/>
      <point x="17" y="519" type="line"/>
      <point x="48" y="482"/>
      <point x="108" y="366"/>
      <point x="162" y="227"/>
      <point x="206" y="74"/>
      <point x="221" y="0" type="qcurve"/>
    </contour>
  </outline>
</glyph>
<glyph name="xi" format="2">
  <advance width="480"/>
  <unicode hex="03BE"/>
  <outline>
    <contour>
      <point x="348" y="-145" type="qcurve" smooth="yes"/>
      <point x="376" y="-145"/>
      <point x="426" y="-130"/>
      <point x="462" y="-105"/>
      <point x="483" y="-71"/>
      <point x="482" y="-52" type="qcurve"/>
      <point x="483" y="-36"/>
      <point x="469" y="-8"/>
      <point x="443" y="12"/>
      <point x="406" y="22"/>
      <point x="384" y="21" type="qcurve"/>
      <point x="372" y="22"/>
      <point x="347" y="20"/>
      <point x="319" y="16"/>
      <point x="289" y="11"/>
      <point x="273" y="10" type="qcurve"/>
      <point x="228" y="11"/>
      <point x="151" y="41"/>
      <point x="96" y="91"/>
      <point x="65" y="157"/>
      <point x="65" y="194" type="qcurve" smooth="yes"/>
      <point x="65" y="236"/>
      <point x="105" y="307"/>
      <point x="176" y="358"/>
      <point x="272" y="386"/>
      <point x="328" y="386" type="qcurve" smooth="yes"/>
      <point x="343" y="386" type="line"/>
      <point x="343" y="403" type="line"/>
      <point x="304" y="403" type="line"/>
      <point x="263" y="404"/>
      <point x="193" y="429"/>
      <point x="141" y="471"/>
      <point x="112" y="528"/>
      <point x="113" y="560" type="qcurve" smooth="yes"/>
      <point x="114" y="594"/>
      <point x="146" y="651"/>
      <point x="200" y="691"/>
      <point x="272" y="713"/>
      <point x="312" y="711" type="qcurve"/>
      <point x="349" y="713"/>
      <point x="413" y="708"/>
      <point x="447" y="705" type="qcurve"/>
      <point x="449" y="732" type="line"/>
      <point x="228" y="732" type="line" smooth="yes"/>
      <point x="208" y="732"/>
      <point x="185" y="737"/>
      <point x="173" y="746"/>
      <point x="169" y="758"/>
      <point x="168" y="764" type="qcurve"/>
      <point x="170" y="768"/>
      <point x="176" y="787"/>
      <point x="178" y="791" type="qcurve"/>
      <point x="158" y="802" type="line"/>
      <point x="151" y="791"/>
      <point x="148" y="774"/>
      <point x="148" y="766" type="qcurve" smooth="yes"/>
      <point x="148" y="740"/>
      <point x="182" y="707"/>
      <point x="230" y="705" type="qcurve"/>
      <point x="293" y="728" type="line"/>
      <point x="250" y="728"/>
      <point x="174" y="703"/>
      <point x="118" y="658"/>
      <point x="86" y="594"/>
      <point x="86" y="555" type="qcurve" smooth="yes"/>
      <point x="86" y="518"/>
      <point x="118" y="454"/>
      <point x="173" y="408"/>
      <point x="249" y="384"/>
      <point x="293" y="387" type="qcurve"/>
      <point x="293" y="400" type="line"/>
      <point x="241" y="403"/>
      <point x="150" y="376"/>
      <point x="83" y="324"/>
      <point x="44" y="249"/>
      <point x="44" y="202" type="qcurve" smooth="yes"/>
      <point x="44" y="157"/>
      <point x="79" y="80"/>
      <point x="141" y="24"/>
      <point x="226" y="-8"/>
      <point x="276" y="-8" type="qcurve" smooth="yes"/>
      <point x="305" y="-8"/>
      <point x="368" y="0"/>
      <point x="387" y="0" type="qcurve" smooth="yes"/>
      <point x="421" y="0"/>
      <point x="460" y="-30"/>
      <point x="460" y="-53" type="qcurve" smooth="yes"/>
      <point x="460" y="-83"/>
      <point x="396" y="-127"/>
      <point x="347" y="-127" type="qcurve" smooth="yes"/>
      <point x="325" y="-127"/>
      <point x="273" y="-118"/>
      <point x="247" y="-109" type="qcurve"/>
      <point x="247" y="-133" type="line"/>
      <point x="278" y="-139"/>
      <point x="328" y="-145"/>
    </contour>
  </outline>
</glyph>
<glyph name="pi" format="2">
  <advance width="600"/>
  <unicode hex="03C0"/>
  <outline>
    <contour>
      <point x="194" y="507" type="line"/>
      <point x="194" y="436"/>
      <point x="186" y="308"/>
      <point x="169" y="186"/>
      <point x="146" y="65"/>
      <point x="132" y="0" type="qcurve"/>
      <point x="151" y="0" type="line"/>
      <point x="167" y="67"/>
      <point x="192" y="194"/>
      <point x="208" y="318"/>
      <point x="216" y="443"/>
      <point x="214" y="507" type="qcurve"/>
    </contour>
    <contour>
      <point x="58" y="433" type="line"/>
      <point x="69" y="460"/>
      <point x="97" y="487"/>
      <point x="134" y="499"/>
      <point x="182" y="500"/>
      <point x="214" y="500" type="qcurve" smooth="yes"/>
      <point x="549" y="500" type="line"/>
      <point x="549" y="519" type="line"/>
      <point x="193" y="519" type="line" smooth="yes"/>
      <point x="164" y="519"/>
      <point x="118" y="515"/>
      <point x="81" y="499"/>
      <point x="51" y="468"/>
      <point x="37" y="441" type="qcurve"/>
    </contour>
    <contour>
      <point x="472" y="-8" type="qcurve" smooth="yes"/>
      <point x="484" y="-8"/>
      <point x="505" y="-3"/>
      <point x="514" y="3" type="qcurve"/>
      <point x="505" y="21" type="line"/>
      <point x="497" y="16"/>
      <point x="481" y="11"/>
      <point x="471" y="11" type="qcurve" smooth="yes"/>
      <point x="448" y="11"/>
      <point x="427" y="54"/>
      <point x="431" y="113" type="qcurve"/>
      <point x="449" y="508" type="line"/>
      <point x="429" y="508" type="line"/>
      <point x="412" y="114" type="line" smooth="yes"/>
      <point x="410" y="78"/>
      <point x="414" y="31"/>
      <point x="428" y="3"/>
      <point x="453" y="-8"/>
    </contour>
  </outline>
</glyph>
<glyph name="rho" format="2">
  <advance width="594"/>
  <unicode hex="03C1"/>
  <outline>
    <contour>
      <point x="121" y="-206" type="line"/>
      <point x="111" y="-133"/>
      <point x="96" y="-32"/>
      <point x="88" y="59"/>
      <point x="85" y="156"/>
      <point x="87" y="225" type="qcurve" smooth="yes"/>
      <point x="90" y="296"/>
      <point x="121" y="402"/>
      <point x="176" y="473"/>
      <point x="252" y="509"/>
      <point x="299" y="509" type="qcurve" smooth="yes"/>
      <point x="352" y="509"/>
      <point x="432" y="468"/>
      <point x="486" y="400"/>
      <point x="513" y="313"/>
      <point x="513" y="268" type="qcurve" smooth="yes"/>
      <point x="513" y="213"/>
      <point x="477" y="118"/>
      <point x="416" y="47"/>
      <point x="335" y="6"/>
      <point x="290" y="6" type="qcurve" smooth="yes"/>
      <point x="264" y="6"/>
      <point x="211" y="22"/>
      <point x="157" y="61"/>
      <point x="105" y="127"/>
      <point x="79" y="177" type="qcurve"/>
      <point x="77" y="123" type="line"/>
      <point x="101" y="86"/>
      <point x="151" y="36"/>
      <point x="203" y="5"/>
      <point x="257" y="-8"/>
      <point x="285" y="-8" type="qcurve" smooth="yes"/>
      <point x="331" y="-8"/>
      <point x="421" y="28"/>
      <point x="491" y="97"/>
      <point x="535" y="201"/>
      <point x="535" y="268" type="qcurve" smooth="yes"/>
      <point x="535" y="324"/>
      <point x="505" y="419"/>
      <point x="445" y="489"/>
      <point x="355" y="529"/>
      <point x="295" y="529" type="qcurve" smooth="yes"/>
      <point x="237" y="529"/>
      <point x="150" y="488"/>
      <point x="93" y="400"/>
      <point x="64" y="263"/>
      <point x="64" y="167" type="qcurve" smooth="yes"/>
      <point x="64" y="114"/>
      <point x="71" y="6"/>
      <point x="81" y="-94"/>
      <point x="93" y="-179"/>
      <point x="98" y="-209" type="qcurve"/>
    </contour>
  </outline>
</glyph>
<glyph name="sigmafinal" format="2">
  <advance width="537"/>
  <unicode hex="03C2"/>
  <outline>
    <contour>
      <point x="345" y="-146" type="qcurve" smooth="yes"/>
      <point x="374" y="-146"/>
      <point x="425" y="-131"/>
      <point x="462" y="-105"/>
      <point x="483" y="-71"/>
      <point x="482" y="-52" type="qcurve"/>
      <point x="483" y="-36"/>
      <point x="469" y="-7"/>
      <point x="442" y="13"/>
      <point x="405" y="23"/>
      <point x="383" y="22" type="qcurve"/>
      <point x="360" y="24"/>
      <point x="303" y="14"/>
      <point x="278" y="12" type="qcurve"/>
      <point x="235" y="13"/>
      <point x="161" y="51"/>
      <point x="109" y="116"/>
      <point x="79" y="203"/>
      <point x="79" y="252" type="qcurve" smooth="yes"/>
      <point x="79" y="308"/>
      <point x="114" y="402"/>
      <point x="175" y="470"/>
      <point x="259" y="507"/>
      <point x="307" y="507" type="qcurve" smooth="yes"/>
      <point x="334" y="507"/>
      <point x="387" y="495"/>
      <point x="433" y="476"/>
      <point x="469" y="451"/>
      <point x="479" y="438" type="qcurve"/>
      <point x="492" y="457" type="line"/>
      <point x="480" y="473"/>
      <point x="438" y="500"/>
      <point x="387" y="519"/>
      <point x="330" y="529"/>
      <point x="303" y="529" type="qcurve" smooth="yes"/>
      <point x="250" y="529"/>
      <point x="161" y="488"/>
      <point x="96" y="415"/>
      <point x="60" y="314"/>
      <point x="60" y="254" type="qcurve" smooth="yes"/>
      <point x="60" y="201"/>
      <point x="91" y="106"/>
      <point x="149" y="34"/>
      <point x="230" y="-8"/>
      <point x="280" y="-8" type="qcurve" smooth="yes"/>
      <point x="292" y="-8"/>
      <point x="321" y="-6"/>
      <point x="349" y="-3"/>
      <point x="376" y="0"/>
      <point x="385" y="0" type="qcurve" smooth="yes"/>
      <point x="420" y="0"/>
      <point x="458" y="-29"/>
      <point x="458" y="-52" type="qcurve" smooth="yes"/>
      <point x="458" y="-67"/>
      <point x="440" y="-93"/>
      <point x="409" y="-113"/>
      <point x="368" y="-125"/>
      <point x="345" y="-125" type="qcurve" smooth="yes"/>
      <point x="324" y="-125"/>
      <point x="272" y="-116"/>
      <point x="247" y="-107" type="qcurve"/>
      <point x="247" y="-133" type="line"/>
      <point x="277" y="-139"/>
      <point x="327" y="-146"/>
    </contour>
  </outline>
</glyph>
